<ttFont>
          <CharString index="0">
            vlineto
            -7 4 -4 7 vhcurveto
            return
          </CharString>
          <CharString index="1">
            hlineto
            7 -4 4 -7 vhcurveto
            return
          </CharString>
          <CharString index="2">
            vlineto
            7 -4 4 -7 vhcurveto
            return
          </CharString>
          <CharString index="3">
            hlineto
            -7 4 -4 7 vhcurveto
            return
          </CharString>
          <CharString index="4">
            rmoveto
            -139 -107 callsubr
            return
          </CharString>
          <CharString index="5">
            131 -106 callsubr
            return
          </CharString>
          <CharString index="6">
            -106 callsubr
            endchar
          </CharString>
          <CharString index="7">
            rmoveto
            -13 -60 -14 -67 -14 -66 rrcurveto
            return
          </CharString>
          <CharString index="8">
            hlineto
            7 4 4 7 hvcurveto
            return
          </CharString>
          <CharString index="9">
            rmoveto
            -131 -107 callsubr
            return
          </CharString>
          <CharString index="10">
            rmoveto
            -119 -107 callsubr
            return
          </CharString>
          <CharString index="11">
            -124 -104 callsubr
            return
          </CharString>
          <CharString index="12">
            -106 callsubr
            -139 return
          </CharString>
          <CharString index="13">
            -104 callsubr
            endchar
          </CharString>
          <CharString index="14">
            169 139 -101 callsubr
          </CharString>
          <CharString index="15">
            139 529 -106 callsubr
            return
          </CharString>
          <CharString index="16">
            947 62 callsubr
            return
          </CharString>
          <CharString index="17">
            rmoveto
            -7 4 -4 7 vhcurveto
            return
          </CharString>
          <CharString index="18">
            -105 callsubr
            endchar
          </CharString>
          <CharString index="19">
            rmoveto
            73 45 31 65 37 hvcurveto
            20 -75 hlineto
            -44 callsubr
            -58 callsubr
            return
          </CharString>
          <CharString index="20">
            124 -105 callsubr
            -141 430 152 -65 callsubr
            return
          </CharString>
          <CharString index="21">
            812 0 callsubr
            return
          </CharString>
          <CharString index="22">
            -156 94 -87 151 return
          </CharString>
          <CharString index="23">
            rmoveto
            153 -74 60 -173 -72 -90 -20 -12 -12 vhcurveto
            -2 -2 -1 -3 -5 vvcurveto
            -118 20 vlineto
            16 52 48 7 57 hhcurveto
            70 27 -16 -50 hvcurveto
            -32 -157 vlineto
            -96 -61 -59 -85 hvcurveto
            -37 vlineto
            -85 57 -59 90 72 59 35 62 25 vhcurveto
            17 hlineto
            -53 16 45 -34 61 hhcurveto
            67 -99 callsubr
            119 73 callsubr
            endchar
          </CharString>
          <CharString index="24">
            rmoveto
            -139 -400 hlineto
            -94 60 -58 81 74 41 36 62 35 vhcurveto
            19 -75 -104 callsubr
            -92 callsubr
            108 callsubr
            endchar
          </CharString>
          <CharString index="25">
            rmoveto
            -148 -89 -95 -127 hvcurveto
            -118 vlineto
            -137 86 -87 180 78 88 19 14 14 vhcurveto
            3 3 1 2 3 vvcurveto
            114 -20 vlineto
            -14 -45 -47 -11 -71 hhcurveto
            -43 38 callsubr
            74 callsubr
            endchar
          </CharString>
          <CharString index="26">
            -149 -511 hlineto
            39 callsubr
            125 callsubr
            endchar
          </CharString>
          <CharString index="27">
            rmoveto
            -151 -94 -87 -156 hvcurveto
            -254 vlineto
            return
          </CharString>
          <CharString index="28">
            rmoveto
            -147 -100 -95 -138 hvcurveto
            -98 vlineto
            return
          </CharString>
          <CharString index="29">
            rmoveto
            -20 callsubr
            return
          </CharString>
          <CharString index="30">
            639 rmoveto
            26 32 80 97 29 36 rrcurveto
            16 20 2 2 6 vvcurveto
            5 -3 4 -8 vhcurveto
            -107 hlineto
            -23 -22 -24 -26 -37 -39 rrcurveto
            -7 hlineto
            -40 41 -23 24 -11 11 rrcurveto
            9 -9 -5 2 -15 hhcurveto
            -112 hlineto
            47 -58 81 -99 19 -23 rrcurveto
            -19 16 4 -3 10 hhcurveto
            return
          </CharString>
          <CharString index="31">
            rmoveto
            -73 -21 50 -90 hhcurveto
            -48 -43 -18 -27 -20 hvcurveto
            -7 -9 0 -4 -11 vvcurveto
            -122 20 vlineto
            32 23 32 17 37 73 21 -50 90 hhcurveto
            48 43 18 27 20 hvcurveto
            7 9 0 4 11 vvcurveto
            122 -20 vlineto
            -32 -23 -32 -17 -37 hhcurveto
            return
          </CharString>
          <CharString index="32">
            rmoveto
            84 hlineto
            5 2 1 6 3 hvcurveto
            7 15 109 255 6 15 rrcurveto
            8 3 -3 5 -8 hhcurveto
            -126 hlineto
            -3 -11 -75 -280 -4 -14 rrcurveto
            return
          </CharString>
          <CharString index="33">
            rrcurveto
            -9 -4 5 -6 7 hhcurveto
            31 19 -12 -24 -25 -21 -9 -24 -25 -19 5 7 -19 hvcurveto
            -12 -90 hlineto
            -21 22 -11 76 103 50 42 81 return
          </CharString>
          <CharString index="34">
            -299 -119 hlineto
            -44 callsubr
            return
          </CharString>
          <CharString index="35">
            -138 100 -95 147 147 100 95 138 vhcurveto
            68 callsubr
          </CharString>
          <CharString index="36">
            768 rmoveto
            -105 callgsubr
            75 hmoveto
            -105 callgsubr
            return
          </CharString>
          <CharString index="37">
            -449 -96 callsubr
            37 callsubr
            endchar
          </CharString>
          <CharString index="38">
            rmoveto
            454 -65 callsubr
            20 callsubr
          </CharString>
          <CharString index="39">
            151 94 87 156 vhcurveto
            24 callsubr
          </CharString>
          <CharString index="40">
            179 139 -106 callsubr
            return
          </CharString>
          <CharString index="41">
            -73 callsubr
            hlineto
            endchar
          </CharString>
          <CharString index="42">
            124 -106 callsubr
            return
          </CharString>
          <CharString index="43">
            111 117 callsubr
          </CharString>
          <CharString index="44">
            -104 callsubr
            139 return
          </CharString>
          <CharString index="45">
            12 56 11 49 10 45 rrcurveto
            186 hlineto
            9 -42 11 -46 11 -51 rrcurveto
            -8 2 3 -3 6 hhcurveto
            143 hlineto
            -11 53 -13 51 -12 49 61 callsubr
            endchar
          </CharString>
          <CharString index="46">
            -689 -104 callsubr
            return
          </CharString>
          <CharString index="47">
            -131 -104 callsubr
            return
          </CharString>
          <CharString index="48">
            775 22 callsubr
            return
          </CharString>
          <CharString index="49">
            689 -106 callsubr
            return
          </CharString>
          <CharString index="50">
            341 -47 callsubr
            return
          </CharString>
          <CharString index="51">
            338 -37 callsubr
            return
          </CharString>
          <CharString index="52">
            121 117 callsubr
          </CharString>
          <CharString index="53">
            -105 callsubr
            -139 return
          </CharString>
          <CharString index="54">
            -99 callsubr
            119 return
          </CharString>
          <CharString index="55">
            rmoveto
            -146 hlineto
            50 -176 97 -301 4 -12 rrcurveto
            -7 2 4 -4 7 hhcurveto
            97 hlineto
            -4 -16 -3 -13 -2 -11 rrcurveto
            -49 -11 -27 -21 -45 hhcurveto
            -106 -119 -104 callsubr
            114 hlineto
            113 59 52 117 27 hvcurveto
            54 229 33 137 46 189 rrcurveto
            10 2 -7 6 -7 hhcurveto
            -141 hlineto
            -28 -133 -34 -159 -24 -116 rrcurveto
            -20 hlineto
            -31 137 -2 11 -62 246 rrcurveto
            11 -3 -4 3 -13 hhcurveto
            endchar
          </CharString>
          <CharString index="56">
            79 -128 hlineto
            -1 -26 -11 -51 -30 -25 8 19 -19 vhcurveto
            -19 19 -10 30 42 vvcurveto
            214 vlineto
            88 46 37 72 24 19 -2 -7 19 vhcurveto
            -57 -107 callsubr
            129 140 hlineto
            8 -1 5 -5 5 vhcurveto
            return
          </CharString>
          <CharString index="57">
            257 vlineto
            67 143 66 143 64 141 rrcurveto
            9 5 -6 99 callsubr
            -2 -6 4 -7 hhcurveto
            -157 hlineto
            62 -135 111 -241 32 -68 rrcurveto
            -245 -107 callsubr
            endchar
          </CharString>
          <CharString index="58">
            60 -41 35 -64 2 vhcurveto
            2 9 return
          </CharString>
          <CharString index="59">
            rmoveto
            189 -105 callsubr
            return
          </CharString>
          <CharString index="60">
            957 -78 callsubr
            return
          </CharString>
          <CharString index="61">
            807 92 callsubr
            return
          </CharString>
          <CharString index="62">
            205 -11 callsubr
            return
          </CharString>
          <CharString index="63">
            -7 4 -4 7 vhcurveto
            149 return
          </CharString>
          <CharString index="64">
            rmoveto
            -25 11 -24 17 -18 vhcurveto
            -18 72 callsubr
            153 73 52 84 hvcurveto
            14 vlineto
            45 -21 25 -48 13 vhcurveto
            16 105 vlineto
            6 5 5 6 hvcurveto
            114 -273 vlineto
            -152 -81 -68 -111 hvcurveto
            -21 vlineto
            -84 46 -56 88 -23 vhcurveto
            -15 vlineto
            -59 -17 -25 -34 -46 vvcurveto
            183 214 rmoveto
            -35 -24 7 14 -14 hvcurveto
            -10 10 -5 12 17 vvcurveto
            16 vlineto
            41 30 19 58 vhcurveto
            64 hlineto
            14 -16 4 -14 -22 vvcurveto
            -21 vlineto
            -43 -24 -20 -58 vhcurveto
            -65 -429 84 callsubr
          </CharString>
          <CharString index="65">
            rmoveto
            10 vlineto
            66 -56 22 -100 -56 -41 -9 -6 -16 vhcurveto
            -8 -3 -1 -5 -4 vvcurveto
            -78 12 vlineto
            11 30 32 6 41 hhcurveto
            46 15 -10 -23 -21 -20 -12 -106 hvcurveto
            -59 vlineto
            -8 5 -4 7 103 17 -15 -23 -23 -14 -11 -46 -45 -34 6 12 -30 vhcurveto
            -12 -71 hlineto
            -8 1 -3 5 -4 vhcurveto
            -11 21 37 -9 65 hhcurveto
            102 50 28 71 hvcurveto
            6 vlineto
            40 -20 27 -52 13 vhcurveto
            20 vlineto
            53 16 15 27 39 vvcurveto
            return
          </CharString>
          <CharString index="66">
            rmoveto
            -27 10 -11 11 21 vvcurveto
            21 11 15 38 25 13 -5 -6 6 vhcurveto
            5 -5 3 -9 -11 vvcurveto
            -3 vlineto
            -20 -15 -17 -27 -9 vhcurveto
            -64 -107 rmoveto
            20 16 17 34 13 vhcurveto
            17 -6 rlineto
            33 -11 7 -9 -22 vvcurveto
            -22 -13 -14 -40 -40 -14 14 20 vhcurveto
            endchar
          </CharString>
          <CharString index="67">
            rmoveto
            -90 -51 -42 -64 hvcurveto
            -3 vlineto
            -48 18 -22 33 -14 vhcurveto
            -20 vlineto
            -40 -11 -18 -28 -33 vvcurveto
            -7 vlineto
            -67 51 -26 95 95 49 26 73 vhcurveto
            7 vlineto
            46 -18 26 -38 15 vhcurveto
            20 vlineto
            31 9 17 23 37 vvcurveto
            9 vlineto
            52 -48 42 -86 vhcurveto
            return
          </CharString>
          <CharString index="68">
            750 rmoveto
            77 callsubr
            return
          </CharString>
          <CharString index="69">
            259 957 91 callsubr
            return
          </CharString>
          <CharString index="70">
            807 rmoveto
            -19 callsubr
            return
          </CharString>
          <CharString index="71">
            112 935 rmoveto
            9 callsubr
            75 hmoveto
            9 callsubr
            return
          </CharString>
          <CharString index="72">
            rmoveto
            95 79 27 26 26 hvcurveto
            43 callsubr
            70 callsubr
            31 -31 -73 33 -102 hhcurveto
            -179 -102 -108 -157 hvcurveto
            -199 vlineto
            return
          </CharString>
          <CharString index="73">
            469 119 -95 callsubr
            return
          </CharString>
          <CharString index="74">
            410 907 23 callsubr
            return
          </CharString>
          <CharString index="75">
            120 922 -14 callsubr
            return
          </CharString>
          <CharString index="76">
            60 130 -97 callsubr
            return
          </CharString>
          <CharString index="77">
            775 -14 callsubr
            return
          </CharString>
          <CharString index="78">
            163 101 callsubr
            return
          </CharString>
          <CharString index="79">
            -105 callsubr
            -144 return
          </CharString>
          <CharString index="80">
            -106 callsubr
            -144 return
          </CharString>
          <CharString index="81">
            hlineto
            5 -1 3 -2 2 vhcurveto
            return
          </CharString>
          <CharString index="82">
            hlineto
            3 -1 3 -2 2 vhcurveto
            return
          </CharString>
          <CharString index="83">
            rmoveto
            3 -30 4 -34 3 -36 26 -240 36 -337 2 -13 rrcurveto
            -6 1 4 -4 6 hhcurveto
            157 hlineto
            3 23 20 170 11 198 rrcurveto
            19 hlineto
            11 -197 21 -170 2 -13 rrcurveto
            -7 1 4 -4 6 hhcurveto
            152 hlineto
            25 229 47 434 3 22 rrcurveto
            10 1 -4 5 -8 hhcurveto
            -126 hlineto
            -8 -176 -4 -80 -9 -309 rrcurveto
            -21 hlineto
            -16 162 -25 238 -2 25 rrcurveto
            7 -1 -5 4 -6 hhcurveto
            -105 hlineto
            -15 -130 -17 -147 -10 -159 rrcurveto
            -21 hlineto
            -10 297 -13 229 -2 25 rrcurveto
            9 -1 -5 5 -8 hhcurveto
            endchar
          </CharString>
          <CharString index="84">
            rmoveto
            -20 -97 -16 -100 -8 -137 rrcurveto
            -26 hlineto
            164 -7 119 -10 127 vhcurveto
            11 -1 -4 2 -8 hhcurveto
            -138 hlineto
            24 -175 25 -175 24 -175 rrcurveto
            -10 1 6 -5 10 hhcurveto
            157 hlineto
            26 130 4 28 7 154 rrcurveto
            21 hlineto
            8 -154 5 -28 23 -115 rrcurveto
            -10 2 5 -5 10 hhcurveto
            154 hlineto
            25 176 25 175 25 176 rrcurveto
            12 2 -3 1 -8 hhcurveto
            -138 hlineto
            -10 -129 -7 -129 -165 vvcurveto
            -26 hlineto
            -10 141 -14 91 -18 91 rrcurveto
            9 -2 -4 2 -6 hhcurveto
            endchar
          </CharString>
          <CharString index="85">
            rmoveto
            17 14 -4 -8 9 hvcurveto
            9 -8 5 -12 -15 vvcurveto
            -14 vlineto
            -29 -19 -18 -35 -17 -13 4 8 -9 vhcurveto
            -10 8 -5 12 15 vvcurveto
            14 vlineto
            30 19 17 35 vhcurveto
            return
          </CharString>
          <CharString index="86">
            rmoveto
            -84 hlineto
            -5 -3 -1 -6 -2 hvcurveto
            -6 -15 -111 -258 -5 -12 rrcurveto
            -8 -3 3 -5 8 hhcurveto
            126 hlineto
            3 12 74 277 5 16 rrcurveto
            return
          </CharString>
          <CharString index="87">
            -35 -61 -36 -60 -35 -61 rrcurveto
            120 hlineto
            8 5 3 3 3 hvcurveto
            72 77 25 29 51 56 rrcurveto
            6 5 -3 8 -8 hhcurveto
            return
          </CharString>
          <CharString index="88">
            -36 -64 -35 -62 -35 -62 rrcurveto
            118 hlineto
            8 6 4 4 3 hvcurveto
            59 65 39 43 51 57 rrcurveto
            7 6 -5 8 -8 hhcurveto
            return
          </CharString>
          <CharString index="89">
            170 124 -105 callsubr
            -489 -96 callsubr
            159 return
          </CharString>
          <CharString index="90">
            -139 98 -98 165 100 74 26 15 15 vhcurveto
            2 2 1 3 3 vvcurveto
            69 callsubr
          </CharString>
          <CharString index="91">
            348 vlineto
            2 callsubr
            75 -95 callsubr
            -529 -94 callsubr
          </CharString>
          <CharString index="92">
            30 -30 -67 32 -96 hhcurveto
            -179 -102 -108 -157 hvcurveto
            79 callsubr
            endchar
          </CharString>
          <CharString index="93">
            rmoveto
            -112 -107 callsubr
            349 112 -106 callsubr
            return
          </CharString>
          <CharString index="94">
            vvcurveto
            -82 58 -47 94 44 38 14 21 vhcurveto
            11 callsubr
            return
          </CharString>
          <CharString index="95">
            463 rmoveto
            -86 -107 callsubr
            65 callsubr
            return
          </CharString>
          <CharString index="96">
            802 -103 callsubr
            -67 callsubr
            return
          </CharString>
          <CharString index="97">
            31 33 25 61 9 hvcurveto
            12 2 1 5 4 vvcurveto
            return
          </CharString>
          <CharString index="98">
            29 callsubr
            -61 callsubr
            endchar
          </CharString>
          <CharString index="99">
            rmoveto
            -171 -96 -99 -138 hvcurveto
            -90 vlineto
            return
          </CharString>
          <CharString index="100">
            300 720 -80 callsubr
            return
          </CharString>
          <CharString index="101">
            -176 96 -100 198 vhcurveto
            endchar
          </CharString>
          <CharString index="102">
            rmoveto
            -129 -107 callsubr
            return
          </CharString>
          <CharString index="103">
            -73 hlineto
            -49 -35 -5 -13 -28 hvcurveto
            20 vlineto
            9 16 22 11 49 12 rrcurveto
            76 18 36 37 75 vvcurveto
            8 vlineto
            67 -49 33 -97 -59 -40 -8 -6 -16 vhcurveto
            -8 -3 -1 -4 -4 vvcurveto
            -88 12 vlineto
            10 30 31 5 39 hhcurveto
            35 17 -4 -5 5 hvcurveto
            4 -4 1 -5 -6 vvcurveto
            -17 -10 -11 -71 -19 vhcurveto
            -74 -20 -29 -36 -66 vvcurveto
            -74 -107 callsubr
            return
          </CharString>
          <CharString index="104">
            rmoveto
            79 41 81 -105 callsubr
            -30 62 hlineto
            7 -3 4 -8 vhcurveto
            -55 hlineto
            -3 -8 -18 -46 -7 -20 -26 -2 -25 -5 -25 -10 rrcurveto
            22 vlineto
            36 57 81 133 5 8 rrcurveto
            12 -101 vlineto
            -5 -5 -1 -7 -4 hvcurveto
            -6 -10 -108 -208 -2 vvcurveto
            -67 -107 callsubr
            170 -68 hlineto
            -8 4 -3 7 vhcurveto
            return
          </CharString>
          <CharString index="105">
            rmoveto
            48 209 -22 vlineto
            -41 -22 -32 -23 -34 -40 -81 -97 -80 -97 -81 -96 rrcurveto
            -150 -107 callsubr
            494 -102 callsubr
            -343 22 hlineto
            41 22 32 22 34 41 80 97 81 96 81 97 rrcurveto
            150 -105 callsubr
            -489 -179 -94 callsubr
          </CharString>
          <CharString index="106">
            rmoveto
            -91 hlineto
            -30 -22 5 13 -13 hvcurveto
            -14 14 -5 22 35 vvcurveto
            189 175 119 -105 callsubr
            -164 149 -95 callsubr
            -160 -115 -119 -104 callsubr
            104 -190 hlineto
            return
          </CharString>
          <CharString index="107">
            rmoveto
            -26 -32 -80 -97 -29 -36 rrcurveto
            -16 -20 -2 -2 -6 vvcurveto
            -5 3 -4 8 vhcurveto
            107 hlineto
            23 22 24 26 37 39 rrcurveto
            7 hlineto
            40 -41 23 -24 11 -11 rrcurveto
            -9 9 5 -2 15 hhcurveto
            112 hlineto
            -47 58 -81 99 -19 23 rrcurveto
            19 -16 -4 3 -10 hhcurveto
            return
          </CharString>
          <CharString index="108">
            287 -20 hlineto
            -92 -44 -18 -15 -188 -164 rrcurveto
            -144 -107 callsubr
            449 -102 callsubr
            -287 20 hlineto
            93 44 19 13 186 166 rrcurveto
            144 -89 callsubr
          </CharString>
          <CharString index="109">
            39 38 53 20 37 hhcurveto
            31 11 -14 -30 hvcurveto
            -352 -107 callsubr
            139 394 hlineto
            99 -56 59 -86 -66 -55 -40 -58 -37 vhcurveto
            -20 return
          </CharString>
          <CharString index="110">
            124 hlineto
            5 3 1 6 2 hvcurveto
            41 101 40 101 41 101 rrcurveto
            8 3 -3 5 -8 hhcurveto
            -176 hlineto
            -24 -108 -24 -107 -24 -108 rrcurveto
            return
          </CharString>
          <CharString index="111">
            rmoveto
            -134 -189 83 hlineto
            9 5 4 7 2 hvcurveto
            21 73 5 20 20 70 rrcurveto
            8 2 -5 7 -8 hhcurveto
            return
          </CharString>
          <CharString index="112">
            rmoveto
            26 callsubr
            -33 33 83 -19 97 hhcurveto
            168 99 71 119 hvcurveto
            25 callsubr
            endchar
          </CharString>
          <CharString index="113">
            rmoveto
            -83 -54 11 26 -65 hvcurveto
            -20 -131 hlineto
            -3 0 -2 2 -2 vhcurveto
            54 callsubr
            endchar
          </CharString>
          <CharString index="114">
            225 vlineto
            140 -68 97 -182 vhcurveto
            -260 -121 -104 callsubr
            34 return
          </CharString>
          <CharString index="115">
            119 -176 vlineto
            -17 -10 3 7 -7 hvcurveto
            -7 7 -1 8 13 vvcurveto
            return
          </CharString>
          <CharString index="116">
            -136 -107 callsubr
            145 136 -106 callsubr
            return
          </CharString>
          <CharString index="117">
            -115 54 -55 128 vhcurveto
            175 -99 callsubr
            return
          </CharString>
          <CharString index="118">
            122 -20 vlineto
            -8 -13 -15 -5 -16 hhcurveto
            -25 -13 10 20 return
          </CharString>
          <CharString index="119">
            rlineto
            2 -2 -2 1 -2 hhcurveto
            -2 -2 -1 -2 -2 hvcurveto
            return
          </CharString>
          <CharString index="120">
            rlineto
            -2 2 2 -1 2 hhcurveto
            2 2 1 2 2 hvcurveto
            return
          </CharString>
          <CharString index="121">
            218 552 rmoveto
            -100 -63 -71 -123 hvcurveto
            return
          </CharString>
          <CharString index="122">
            11 callsubr
            31 33 24 63 10 hvcurveto
            return
          </CharString>
          <CharString index="123">
            218 hlineto
            147 89 90 148 hvcurveto
            return
          </CharString>
          <CharString index="124">
            300 552 -79 callsubr
            return
          </CharString>
          <CharString index="125">
            -174 vlineto
            -122 63 -72 100 return
          </CharString>
          <CharString index="126">
            -104 49 -50 32 callsubr
            return
          </CharString>
          <CharString index="127">
            -294 151 245 119 -106 callsubr
            -234 149 305 -65 callsubr
            -499 -96 callsubr
            34 -554 -104 callsubr
            endchar
          </CharString>
          <CharString index="128">
            rmoveto
            -368 -60 callsubr
            218 -379 hlineto
            -41 -7 -29 -17 -20 vhcurveto
            -20 -16 -26 -9 -38 hhcurveto
            -55 -49 8 22 -51 hvcurveto
            -20 -139 hlineto
            -3 1 -3 2 -2 vhcurveto
            -15 15 73 -18 84 hhcurveto
            169 85 84 160 hvcurveto
            535 vlineto
            6 -5 5 -6 vhcurveto
            endchar
          </CharString>
          <CharString index="129">
            rmoveto
            37 38 62 65 34 36 rrcurveto
            18 19 2 2 5 vvcurveto
            5 -3 2 -8 vhcurveto
            -127 hlineto
            -26 -22 -31 -26 -36 -34 rrcurveto
            -10 hlineto
            -39 36 -26 22 -17 14 rrcurveto
            8 -11 -2 2 -15 hhcurveto
            -133 hlineto
            55 -58 71 -74 21 -21 rrcurveto
            -17 17 5 -2 9 hhcurveto
            return
          </CharString>
          <CharString index="130">
            rmoveto
            -73 -51 55 -90 hhcurveto
            -45 -30 -14 -23 -21 hvcurveto
            -7 -8 0 -4 -11 vvcurveto
            -122 20 vlineto
            28 20 26 12 31 73 51 -55 90 hhcurveto
            45 30 14 23 21 hvcurveto
            7 7 0 4 12 vvcurveto
            122 -20 vlineto
            -29 -20 -26 -11 -31 hhcurveto
            return
          </CharString>
          <CharString index="131">
            254 vlineto
            156 -94 87 -151 vhcurveto
            -95 -497 rmoveto
            254 vlineto
            70 28 38 67 31 22 -7 -16 16 vhcurveto
            18 -18 8 -29 -38 vvcurveto
            -254 vlineto
            -70 -28 -38 -67 -31 -23 8 15 -15 vhcurveto
            -19 19 -7 28 38 vvcurveto
            endchar
          </CharString>
          <CharString index="132">
            48 vlineto
            93 -35 50 -125 38 vhcurveto
            -95 29 rlineto
            -66 20 -11 14 36 vvcurveto
            21 vlineto
            48 36 18 72 22 17 -2 -4 18 vhcurveto
            -63 -107 callsubr
            131 140 hlineto
            8 -1 5 -5 5 vhcurveto
            31 -31 -68 26 -94 hhcurveto
            return
          </CharString>
          <CharString index="133">
            -157 -98 -81 -109 hvcurveto
            -51 vlineto
            -72 29 -65 134 -41 vhcurveto
            94 -29 rlineto
            69 -21 6 -15 -27 vvcurveto
            -37 vlineto
            -28 -30 -28 -79 -90 -60 19 39 -60 vhcurveto
            -20 -122 hlineto
            -13 2 -3 4 -4 vhcurveto
            return
          </CharString>
          <CharString index="134">
            rmoveto
            25 18 -5 -12 12 hvcurveto
            10 -10 5 -14 -19 vvcurveto
            -24 vlineto
            -44 -23 -23 -46 vhcurveto
            -86 151 hlineto
            -436 vmoveto
            158 84 vlineto
            49 22 -19 -45 hvcurveto
            -32 vlineto
            -38 -22 -24 -49 vhcurveto
            endchar
          </CharString>
          <CharString index="135">
            174 hmoveto
            12 56 11 49 10 45 rrcurveto
            186 hlineto
            9 -42 11 -46 11 -51 rrcurveto
            -8 2 3 -3 6 hhcurveto
            143 hlineto
            -11 53 -13 51 -12 49 return
          </CharString>
          <CharString index="136">
            -139 -146 hlineto
            -88 4 -48 37 -195 vhcurveto
            -20 hlineto
            -68 210 -46 131 -44 126 rrcurveto
            9 -3 -2 1 -12 hhcurveto
            -176 return
          </CharString>
          <CharString index="137">
            331 vlineto
            42 47 69 23 72 hhcurveto
            40 26 -6 -12 43 hvcurveto
            20 138 -26 callsubr
            100 callsubr
            endchar
          </CharString>
          <CharString index="138">
            233 60 vlineto
            28 -56 28 -56 29 -56 rrcurveto
            -55 28 32 -10 72 hhcurveto
            42 -99 callsubr
            55 callsubr
            endchar
          </CharString>
          <CharString index="139">
            116 vhcurveto
            144 -53 callsubr
            -140 vlineto
            -12 -7 2 5 -5 hvcurveto
            -5 5 -1 6 9 vvcurveto
            return
          </CharString>
          <CharString index="140">
            13 vlineto
            39 16 21 34 32 18 -19 -34 vhcurveto
            -14 vlineto
            -39 -16 -22 -34 -32 -18 21 34 vhcurveto
            return
          </CharString>
          <CharString index="141">
            31 21 -6 -14 14 hvcurveto
            16 -16 7 -27 -42 vvcurveto
            -226 vlineto
            -64 -22 -41 -67 vhcurveto
            endchar
          </CharString>
          <CharString index="142">
            rmoveto
            88 -92 48 -51 55 -58 -59 -63 -51 -55 -81 -85 rrcurveto
            -20 return
          </CharString>
          <CharString index="143">
            -155 83 -65 146 vhcurveto
            85 hlineto
            6 5 5 6 hvcurveto
            return
          </CharString>
          <CharString index="144">
            141 -430 -152 -96 callsubr
            return
          </CharString>
          <CharString index="145">
            -33 7 20 -20 hvcurveto
            -14 14 -7 21 30 vvcurveto
            return
          </CharString>
          <CharString index="146">
            -40 -41 -40 -19 -38 hhcurveto
            -28 -13 14 28 hvcurveto
            return
          </CharString>
          <CharString index="147">
            -25 callsubr
            2 -2 -3 1 -3 hhcurveto
            return
          </CharString>
          <CharString index="148">
            371 rmoveto
            -132 -107 callsubr
            return
          </CharString>
          <CharString index="149">
            300 868 rmoveto
            93 callsubr
            return
          </CharString>
          <CharString index="150">
            4 4 2 5 7 vvcurveto
            123 -20 vlineto
            return
          </CharString>
          <CharString index="151">
            vvcurveto
            -82 53 -47 87 44 38 14 21 vhcurveto
            return
          </CharString>
          <CharString index="152">
            rmoveto
            -65 -51 -14 -12 -12 hvcurveto
            -2 -2 -1 -3 -3 vvcurveto
            -111 20 vlineto
            14 40 33 6 44 hhcurveto
            51 21 -21 -68 hvcurveto
            -19 -76 vlineto
            -83 -70 -57 -72 hvcurveto
            -56 vlineto
            -83 60 -61 86 58 49 29 49 32 vhcurveto
            -50 33 54 -30 71 hhcurveto
            66 35 16 10 17 hvcurveto
            5 3 1 4 3 vvcurveto
            109 -20 vlineto
            -16 -40 -21 -4 -51 hhcurveto
            -25 -21 5 15 -16 hvcurveto
            -18 15 -10 27 42 vvcurveto
            12 215 vlineto
            6 4 4 6 hvcurveto
            101 vlineto
            157 -57 55 -98 -52 -47 -25 -46 -31 vhcurveto
            46 -30 -47 25 -57 hhcurveto
            247 -120 rmoveto
            20 13 -6 -13 8 hvcurveto
            8 -14 3 -21 -31 vvcurveto
            -28 -105 33 vlineto
            51 14 29 39 vhcurveto
            -228 -321 rmoveto
            -3 hlineto
            -24 -13 9 27 hvcurveto
            44 vlineto
            10 3 9 7 7 vhcurveto
            7 6 9 5 11 hhcurveto
            63 -51 hlineto
            -44 -21 -23 -38 vhcurveto
            endchar
          </CharString>
          <CharString index="153">
            -64 16 -52 28 -39 vhcurveto
            -19 -41 -32 -66 -17 -37 rrcurveto
            120 hlineto
            9 2 0 12 6 hvcurveto
            8 16 10 21 11 23 rrcurveto
            -10 30 35 -6 38 hhcurveto
            151 94 87 156 hvcurveto
            254 vlineto
            66 -17 53 -30 40 vhcurveto
            23 45 23 48 24 47 rrcurveto
            -118 hlineto
            -13 -3 -2 -17 -8 hvcurveto
            -7 -15 -8 -18 -9 -20 rrcurveto
            11 -30 -34 5 -38 hhcurveto
            -95 -243 rmoveto
            70 28 38 67 18 14 -2 -5 12 vhcurveto
            -22 -50 -25 -55 -25 -57 -29 -65 -22 -61 -9 -43 rrcurveto
            -7 hlineto
            137 76 rmoveto
            24 56 17 51 6 32 rrcurveto
            6 -239 hlineto
            -70 -28 -38 -67 -17 -15 2 5 -12 vhcurveto
            30 66 28 69 28 66 rrcurveto
            endchar
          </CharString>
          <CharString index="154">
            -73 28 -62 49 -41 vhcurveto
            -17 -32 -27 -51 -15 -28 rrcurveto
            109 hlineto
            8 2 1 7 4 hvcurveto
            7 14 11 20 12 21 rrcurveto
            -6 23 26 -3 27 hhcurveto
            147 100 95 138 hvcurveto
            98 vlineto
            75 -30 62 -50 41 vhcurveto
            19 34 20 37 21 39 rrcurveto
            -112 hlineto
            -11 -3 -2 -17 -8 hvcurveto
            -7 -14 -7 -15 -8 -15 rrcurveto
            5 -22 -24 3 -25 hhcurveto
            -135 vmoveto
            8 1 0 1 hhcurveto
            -32 -68 -35 -74 -37 -77 rrcurveto
            -2 9 -1 10 11 vvcurveto
            84 vlineto
            68 35 37 62 vhcurveto
            97 -105 rmoveto
            -84 vlineto
            -68 -35 -37 -62 -13 -12 2 3 -10 vhcurveto
            20 37 41 75 65 119 rrcurveto
            4 -13 2 -15 -19 vvcurveto
            endchar
          </CharString>
          <CharString index="155">
            7 42 6 41 7 42 rrcurveto
            106 hlineto
            2 -39 3 -40 3 -39 rrcurveto
            -6 1 4 -1 6 hhcurveto
            274 128 -106 callsubr
            -142 hlineto
            -10 147 rlineto
            123 121 -106 callsubr
            -122 hlineto
            -7 99 -1 15 -1 15 -1 14 rlinecurve
            183 128 -106 callsubr
            -440 hlineto
            -40 -229 -39 -229 -40 -229 rrcurveto
            -10 -2 6 -3 4 hhcurveto
            225 561 rmoveto
            20 hlineto
            4 -100 5 -101 6 -101 rrcurveto
            -77 hlineto
            15 101 14 100 13 101 rrcurveto
            endchar
          </CharString>
          <CharString index="156">
            rmoveto
            -94 -48 -54 -73 hvcurveto
            -5 vlineto
            -81 50 -33 61 35 21 7 17 12 vhcurveto
            20 -6 hlineto
            -30 -8 -20 -12 -12 vhcurveto
            -11 -11 -18 -4 -34 hhcurveto
            -32 -29 5 10 -25 hvcurveto
            -12 -70 hlineto
            -4 1 -3 9 -4 vhcurveto
            -8 17 38 -6 45 hhcurveto
            95 69 46 138 hvcurveto
            18 vlineto
            128 -48 55 -102 vhcurveto
            -38 -166 rmoveto
            -7 7 -5 9 19 vvcurveto
            6 vlineto
            27 16 18 35 20 13 -4 -9 9 vhcurveto
            9 -9 5 -22 -21 vvcurveto
            -17 vlineto
            -11 -19 -20 -4 -18 hhcurveto
            -18 -13 4 7 -7 hvcurveto
            endchar
          </CharString>
          <CharString index="157">
            rmoveto
            -103 -60 -67 -124 hvcurveto
            -16 vlineto
            -132 50 -46 102 92 48 43 81 vhcurveto
            9 vlineto
            64 -41 45 -66 -35 -19 -8 -13 -13 vhcurveto
            -20 hlineto
            24 6 27 12 12 vhcurveto
            14 12 19 6 32 hhcurveto
            28 23 -5 -11 27 hvcurveto
            12 70 hlineto
            4 -1 4 -9 4 vhcurveto
            9 -19 -32 6 -45 hhcurveto
            -51 -293 rmoveto
            -10 9 -4 15 25 vvcurveto
            16 vlineto
            10 15 17 4 20 hhcurveto
            16 11 -3 -8 8 hvcurveto
            7 -7 4 -11 -16 vvcurveto
            -6 vlineto
            -22 -13 -17 -35 -16 -12 4 7 -8 vhcurveto
            endchar
          </CharString>
          <CharString index="158">
            60 700 rmoveto
            -689 -107 callsubr
            144 148 hlineto
            20 28 20 28 20 29 rrcurveto
            19 hlineto
            11 -48 11 -25 46 -76 rrcurveto
            -77 48 32 -7 75 hhcurveto
            42 -99 callsubr
            124 -29 vlineto
            -26 -6 5 25 -15 hvcurveto
            -41 66 -43 69 -42 67 86 124 75 108 33 50 rrcurveto
            24 35 0 3 5 vvcurveto
            4 -4 4 -5 vhcurveto
            -170 hlineto
            -33 -55 -49 -83 -32 -55 -28 -47 -17 -37 -13 -50 rrcurveto
            -20 316 -106 callsubr
            return
          </CharString>
          <CharString index="159">
            rmoveto
            -85 -60 -65 -106 hvcurveto
            -42 vlineto
            -107 60 -65 85 86 61 65 107 vhcurveto
            42 vlineto
            106 -60 65 -87 vhcurveto
            -92 vmoveto
            18 13 -4 -11 9 hvcurveto
            3 -4 2 -4 3 -6 -14 -10 -13 -10 -15 -11 -29 -21 -11 -13 -8 -17 rrcurveto
            -12 30 hlineto
            61 16 20 38 vhcurveto
            -40 -187 rmoveto
            -3 4 -2 4 -2 5 16 12 16 12 18 14 23 18 9 11 8 18 rrcurveto
            12 -37 hlineto
            -54 -22 -22 -36 -17 -12 5 10 -8 vhcurveto
            endchar
          </CharString>
          <CharString index="160">
            220 hmoveto
            154 vlineto
            18 20 17 20 18 20 rrcurveto
            20 hlineto
            8 -47 11 -29 24 -36 24 -36 30 -46 8 -11 rrcurveto
            -7 5 4 -2 9 hhcurveto
            171 hlineto
            -78 103 -74 100 -78 106 59 66 61 68 64 73 rrcurveto
            8 9 0 2 4 vvcurveto
            5 -4 4 -6 vhcurveto
            -166 hlineto
            -30 -39 -17 -23 -23 -29 -29 -37 -19 -33 -15 -58 rrcurveto
            -20 418 -95 callsubr
            -739 -104 callsubr
            return
          </CharString>
          <CharString index="161">
            -13 13 88 -26 118 hhcurveto
            158 84 59 116 84 -52 48 -106 13 hvcurveto
            -95 12 rlineto
            -39 5 -12 12 21 vvcurveto
            30 20 18 76 58 37 -6 -17 58 vhcurveto
            20 122 -26 callsubr
            12 -12 -57 19 -102 hhcurveto
            102 callsubr
            vhcurveto
            return
          </CharString>
          <CharString index="162">
            124 -33 vlineto
            -14 -7 5 18 -10 hvcurveto
            -20 36 -17 31 -19 32 rrcurveto
            61 32 34 60 82 vvcurveto
            59 vlineto
            128 -63 82 -168 vhcurveto
            -274 -96 callsubr
            34 -554 -104 callsubr
            224 565 rmoveto
            25 18 -6 -11 11 hvcurveto
            11 -11 5 -16 -22 vvcurveto
            -70 vlineto
            -45 -22 -21 -48 vhcurveto
            -80 202 hlineto
            return
          </CharString>
          <CharString index="163">
            235 700 rmoveto
            -71 -106 -70 -103 -72 -107 rrcurveto
            -9 -13 -1 -3 -5 vvcurveto
            -5 4 -3 5 vhcurveto
            133 hlineto
            92 146 13 24 30 65 rrcurveto
            22 hlineto
            30 -65 13 -24 92 -146 rrcurveto
            133 hlineto
            5 4 3 5 5 -1 3 -9 13 hvcurveto
            -68 102 -108 162 -26 36 rrcurveto
            14 -10 -3 2 -13 hhcurveto
            return
          </CharString>
          <CharString index="164">
            170 70 hlineto
            8 -4 4 -7 vhcurveto
            -236 hlineto
            -5 -72 -8 -111 -2 -34 rrcurveto
            -9 -1 3 -4 8 hhcurveto
            75 hlineto
            9 14 17 3 27 hhcurveto
            35 16 -7 -23 hvcurveto
            -5 vlineto
            -23 -16 -10 -51 -45 -32 5 13 -36 vhcurveto
            -12 -75 hlineto
            -8 1 -2 5 -3 vhcurveto
            -11 20 52 -8 54 hhcurveto
            103 45 33 93 hvcurveto
            return
          </CharString>
          <CharString index="165">
            57 -579 rmoveto
            -73 -61 12 18 -42 hvcurveto
            -20 -116 hlineto
            -7 1 -5 4 -3 vhcurveto
            -23 30 83 -17 88 hhcurveto
            165 99 99 166 hvcurveto
            444 -105 callsubr
            -228 -96 callsubr
            68 -333 hlineto
            -38 -8 -27 -18 -18 vhcurveto
            -19 -19 -29 -9 -40 hhcurveto
            endchar
          </CharString>
          <CharString index="166">
            rmoveto
            -51 -46 9 21 -49 hvcurveto
            -20 -124 hlineto
            -7 1 -4 4 -4 vhcurveto
            -15 15 70 -17 86 hhcurveto
            170 84 113 152 hvcurveto
            444 -105 callsubr
            -378 -96 callsubr
            218 -333 hlineto
            -42 -8 -28 -17 -17 vhcurveto
            -17 -17 -26 -7 -36 hhcurveto
            endchar
          </CharString>
          <CharString index="167">
            514 337 rmoveto
            153 -74 60 -173 -72 -90 -20 -12 -12 vhcurveto
            -2 -2 -1 -3 -5 vvcurveto
            -118 20 vlineto
            16 52 48 7 57 hhcurveto
            70 27 -16 -50 hvcurveto
            -32 -157 vlineto
            -96 -61 -59 -85 hvcurveto
            -37 vlineto
            -85 57 -59 90 72 59 35 62 25 vhcurveto
            17 hlineto
            return
          </CharString>
          <CharString index="168">
            -47 212 -41 183 -33 141 rrcurveto
            7 -1 -4 4 -7 hhcurveto
            -228 hlineto
            -23 -104 -115 -498 -18 -85 rrcurveto
            -10 -2 6 -3 4 hhcurveto
            257 565 rmoveto
            22 hlineto
            8 -77 15 -77 29 -131 rrcurveto
            -127 hlineto
            29 132 15 77 9 76 rrcurveto
            return
          </CharString>
          <CharString index="169">
            rmoveto
            -37 -38 -62 -65 -34 -36 rrcurveto
            -18 -19 -2 -2 -5 vvcurveto
            -5 3 -2 8 vhcurveto
            127 hlineto
            26 22 31 26 36 34 rrcurveto
            10 hlineto
            39 -36 26 -22 17 -14 rrcurveto
            -8 11 2 -2 15 hhcurveto
            133 hlineto
            -55 58 -71 74 -21 21 rrcurveto
            17 -17 -5 2 -9 hhcurveto
            return
          </CharString>
          <CharString index="170">
            1001 rmoveto
            -26 -46 -27 -45 -27 -46 rrcurveto
            -64 -12 -39 -44 -63 vvcurveto
            -29 vlineto
            -75 55 -48 87 87 55 48 75 vhcurveto
            29 vlineto
            44 -19 35 -33 21 vhcurveto
            58 63 25 28 46 51 rrcurveto
            6 5 -3 8 -8 hhcurveto
            -213 -216 rmoveto
            82 callsubr
            return
          </CharString>
          <CharString index="171">
            -184 46 hlineto
            35 4 22 12 12 vhcurveto
            11 12 18 4 32 hhcurveto
            51 35 -6 -9 41 hvcurveto
            20 114 -25 callsubr
            10 -10 -52 13 -79 hhcurveto
            -147 -84 -78 -134 hvcurveto
            -48 -115 -119 -107 callsubr
            104 return
          </CharString>
          <CharString index="172">
            257 86 -106 callsubr
            -53 268 -106 callsubr
            -93 hlineto
            -13 -10 -17 -13 -18 -13 -16 -12 -15 -12 -13 -10 rrcurveto
            -105 vlineto
            -5 2 -2 4 5 5 3 12 13 vhcurveto
            23 23 15 18 15 38 rrcurveto
            18 -191 hlineto
            return
          </CharString>
          <CharString index="173">
            248 -401 hlineto
            -60 -26 -29 -58 -10 -12 1 2 -10 vhcurveto
            109 -132 vlineto
            -7 -4 -4 -7 hvcurveto
            -190 vlineto
            -3 1 -3 2 -2 vhcurveto
            -15 15 73 -18 84 hhcurveto
            154 80 88 150 hvcurveto
            501 -89 callsubr
          </CharString>
          <CharString index="174">
            750 rmoveto
            -146 hlineto
            -6 -4 -2 -5 -2 hvcurveto
            -97 -254 -98 -256 -97 -254 -14 -36 -14 -37 -14 -36 rrcurveto
            145 hlineto
            6 6 3 8 3 hvcurveto
            111 289 110 291 111 289 rrcurveto
            endchar
          </CharString>
          <CharString index="175">
            98 vlineto
            138 -101 95 -146 vhcurveto
            -135 vmoveto
            32 24 -7 -16 16 hvcurveto
            17 -17 8 -26 -39 vvcurveto
            -84 vlineto
            -68 -35 -37 -62 -30 -24 9 16 -16 vhcurveto
            -18 18 -9 27 35 vvcurveto
            84 vlineto
            68 35 37 62 vhcurveto
            endchar
          </CharString>
          <CharString index="176">
            124 -20 vlineto
            -21 -53 -48 -12 -56 hhcurveto
            -48 -30 10 19 -19 hvcurveto
            -18 18 -8 25 33 vvcurveto
            72 vlineto
            79 43 28 80 56 48 -12 -21 53 vhcurveto
            20 124 -25 callsubr
            15 -15 -74 26 -96 hhcurveto
            endchar
          </CharString>
          <CharString index="177">
            -39 -63 -50 -13 -72 hhcurveto
            -43 -36 7 23 -23 hvcurveto
            -23 23 -10 38 57 vvcurveto
            184 vlineto
            88 46 37 72 29 24 -2 -9 22 vhcurveto
            -97 -107 callsubr
            129 180 hlineto
            8 -1 5 -5 5 vhcurveto
            return
          </CharString>
          <CharString index="178">
            300 720 rmoveto
            -140 -100 -102 -173 hvcurveto
            -190 vlineto
            -173 100 -102 140 140 100 102 173 vhcurveto
            190 vlineto
            173 -99 102 -141 vhcurveto
            -140 vmoveto
            28 23 -8 -16 14 hvcurveto
            return
          </CharString>
          <CharString index="179">
            vlineto
            -62 -9 -41 -40 -59 vvcurveto
            -13 vlineto
            -78 53 -41 103 vhcurveto
            209 hlineto
            119 56 66 94 hvcurveto
            35 vlineto
            94 -56 66 -119 vhcurveto
            -123 hlineto
            -13 -4 4 13 hvcurveto
            55 vlineto
            -1 11 11 0 11 hhcurveto
            return
          </CharString>
          <CharString index="180">
            -31 vlineto
            -9 -6 2 4 -4 hvcurveto
            -4 4 -2 7 8 vvcurveto
            -314 hmoveto
            37 vlineto
            9 3 8 6 6 vhcurveto
            6 6 9 4 12 hhcurveto
            128 -65 hlineto
            -26 -42 -42 -12 -44 hhcurveto
            -25 -11 11 22 hvcurveto
            return
          </CharString>
          <CharString index="181">
            24 305 vlineto
            6 4 4 6 hvcurveto
            86 vlineto
            127 -87 95 -141 vhcurveto
            -125 vmoveto
            29 20 -6 -13 13 hvcurveto
            15 -15 6 -23 -33 vvcurveto
            -13 -170 13 vlineto
            64 27 26 60 vhcurveto
            return
          </CharString>
          <CharString index="182">
            -110 vlineto
            -12 -5 -1 -9 -9 hvcurveto
            -29 -30 -86 -91 -62 -66 rrcurveto
            -40 vlineto
            -8 1 -4 9 -10 vhcurveto
            20 -21 131 -137 14 -15 rrcurveto
            -11 11 2 -1 13 hhcurveto
            112 hlineto
            return
          </CharString>
          <CharString index="183">
            110 vlineto
            12 5 1 9 9 hvcurveto
            29 30 86 91 62 66 rrcurveto
            40 vlineto
            8 -1 4 -9 10 vhcurveto
            -20 21 -131 137 -14 15 rrcurveto
            11 -11 -2 1 -13 hhcurveto
            -112 hlineto
            return
          </CharString>
          <CharString index="184">
            -45 -26 16 47 -16 hvcurveto
            -83 hlineto
            -13 -3 -3 -19 2 hvcurveto
            -91 10 77 -62 90 hhcurveto
            14 hlineto
            90 77 62 91 10 hvcurveto
            19 2 -3 3 -13 hhcurveto
            -83 hlineto
            -47 -16 -26 -16 -45 hhcurveto
            return
          </CharString>
          <CharString index="185">
            rmoveto
            -40 -16 -26 -14 -45 hhcurveto
            -45 -26 14 40 -16 hvcurveto
            -93 hlineto
            -13 -3 -3 -16 2 hvcurveto
            -77 10 67 -75 90 hhcurveto
            54 hlineto
            90 67 75 77 10 hvcurveto
            16 2 -3 3 -13 hhcurveto
            return
          </CharString>
          <CharString index="186">
            -218 vlineto
            -156 87 -101 180 90 90 30 30 30 vhcurveto
            2 2 1 3 3 vvcurveto
            212 35 119 -105 callsubr
            return
          </CharString>
          <CharString index="187">
            hlineto
            -42 -8 -30 -20 -19 vhcurveto
            -19 -19 -31 -9 -46 hhcurveto
            -55 -46 7 23 -54 hvcurveto
            -20 -125 hlineto
            -3 1 -3 2 -2 vhcurveto
            -15 15 78 -22 85 hhcurveto
            185 83 return
          </CharString>
          <CharString index="188">
            -147 hlineto
            -8 -6 -43 -29 -25 -17 -25 -17 -26 -18 -25 -17 rrcurveto
            -160 vlineto
            -7 3 -3 5 6 14 9 23 31 vhcurveto
            32 24 24 23 25 47 rrcurveto
            20 return
          </CharString>
          <CharString index="189">
            16 13 -5 -8 8 hvcurveto
            8 -8 4 -12 -14 vvcurveto
            -16 vlineto
            -28 -18 -18 -31 -16 -12 5 8 -8 vhcurveto
            -9 8 -4 11 14 vvcurveto
            16 vlineto
            30 18 17 31 vhcurveto
            return
          </CharString>
          <CharString index="190">
            rmoveto
            32 vlineto
            47 19 20 38 19 12 -4 -10 10 vhcurveto
            11 -11 5 -17 -25 vvcurveto
            -32 vlineto
            -47 -19 -20 -38 -19 -12 4 10 -10 vhcurveto
            -11 11 -5 17 25 vvcurveto
            return
          </CharString>
          <CharString index="191">
            rmoveto
            -33 -12 10 34 hvcurveto
            28 vlineto
            23 5 14 18 11 vhcurveto
            176 hlineto
            33 12 -10 -35 hvcurveto
            -24 vlineto
            -18 -3 -15 -8 -8 vhcurveto
            -7 -7 -11 -3 -16 hhcurveto
            endchar
          </CharString>
          <CharString index="192">
            -120 20 vlineto
            33 26 31 14 37 85 60 -100 106 hhcurveto
            53 36 16 27 24 hvcurveto
            8 9 0 5 13 vvcurveto
            120 -20 vlineto
            -33 -26 -31 -14 -37 hhcurveto
            return
          </CharString>
          <CharString index="193">
            rmoveto
            5 3 1 7 2 hvcurveto
            41 127 48 149 33 101 rrcurveto
            9 3 -3 6 -8 hhcurveto
            -196 hlineto
            -24 -133 -24 -134 -24 -133 rrcurveto
            endchar
          </CharString>
          <CharString index="194">
            rmoveto
            5 3 1 6 2 hvcurveto
            41 109 48 128 33 86 rrcurveto
            8 3 -3 5 -8 hhcurveto
            -196 hlineto
            -24 -114 -24 -115 -24 -114 rrcurveto
            endchar
          </CharString>
          <CharString index="195">
            rmoveto
            114 hlineto
            5 3 1 6 2 hvcurveto
            5 15 92 255 5 15 rrcurveto
            8 3 -3 5 -8 hhcurveto
            -136 hlineto
            -3 -11 -75 -280 -4 -14 rrcurveto
            return
          </CharString>
          <CharString index="196">
            84 53 97 -20 hlineto
            -14 -16 -11 -16 -13 -31 rrcurveto
            -48 -113 -33 -80 -8 vvcurveto
            -7 3 -3 7 vhcurveto
            107 hlineto
            4 11 38 110 15 44 rrcurveto
            return
          </CharString>
          <CharString index="197">
            42 rmoveto
            -95 -74 -63 -100 -82 53 -47 87 44 38 14 21 hvcurveto
            15 callsubr
            10 2 1 5 4 vvcurveto
            18 -11 -23 24 -24 hhcurveto
            endchar
          </CharString>
          <CharString index="198">
            rmoveto
            -172 hlineto
            -8 -3 -8 -6 5 hvcurveto
            51 -56 25 -29 72 -77 rrcurveto
            -3 3 5 -3 8 hhcurveto
            120 hlineto
            -35 61 -36 60 -35 61 rrcurveto
            return
          </CharString>
          <CharString index="199">
            rmoveto
            -171 hlineto
            -8 -5 -8 -7 6 hvcurveto
            51 -57 39 -43 59 -65 rrcurveto
            -4 3 6 -4 8 hhcurveto
            118 hlineto
            -35 62 -35 62 -36 64 rrcurveto
            return
          </CharString>
          <CharString index="200">
            -87 -55 -48 -75 hvcurveto
            -29 vlineto
            -75 55 -48 87 87 55 48 75 vhcurveto
            29 vlineto
            75 -55 48 -87 vhcurveto
            -83 vmoveto
            82 callsubr
            return
          </CharString>
          <CharString index="201">
            483 rmoveto
            6 vlineto
            71 -35 39 -71 -29 -23 -6 -12 -18 vhcurveto
            -20 hlineto
            2 23 2 23 2 23 rrcurveto
            57 callsubr
            return
          </CharString>
          <CharString index="202">
            124 vlineto
            48 23 26 41 35 34 -14 -25 32 vhcurveto
            -171 vlineto
            -38 -31 -36 -24 -34 hhcurveto
            -20 -16 5 11 -11 hvcurveto
            endchar
          </CharString>
          <CharString index="203">
            625 rmoveto
            134 189 -83 hlineto
            -9 -5 -4 -7 -2 hvcurveto
            -21 -73 -5 -20 -20 -70 rrcurveto
            -8 -2 5 -7 8 hhcurveto
            return
          </CharString>
          <CharString index="204">
            459 219 -106 callsubr
            -129 -95 -170 554 -106 callsubr
            -149 -61 callsubr
            return
          </CharString>
          <CharString index="205">
            -158 hlineto
            155 -278 rmoveto
            168 90 99 -105 callsubr
            -79 158 66 hlineto
            34 callsubr
          </CharString>
          <CharString index="206">
            7 -9 hhcurveto
            -150 hlineto
            -57 -154 -18 -55 -27 -133 rrcurveto
            -20 hlineto
            -31 132 -20 54 -57 145 rrcurveto
            7 return
          </CharString>
          <CharString index="207">
            11 -11 -35 13 -41 hhcurveto
            -87 -63 -30 -86 -56 hvcurveto
            -21 95 -95 callsubr
            -529 -104 callsubr
            return
          </CharString>
          <CharString index="208">
            vlineto
            67 -6 58 -34 202 vhcurveto
            20 hlineto
            58 -173 56 -155 58 -154 rrcurveto
            -7 2 5 -1 4 hhcurveto
            return
          </CharString>
          <CharString index="209">
            -147 -97 -65 -116 -76 49 -48 97 -13 hvcurveto
            104 -14 rlineto
            45 -6 11 -13 -21 vvcurveto
            -28 -19 -18 -75 return
          </CharString>
          <CharString index="210">
            -5 -15 -92 -255 -5 -15 rrcurveto
            -8 -3 3 -5 8 hhcurveto
            136 hlineto
            3 11 75 280 4 14 rrcurveto
            return
          </CharString>
          <CharString index="211">
            -41 -101 -40 -101 -41 -101 rrcurveto
            -8 -3 3 -5 8 hhcurveto
            176 hlineto
            24 108 24 107 24 108 rrcurveto
            return
          </CharString>
          <CharString index="212">
            hlineto
            11 53 11 53 10 53 rrcurveto
            9 2 -4 2 -7 hhcurveto
            -106 hlineto
            -11 -57 -12 -56 -11 -57 rrcurveto
            -109 return
          </CharString>
          <CharString index="213">
            rmoveto
            -100 -57 -62 -79 hvcurveto
            -68 vlineto
            -79 57 -62 100 100 57 62 79 vhcurveto
            68 vlineto
            79 -57 62 -100 vhcurveto
            return
          </CharString>
          <CharString index="214">
            -148 189 hlineto
            7 -5 4 -6 vhcurveto
            -139 -200 -148 hlineto
            -7 -4 -4 -7 hvcurveto
            endchar
          </CharString>
          <CharString index="215">
            -139 -349 hlineto
            -35 -33 -42 -15 -51 hhcurveto
            -21 -13 14 22 hvcurveto
            352 -105 callsubr
            return
          </CharString>
          <CharString index="216">
            -85 -60 100 -106 hhcurveto
            -53 -36 -16 -27 -24 hvcurveto
            -8 -9 0 -5 -13 vvcurveto
            85 callsubr
            endchar
          </CharString>
          <CharString index="217">
            rmoveto
            22 hlineto
            8 -77 15 -77 29 -131 rrcurveto
            -127 hlineto
            29 132 15 77 9 76 rrcurveto
            endchar
          </CharString>
          <CharString index="218">
            hlineto
            -11 -57 -12 -56 -11 -57 rrcurveto
            105 hlineto
            7 5 1 10 2 hvcurveto
            11 53 10 53 11 53 rrcurveto
            return
          </CharString>
          <CharString index="219">
            hhcurveto
            100 63 71 123 hvcurveto
            174 vlineto
            122 -63 72 -100 -60 -54 -34 -57 -30 vhcurveto
            -18 return
          </CharString>
          <CharString index="220">
            295 131 rmoveto
            -83 -54 11 26 -65 hvcurveto
            -20 -131 hlineto
            -3 0 -2 2 -2 vhcurveto
            return
          </CharString>
          <CharString index="221">
            209 540 rmoveto
            -139 -400 hlineto
            -94 60 -58 81 74 41 36 62 35 vhcurveto
            19 return
          </CharString>
          <CharString index="222">
            -20 6 12 -21 hvcurveto
            -20 -135 hlineto
            -3 0 -2 2 -2 vhcurveto
            -5 5 37 -16 61 hhcurveto
            return
          </CharString>
          <CharString index="223">
            -39 vlineto
            -4 -2 1 2 -2 hvcurveto
            -2 2 -1 3 3 vvcurveto
            259 vlineto
            96 -58 56 -77 return
          </CharString>
          <CharString index="224">
            hlineto
            9 4 5 5 2 hvcurveto
            23 61 19 51 22 58 rrcurveto
            8 3 -6 5 -8 hhcurveto
            endchar
          </CharString>
          <CharString index="225">
            rmoveto
            20 16 -5 -11 11 hvcurveto
            11 -11 6 -19 -28 vvcurveto
            -124 vlineto
            -48 -23 -26 -41 return
          </CharString>
          <CharString index="226">
            vlineto
            59 23 33 12 29 12 rrcurveto
            83 vlineto
            7 -4 4 -7 -6 -19 -8 -33 -85 vhcurveto
            return
          </CharString>
          <CharString index="227">
            51 -26 40 -48 22 vhcurveto
            58 63 25 29 47 51 rrcurveto
            6 5 -3 8 -8 hhcurveto
            return
          </CharString>
          <CharString index="228">
            -65 -26 -22 -9 -17 -7 rrcurveto
            -75 vlineto
            -7 4 -4 7 9 19 5 25 65 vhcurveto
            return
          </CharString>
          <CharString index="229">
            28 vhcurveto
            20 hlineto
            -50 15 44 -39 80 hhcurveto
            49 -53 callsubr
            -29 vlineto
            return
          </CharString>
          <CharString index="230">
            28 vlineto
            87 -47 48 -78 11 vhcurveto
            27 vlineto
            76 16 49 47 80 vvcurveto
            23 vlineto
            return
          </CharString>
          <CharString index="231">
            -43 192 -37 169 -32 135 rrcurveto
            28 23 15 32 38 vvcurveto
            26 vlineto
            return
          </CharString>
          <CharString index="232">
            517 -105 callsubr
            -149 -542 hlineto
            -103 48 -65 97 vhcurveto
            return
          </CharString>
          <CharString index="233">
            33 -46 hhcurveto
            -51 -34 -31 -57 -21 hvcurveto
            -19 hlineto
            35 -11 -13 41 -1 hhcurveto
            return
          </CharString>
        <CharString name=".arrowhead">
          56 callsubr
          endchar
        </CharString>
        <CharString name=".notdef">
          539 699 rmoveto
          7 -3 4 -8 vhcurveto
          -467 -709 hlineto
          -7 3 -4 8 vhcurveto
          467 hlineto
          -237 481 rmoveto
          -29 -63 -22 -66 -10 -50 rrcurveto
          -20 286 129 hlineto
          -16 -34 -16 -36 -16 -37 rrcurveto
          10 -233 rmoveto
          24 58 17 55 6 36 rrcurveto
          20 -265 -116 hlineto
          17 39 16 39 16 38 rrcurveto
          endchar
        </CharString>
        <CharString name="A">
          174 hmoveto
          -62 callsubr
        </CharString>
        <CharString name="AE">
          161 hmoveto
          48 callsubr
        </CharString>
        <CharString name="AEacute">
          390 -47 callsubr
          -401 -957 rmoveto
          48 callsubr
        </CharString>
        <CharString name="Aacute">
          -57 callsubr
          -339 -957 rmoveto
          -62 callsubr
        </CharString>
        <CharString name="Abreve">
          387 949 78 callsubr
          -306 -949 rmoveto
          -62 callsubr
        </CharString>
        <CharString name="Acircumflex">
          218 -91 callsubr
          -197 -947 rmoveto
          -62 callsubr
        </CharString>
        <CharString name="Adieresis">
          -36 callsubr
          -303 -935 rmoveto
          -62 callsubr
        </CharString>
        <CharString name="Adotbelow">
          28 callsubr
          61 callsubr
          -80 -666 -103 callsubr
          -93 callsubr
        </CharString>
        <CharString name="Agrave">
          -38 callsubr
          -85 -957 rmoveto
          -62 callsubr
        </CharString>
        <CharString name="Amacron">
          -32 callsubr
          -295 -922 rmoveto
          -62 callsubr
        </CharString>
        <CharString name="Aogonek">
          174 hmoveto
          12 56 11 49 10 45 rrcurveto
          186 hlineto
          9 -39 10 -44 10 -48 rrcurveto
          -46 -27 -37 -47 -66 -13 callsubr
          -10 callsubr
          -11 53 -13 51 -12 49 61 callsubr
          endchar
        </CharString>
        <CharString name="Aring">
          28 callsubr
          124 callsubr
          79 -62 52 -110 -111 -63 -51 -80 vhcurveto
          -26 vlineto
          -38 15 -32 28 -23 vhcurveto
          -37 -163 -92 -398 -16 -75 rrcurveto
          -10 -2 6 -3 4 hhcurveto
          267 809 -22 callsubr
          -10 -244 110 callsubr
        </CharString>
        <CharString name="Aringacute">
          28 callsubr
          124 callsubr
          120 callsubr
          -172 hlineto
          -103 callgsubr
          -38 15 -32 28 -23 vhcurveto
          -37 -163 -92 -398 -16 -75 rrcurveto
          -10 -2 6 -3 4 hhcurveto
          267 809 -22 callsubr
          -10 -244 110 callsubr
        </CharString>
        <CharString name="Atilde">
          -33 callsubr
          -236 -907 rmoveto
          -62 callsubr
        </CharString>
        <CharString name="B">
          330 hmoveto
          127 83 48 121 hvcurveto
          123 callsubr
          81 -54 83 -173 vhcurveto
          -283 -121 -104 callsubr
          34 -557 -104 callsubr
          229 568 27 callsubr
        </CharString>
        <CharString name="C">
          344 -20 -35 callsubr
          -6 callsubr
        </CharString>
        <CharString name="Cacute">
          366 -47 callsubr
          -194 -977 -35 callsubr
          -6 callsubr
        </CharString>
        <CharString name="Ccaron">
          408 -59 callsubr
          89 -795 -35 callsubr
          -6 callsubr
        </CharString>
        <CharString name="Ccedilla">
          344 -20 -35 callsubr
          -151 71 -96 146 -23 vhcurveto
          -5 -13 -6 -14 -6 -14 -74 callsubr
          -49 callsubr
          rlineto
          1 vlineto
          3 2 0 3 hhcurveto
          endchar
        </CharString>
        <CharString name="Ccircumflex">
          243 -91 callsubr
          -52 -967 -35 callsubr
          -6 callsubr
        </CharString>
        <CharString name="Cdotaccent">
          230 937 -103 callsubr
          -67 callsubr
          -65 -957 -35 callsubr
          -6 callsubr
        </CharString>
        <CharString name="D">
          540 238 rmoveto
          7 callsubr
          -557 -104 callsubr
          16 callsubr
          -310 -106 rmoveto
          436 66 vlineto
          34 callsubr
        </CharString>
        <CharString name="Dcaron">
          373 -59 callsubr
          320 -537 rmoveto
          7 callsubr
          -557 -104 callsubr
          16 callsubr
          -310 -106 rmoveto
          436 66 vlineto
          34 callsubr
        </CharString>
        <CharString name="Dcroat">
          10 410 rmoveto
          -99 -107 callsubr
          54 -289 -104 callsubr
          16 callsubr
          7 callsubr
          98 callsubr
        </CharString>
        <CharString name="E">
          86 hmoveto
          454 -65 callsubr
          20 callsubr
        </CharString>
        <CharString name="Eacute">
          -57 callsubr
          -427 -957 -69 callsubr
        </CharString>
        <CharString name="Ebreve">
          387 949 78 callsubr
          -394 -949 -69 callsubr
        </CharString>
        <CharString name="Ecaron">
          383 -59 callsubr
          -144 -775 -69 callsubr
        </CharString>
        <CharString name="Ecircumflex">
          218 -91 callsubr
          -285 -947 -69 callsubr
        </CharString>
        <CharString name="Edieresis">
          -36 callsubr
          -391 -935 -69 callsubr
        </CharString>
        <CharString name="Edotaccent">
          205 937 -103 callsubr
          -67 callsubr
          -298 -937 -69 callsubr
        </CharString>
        <CharString name="Edotbelow">
          86 hmoveto
          454 -65 callsubr
          -294 151 245 119 -106 callsubr
          -234 149 305 -65 callsubr
          -499 -96 callsubr
          34 -554 -104 callsubr
          144 -101 -103 callsubr
          -93 callsubr
        </CharString>
        <CharString name="Egrave">
          -38 callsubr
          -173 -957 -69 callsubr
        </CharString>
        <CharString name="Emacron">
          -32 callsubr
          -383 -922 -69 callsubr
        </CharString>
        <CharString name="Eng">
          210 hmoveto
          -29 callsubr
          26 hlineto
          -68 -5 -30 -32 -68 hhcurveto
          -41 -35 8 17 -39 hvcurveto
          -20 -136 hlineto
          -3 1 -3 2 -2 vhcurveto
          -14 14 64 -17 74 hhcurveto
          149 75 86 164 hvcurveto
          689 -105 callsubr
          -9 callsubr
        </CharString>
        <CharString name="Eogonek">
          86 hmoveto
          271 hlineto
          -33 -28 -23 -41 -52 -13 callsubr
          -10 callsubr
          124 -105 callsubr
          20 callsubr
        </CharString>
        <CharString name="Eth">
          10 410 rmoveto
          -99 -107 callsubr
          54 -289 -104 callsubr
          16 callsubr
          7 callsubr
          98 callsubr
        </CharString>
        <CharString name="Etilde">
          -33 callsubr
          -324 -907 -69 callsubr
        </CharString>
        <CharString name="Euro">
          20 316 rmoveto
          -89 -107 callsubr
          66 hlineto
          -165 12 88 -71 173 hhcurveto
          95 76 25 22 31 hvcurveto
          6 5 2 3 12 vvcurveto
          125 -20 vlineto
          -32 -54 -57 -15 -72 hhcurveto
          -48 -27 5 20 -20 hvcurveto
          -14 14 -7 19 -3 33 rrcurveto
          212 89 -106 callsubr
          -203 55 214 89 -106 callsubr
          -203 hlineto
          70 4 34 39 82 hhcurveto
          67 58 -20 -32 54 hvcurveto
          20 128 hlineto
          12 -2 4 -6 4 vhcurveto
          20 -29 -75 24 -103 hhcurveto
          -176 -82 -101 -148 -6 hvcurveto
          -76 -89 -104 callsubr
          65 -55 hlineto
          endchar
        </CharString>
        <CharString name="F">
          275 hmoveto
          255 215 124 -105 callsubr
          -204 175 265 -65 callsubr
          -469 -96 callsubr
          44 -554 -104 callsubr
          endchar
        </CharString>
        <CharString name="G">
          300 390 -97 callsubr
          -51 callsubr
          -15 callsubr
        </CharString>
        <CharString name="Gbreve">
          392 949 78 callsubr
          -185 -559 -97 callsubr
          -51 callsubr
          -15 callsubr
        </CharString>
        <CharString name="Gcaron">
          388 -59 callsubr
          65 -385 -97 callsubr
          -51 callsubr
          -15 callsubr
        </CharString>
        <CharString name="Gcircumflex">
          223 -91 callsubr
          -76 -557 -97 callsubr
          -51 callsubr
          -15 callsubr
        </CharString>
        <CharString name="Gcommaaccent">
          300 390 -97 callsubr
          -51 callsubr
          30 -30 -67 32 -96 hhcurveto
          -179 -102 -108 -157 hvcurveto
          79 callsubr
          -308 -450 -100 callsubr
          -55 callsubr
        </CharString>
        <CharString name="Gdotaccent">
          210 937 -103 callsubr
          -67 callsubr
          -89 -547 -97 callsubr
          -51 callsubr
          -15 callsubr
        </CharString>
        <CharString name="Germandbls">
          235 hmoveto
          558 141 -20 vlineto
          -5 -3 -4 -4 -4 -3 -31 -26 rcurveline
          -29 -24 -19 -30 -38 vvcurveto
          -32 vlineto
          -36 10 -34 60 -37 vhcurveto
          26 -16 rlineto
          42 -26 9 -9 -38 vvcurveto
          -14 -3 -12 -9 -8 vhcurveto
          -8 -7 -12 -4 -18 hhcurveto
          -31 115 callsubr
          100 77 55 112 hvcurveto
          18 vlineto
          77 -12 45 -74 46 vhcurveto
          -27 17 rlineto
          -28 17 -8 10 10 vvcurveto
          10 7 9 30 26 vhcurveto
          28 24 rlineto
          43 37 9 25 50 vvcurveto
          110 -105 callsubr
          -479 -60 callsubr
          14 -547 -94 callsubr
        </CharString>
        <CharString name="H">
          540 hmoveto
          689 -28 callsubr
          -284 -170 273 -27 callsubr
          -61 callsubr
          144 281 170 -270 -104 callsubr
          endchar
        </CharString>
        <CharString name="Hbar">
          540 hmoveto
          510 40 99 -105 callsubr
          -29 69 -27 callsubr
          -80 -170 69 -27 callsubr
          -80 -40 -99 -104 callsubr
          29 -499 -104 callsubr
          144 281 170 -270 -104 callsubr
          -11 510 rmoveto
          -94 -170 94 vlineto
          endchar
        </CharString>
        <CharString name="Hcircumflex">
          218 -91 callsubr
          169 -947 rmoveto
          689 -28 callsubr
          -284 -170 273 -27 callsubr
          -61 callsubr
          144 281 170 -270 -104 callsubr
          endchar
        </CharString>
        <CharString name="I">
          530 hmoveto
          -87 callsubr
          -70 callsubr
        </CharString>
        <CharString name="IJ">
          60 700 rmoveto
          -469 vlineto
          -44 callsubr
          469 -106 callsubr
          58 callsubr
        </CharString>
        <CharString name="IJacute">
          171 958 -78 callsubr
          148 hmoveto
          -20 callsubr
          -603 -258 rmoveto
          -469 vlineto
          -44 callsubr
          469 -106 callsubr
          58 callsubr
        </CharString>
        <CharString name="Iacute">
          -57 callsubr
          17 -957 rmoveto
          -87 callsubr
          -70 callsubr
        </CharString>
        <CharString name="Ibreve">
          387 949 78 callsubr
          50 -949 rmoveto
          -87 callsubr
          -70 callsubr
        </CharString>
        <CharString name="Icircumflex">
          218 -91 callsubr
          159 -947 rmoveto
          -87 callsubr
          -70 callsubr
        </CharString>
        <CharString name="Idieresis">
          -36 callsubr
          53 -935 rmoveto
          -87 callsubr
          -70 callsubr
        </CharString>
        <CharString name="Idotaccent">
          205 937 -103 callsubr
          -67 callsubr
          146 -937 rmoveto
          -87 callsubr
          -70 callsubr
        </CharString>
        <CharString name="Idotbelow">
          530 hmoveto
          -87 callsubr
          -449 -96 callsubr
          37 callsubr
          129 -101 -103 callsubr
          -93 callsubr
        </CharString>
        <CharString name="Igrave">
          -38 callsubr
          271 -957 rmoveto
          -87 callsubr
          -70 callsubr
        </CharString>
        <CharString name="Imacron">
          -32 callsubr
          61 -922 rmoveto
          -87 callsubr
          -70 callsubr
        </CharString>
        <CharString name="Iogonek">
          70 700 rmoveto
          -124 -107 callsubr
          37 callsubr
          266 hlineto
          -33 -28 -23 -41 -52 -13 callsubr
          -10 callsubr
          -87 callsubr
          endchar
        </CharString>
        <CharString name="Itilde">
          -33 callsubr
          120 -907 rmoveto
          -87 callsubr
          -70 callsubr
        </CharString>
        <CharString name="J">
          246 121 59 callsubr
        </CharString>
        <CharString name="Jcircumflex">
          233 -91 callsubr
          -140 -826 59 callsubr
        </CharString>
        <CharString name="K">
          51 callsubr
          endchar
        </CharString>
        <CharString name="Kcommaaccent">
          51 callsubr
          57 -760 -100 callsubr
          -55 callsubr
        </CharString>
        <CharString name="L">
          81 hmoveto
          97 callsubr
          endchar
        </CharString>
        <CharString name="Lacute">
          191 -47 callsubr
          -282 -957 rmoveto
          97 callsubr
          endchar
        </CharString>
        <CharString name="Lcaron">
          81 hmoveto
          97 callsubr
          435 649 4 callsubr
          endchar
        </CharString>
        <CharString name="Lcommaaccent">
          81 hmoveto
          97 callsubr
          165 -60 -100 callsubr
          -55 callsubr
        </CharString>
        <CharString name="Lslash">
          106 hmoveto
          434 -102 callsubr
          -274 168 hlineto
          153 79 rlineto
          7 4 2 4 10 vvcurveto
          130 vlineto
          -162 -87 rlineto
          239 -105 callsubr
          -149 -315 hlineto
          -57 -29 rlineto
          -8 -4 0 -4 -11 vvcurveto
          -127 vlineto
          65 34 rlineto
          -233 -107 callsubr
          endchar
        </CharString>
        <CharString name="M">
          200 hmoveto
          133 vlineto
          50 -5 64 -36 199 vhcurveto
          18 hlineto
          35 -105 34 -103 37 -105 rrcurveto
          -7 2 4 -1 6 hhcurveto
          11 hlineto
          40 107 38 107 40 107 rrcurveto
          17 hlineto
          -36 -201 -5 -64 -48 vvcurveto
          -122 -107 callsubr
          139 -58 callsubr
          -137 hlineto
          -56 -134 -18 -46 -18 -132 rrcurveto
          -19 hlineto
          -19 132 -19 46 -50 125 rrcurveto
          5 -2 -5 4 -7 hhcurveto
          -139 -61 callsubr
          endchar
        </CharString>
        <CharString name="N">
          210 hmoveto
          -29 callsubr
          167 -58 callsubr
          -9 callsubr
        </CharString>
        <CharString name="Nacute">
          341 956 -78 callsubr
          -303 -956 rmoveto
          -29 callsubr
          167 -58 callsubr
          -9 callsubr
        </CharString>
        <CharString name="Ncaron">
          383 774 22 callsubr
          -20 -774 rmoveto
          -29 callsubr
          167 -58 callsubr
          -9 callsubr
        </CharString>
        <CharString name="Ncommaaccent">
          210 hmoveto
          -29 callsubr
          167 -58 callsubr
          29 callsubr
          -61 callsubr
          170 -60 -100 callsubr
          -55 callsubr
        </CharString>
        <CharString name="Nhookleft">
          18 -55 rmoveto
          -14 -8 2 4 -11 hvcurveto
          -20 -129 hlineto
          -3 1 -3 2 -2 vhcurveto
          -9 9 34 -7 30 hhcurveto
          9 hlineto
          107 53 80 113 hvcurveto
          172 101 callsubr
          167 -58 callsubr
          29 callsubr
          -694 hlineto
          -46 -16 -15 -26 vhcurveto
          endchar
        </CharString>
        <CharString name="Ntilde">
          410 906 23 callsubr
          -200 -906 rmoveto
          -29 callsubr
          167 -58 callsubr
          -9 callsubr
        </CharString>
        <CharString name="O">
          -7 callsubr
          -85 callsubr
          -68 callsubr
        </CharString>
        <CharString name="OE">
          249 710 rmoveto
          -147 -82 -92 -138 hvcurveto
          -250 vlineto
          -146 82 -94 147 24 22 4 6 20 vhcurveto
          265 128 -106 callsubr
          -151 147 122 121 -106 callsubr
          -111 143 162 128 -106 callsubr
          -254 hlineto
          7 -20 -23 3 -23 hhcurveto
          -91 -488 rmoveto
          246 vlineto
          66 35 40 55 14 12 -1 -1 11 vhcurveto
          -444 vlineto
          -1 -11 -12 -1 -14 hhcurveto
          -57 -33 36 60 hvcurveto
          endchar
        </CharString>
        <CharString name="Oacute">
          -57 callsubr
          -213 -237 -80 callsubr
          -85 callsubr
          -68 callsubr
        </CharString>
        <CharString name="Obreve">
          387 949 78 callsubr
          -180 -229 -80 callsubr
          -85 callsubr
          -68 callsubr
        </CharString>
        <CharString name="Ocircumflex">
          218 -91 callsubr
          -71 -227 -80 callsubr
          -85 callsubr
          -68 callsubr
        </CharString>
        <CharString name="Odieresis">
          -36 callsubr
          -177 -215 -80 callsubr
          -85 callsubr
          -68 callsubr
        </CharString>
        <CharString name="Odotbelow">
          -7 callsubr
          -85 callsubr
          151 94 87 156 vhcurveto
          254 vlineto
          156 -94 87 -151 vhcurveto
          -95 -497 rmoveto
          254 vlineto
          70 28 38 67 31 22 -7 -16 16 vhcurveto
          18 -18 8 -29 -38 vvcurveto
          -254 vlineto
          -70 -28 -38 -67 -31 -23 8 15 -15 vhcurveto
          -19 19 -7 28 38 vvcurveto
          5 -324 -103 callsubr
          -93 callsubr
        </CharString>
        <CharString name="Ograve">
          -38 callsubr
          41 -237 -80 callsubr
          -85 callsubr
          -68 callsubr
        </CharString>
        <CharString name="Ohungarumlaut">
          234 967 -78 callsubr
          48 hmoveto
          -20 callsubr
          -326 -247 -80 callsubr
          -85 callsubr
          -68 callsubr
        </CharString>
        <CharString name="Omacron">
          -32 callsubr
          -169 -202 -80 callsubr
          -85 callsubr
          -68 callsubr
        </CharString>
        <CharString name="Oogonek">
          -7 callsubr
          -123 59 -81 99 -28 vhcurveto
          -23 -26 -16 -35 -43 -13 callsubr
          21 15 18 28 12 hvcurveto
          122 18 74 84 138 vvcurveto
          24 callsubr
        </CharString>
        <CharString name="Oslash">
          -7 callsubr
          46 callsubr
        </CharString>
        <CharString name="Oslashacute">
          340 -47 callsubr
          -212 -237 -80 callsubr
          46 callsubr
        </CharString>
        <CharString name="Otilde">
          -33 callsubr
          -110 -187 -80 callsubr
          -85 callsubr
          -68 callsubr
        </CharString>
        <CharString name="P">
          235 hmoveto
          205 76 vlineto
          171 63 82 136 hvcurveto
          60 vlineto
          132 -63 85 -171 vhcurveto
          -281 -123 -104 callsubr
          34 -555 -104 callsubr
          226 566 rmoveto
          26 18 -4 -12 12 hvcurveto
          12 -12 5 -19 -29 vvcurveto
          -74 vlineto
          -58 -23 -18 -51 vhcurveto
          -76 226 hlineto
          endchar
        </CharString>
        <CharString name="Q">
          -7 callsubr
          -85 callsubr
          20 19 1 3 17 vhcurveto
          10 -18 9 -19 11 -20 rrcurveto
          -57 29 30 -15 72 hhcurveto
          42 -99 callsubr
          124 -33 vlineto
          -14 -6 2 17 -10 hvcurveto
          -8 14 -7 13 -7 13 rrcurveto
          39 41 21 59 74 vvcurveto
          24 callsubr
        </CharString>
        <CharString name="R">
          230 hmoveto
          31 callsubr
        </CharString>
        <CharString name="Racute">
          -57 callsubr
          -283 -957 rmoveto
          31 callsubr
        </CharString>
        <CharString name="Rcaron">
          383 -59 callsubr
          -775 vmoveto
          31 callsubr
        </CharString>
        <CharString name="Rcommaaccent">
          230 hmoveto
          233 60 vlineto
          28 -56 28 -56 29 -56 rrcurveto
          -55 28 32 -10 72 hhcurveto
          42 -99 callsubr
          55 callsubr
          11 -625 -100 callsubr
          -55 callsubr
        </CharString>
        <CharString name="S">
          322 720 5 callsubr
        </CharString>
        <CharString name="Sacute">
          360 -47 callsubr
          -210 -237 5 callsubr
        </CharString>
        <CharString name="Scaron">
          402 -59 callsubr
          73 -55 5 callsubr
        </CharString>
        <CharString name="Scedilla">
          422 -128 rmoveto
          -49 callsubr
          1 3 rlineto
          143 11 83 69 109 vvcurveto
          25 callsubr
          26 callsubr
          29 -29 70 -19 83 -3 -5 -12 -5 -12 -5 -13 -74 callsubr
          vhcurveto
          endchar
        </CharString>
        <CharString name="Schwa">
          281 720 rmoveto
          -93 -79 -22 -9 -19 hvcurveto
          -4 -2 -1 -3 -3 vvcurveto
          -129 20 vlineto
          14 45 47 9 71 hhcurveto
          54 33 -7 -18 19 hvcurveto
          15 -15 6 -23 -34 vvcurveto
          -60 -329 vlineto
          -6 -4 -4 -6 hvcurveto
          -192 vlineto
          -166 97 -76 143 159 90 108 139 vhcurveto
          255 vlineto
          163 -87 81 -177 vhcurveto
          14 -611 rmoveto
          -32 -21 8 14 -14 hvcurveto
          -16 16 -6 26 34 vvcurveto
          81 189 -74 vlineto
          -74 -23 -31 -77 vhcurveto
          endchar
        </CharString>
        <CharString name="Scircumflex">
          237 -91 callsubr
          -68 -227 5 callsubr
        </CharString>
        <CharString name="Scommaaccent">
          322 720 rmoveto
          26 callsubr
          -33 33 83 -19 97 hhcurveto
          168 99 71 119 hvcurveto
          25 callsubr
          -78 -780 -100 callsubr
          -55 callsubr
        </CharString>
        <CharString name="T">
          380 hmoveto
          565 -18 callsubr
          -554 -104 callsubr
          endchar
        </CharString>
        <CharString name="Tbar">
          380 hmoveto
          258 150 123 -54 callsubr
          173 170 -65 callsubr
          -489 -96 callsubr
          159 -173 -150 -123 -63 callsubr
          -247 -94 callsubr
        </CharString>
        <CharString name="Tcaron">
          383 -59 callsubr
          150 -775 rmoveto
          565 -18 callsubr
          -554 -104 callsubr
          endchar
        </CharString>
        <CharString name="Tcedilla">
          380 hmoveto
          565 -18 callsubr
          -554 -104 callsubr
          23 hlineto
          -8 -17 -8 -19 -8 -20 -74 callsubr
          -49 callsubr
          2 6 2 8 2 8 rlinecurve
          endchar
        </CharString>
        <CharString name="Tcommaaccent">
          380 hmoveto
          565 -18 callsubr
          -554 -104 callsubr
          10 -60 -100 callsubr
          -64 callsubr
        </CharString>
        <CharString name="Thorn">
          70 700 rmoveto
          -689 vlineto
          -44 callsubr
          117 104 hlineto
          131 80 79 132 hvcurveto
          52 vlineto
          132 -65 85 -176 vhcurveto
          -74 92 -106 callsubr
          91 -245 rmoveto
          28 18 -5 -11 12 hvcurveto
          12 -12 5 -19 -29 vvcurveto
          -51 vlineto
          -45 -21 -24 -39 vhcurveto
          -95 196 hlineto
          endchar
        </CharString>
        <CharString name="U">
          205 -10 -88 callsubr
          -81 callsubr
        </CharString>
        <CharString name="Uacute">
          -57 callsubr
          -308 -967 -88 callsubr
          -81 callsubr
        </CharString>
        <CharString name="Ubreve">
          387 949 78 callsubr
          -275 -959 -88 callsubr
          -81 callsubr
        </CharString>
        <CharString name="Ucircumflex">
          218 -91 callsubr
          -166 -957 -88 callsubr
          -81 callsubr
        </CharString>
        <CharString name="Udieresis">
          -36 callsubr
          -272 -945 -88 callsubr
          -81 callsubr
        </CharString>
        <CharString name="Udotbelow">
          205 -10 -88 callsubr
          -149 -511 hlineto
          39 callsubr
          125 callsubr
          5 -91 -103 callsubr
          -93 callsubr
        </CharString>
        <CharString name="Ugrave">
          -38 callsubr
          -54 -967 -88 callsubr
          -81 callsubr
        </CharString>
        <CharString name="Uhungarumlaut">
          234 967 -78 callsubr
          48 hmoveto
          -20 callsubr
          -421 -977 -88 callsubr
          -81 callsubr
        </CharString>
        <CharString name="Umacron">
          -32 callsubr
          -264 -932 -88 callsubr
          -81 callsubr
        </CharString>
        <CharString name="Uogonek">
          205 -10 rmoveto
          73 45 31 65 37 hvcurveto
          20 -69 hlineto
          -44 -28 -35 -46 -64 -13 callsubr
          -10 callsubr
          689 -105 callsubr
          -81 callsubr
        </CharString>
        <CharString name="Uring">
          205 -10 -88 callsubr
          -67 hlineto
          7 16 4 18 19 vvcurveto
          26 vlineto
          79 -62 52 -110 -111 -63 -51 -80 vhcurveto
          -26 vlineto
          -19 4 -18 7 -16 vhcurveto
          -78 -542 hlineto
          -103 48 -65 97 vhcurveto
          95 830 -22 callsubr
          -80 -648 rmoveto
          461 vlineto
          -7 23 27 -4 30 hhcurveto
          30 27 4 7 23 hvcurveto
          -444 vlineto
          39 callsubr
          endchar
        </CharString>
        <CharString name="Utilde">
          -33 callsubr
          -205 -917 -88 callsubr
          -81 callsubr
        </CharString>
        <CharString name="V">
          167 700 rmoveto
          -143 hlineto
          11 -53 13 -51 12 -49 47 -212 41 -183 33 -141 rrcurveto
          -7 1 4 -4 7 hhcurveto
          228 hlineto
          23 104 115 498 18 85 rrcurveto
          10 2 -6 3 -4 hhcurveto
          -141 hlineto
          -73 -328 -29 -118 -14 -119 rrcurveto
          -22 hlineto
          -13 119 -29 117 -70 318 rrcurveto
          8 -2 -3 3 -6 hhcurveto
          endchar
        </CharString>
        <CharString name="W">
          16 700 -24 callsubr
        </CharString>
        <CharString name="Wacute">
          340 -47 callsubr
          -496 -257 -24 callsubr
        </CharString>
        <CharString name="Wcircumflex">
          217 -91 callsubr
          -354 -247 -24 callsubr
        </CharString>
        <CharString name="Wdieresis">
          111 935 rmoveto
          9 callsubr
          75 hmoveto
          9 callsubr
          -460 -235 -24 callsubr
        </CharString>
        <CharString name="Wgrave">
          258 957 91 callsubr
          -242 -257 -24 callsubr
        </CharString>
        <CharString name="X">
          34 hmoveto
          153 hlineto
          71 135 5 11 13 108 rrcurveto
          20 hlineto
          37 -79 38 -82 39 -84 rrcurveto
          -6 3 6 -3 6 hhcurveto
          158 hlineto
          -64 120 -62 120 -64 120 70 123 95 171 16 27 rrcurveto
          10 6 -5 9 -10 hhcurveto
          -151 hlineto
          -68 -132 -3 -12 -11 -114 rrcurveto
          -21 hlineto
          -41 85 -39 82 -36 80 rrcurveto
          7 -4 -4 4 -10 hhcurveto
          1 -54 -48 -1 -54 hhcurveto
          188 -357 -69 -123 -98 -174 -16 -27 rlinecurve
          -10 -6 6 -9 8 hhcurveto
          endchar
        </CharString>
        <CharString name="Y">
          380 hmoveto
          -50 callsubr
        </CharString>
        <CharString name="Yacute">
          -57 callsubr
          -133 -957 rmoveto
          -50 callsubr
        </CharString>
        <CharString name="Ycircumflex">
          218 -91 callsubr
          9 -947 rmoveto
          -50 callsubr
        </CharString>
        <CharString name="Ydieresis">
          -36 callsubr
          -97 -935 rmoveto
          -50 callsubr
        </CharString>
        <CharString name="Ygrave">
          -38 callsubr
          121 -957 rmoveto
          -50 callsubr
        </CharString>
        <CharString name="Ymacron">
          -32 callsubr
          -89 -922 rmoveto
          -50 callsubr
        </CharString>
        <CharString name="Ytilde">
          -33 callsubr
          -30 -907 rmoveto
          -50 callsubr
        </CharString>
        <CharString name="Z">
          190 510 -2 callsubr
        </CharString>
        <CharString name="Zacute">
          -57 callsubr
          -323 -447 -2 callsubr
        </CharString>
        <CharString name="Zcaron">
          383 -59 callsubr
          -40 -265 -2 callsubr
        </CharString>
        <CharString name="Zdotaccent">
          205 937 -103 callsubr
          -67 callsubr
          -194 -427 -2 callsubr
        </CharString>
        <CharString name="a">
          514 337 -84 callsubr
        </CharString>
        <CharString name="a.italic">
          14 callsubr
          18 callsubr
          63 52 36 63 122 callsubr
          -13 -8 7 15 hvcurveto
          377 -28 callsubr
          -65 -20 hlineto
          46 -27 -47 31 -63 hhcurveto
          9 -401 rmoveto
          -11 11 -6 19 28 vvcurveto
          95 callsubr
        </CharString>
        <CharString name="aacute">
          -56 callsubr
          5 -470 -84 callsubr
        </CharString>
        <CharString name="abreve">
          300 -39 callsubr
          214 -413 -84 callsubr
        </CharString>
        <CharString name="acircumflex">
          246 -86 callsubr
          174 -475 -84 callsubr
        </CharString>
        <CharString name="acute">
          338 805 rmoveto
          -19 callsubr
          endchar
        </CharString>
        <CharString name="acutecomb">
          0 38 805 rmoveto
          -19 callsubr
          endchar
        </CharString>
        <CharString name="acutecomb.case">
          0 41 958 -78 callsubr
          endchar
        </CharString>
        <CharString name="adieresis">
          112 -71 callsubr
          37 -431 -84 callsubr
        </CharString>
        <CharString name="adotbelow">
          60 callsubr
          -53 16 45 -34 61 hhcurveto
          67 -53 callsubr
          73 callsubr
          20 -256 -103 callsubr
          -93 callsubr
        </CharString>
        <CharString name="ae">
          166 552 45 callsubr
        </CharString>
        <CharString name="aeacute">
          -56 callsubr
          -343 -255 45 callsubr
        </CharString>
        <CharString name="agrave">
          262 -46 callsubr
          252 -470 -84 callsubr
        </CharString>
        <CharString name="amacron">
          120 -30 callsubr
          45 -438 -84 callsubr
        </CharString>
        <CharString name="ampersand">
          180 -9 rmoveto
          89 46 39 57 28 hvcurveto
          20 hlineto
          6 -8 5 -6 4 -6 rrcurveto
          -53 39 38 -14 54 hhcurveto
          50 hlineto
          8 3 4 7 hvcurveto
          129 -42 vlineto
          -24 -8 3 26 -21 hvcurveto
          -3 4 -4 5 -4 5 rrcurveto
          22 vlineto
          66 29 41 54 66 vvcurveto
          80 vlineto
          7 -3 4 -8 vhcurveto
          -130 -135 hlineto
          -24 -4 -13 -16 -19 vhcurveto
          -39 52 -52 69 -65 86 rrcurveto
          -24 32 -1 11 21 vvcurveto
          17 3 9 7 7 vhcurveto
          11 11 24 9 35 hhcurveto
          55 36 -7 -13 50 hvcurveto
          20 115 -26 callsubr
          9 -9 -54 17 -93 hhcurveto
          -152 -75 -68 -91 hvcurveto
          -20 vlineto
          -57 14 -32 53 -71 vhcurveto
          -20 vlineto
          -67 -12 -60 -49 -95 vvcurveto
          -51 vlineto
          -96 62 -56 94 vhcurveto
          -6 193 rmoveto
          51 vlineto
          29 9 21 23 11 vhcurveto
          38 -51 39 -51 32 -43 rrcurveto
          -24 -27 -21 -8 -38 hhcurveto
          -36 -19 20 45 hvcurveto
          endchar
        </CharString>
        <CharString name="aogonek">
          60 callsubr
          8 -26 15 -21 20 -15 rrcurveto
          -44 -28 -28 -47 -62 44 callsubr
          15 callsubr
          3 1 3 1 1 1 rrcurveto
          2 -1 4 4 7 vvcurveto
          119 73 callsubr
          endchar
        </CharString>
        <CharString name="approxequal">
          429 445 rmoveto
          -85 -60 100 -106 hhcurveto
          -53 -36 -16 -27 -24 hvcurveto
          -8 -9 0 -5 -13 vvcurveto
          85 callsubr
          -250 vmoveto
          109 callsubr
        </CharString>
        <CharString name="aring">
          42 callsubr
          214 -448 -84 callsubr
        </CharString>
        <CharString name="aringacute">
          341 63 callsubr
          214 -448 -84 callsubr
        </CharString>
        <CharString name="arrowdown">
          327 209 rmoveto
          15 72 33 167 1 vvcurveto
          240 vlineto
          7 -5 4 -6 vhcurveto
          -139 -251 hlineto
          -1 40 -200 6 -27 vhcurveto
          -10 2 5 -2 8 hhcurveto
          79 -209 rmoveto
          71 106 70 103 72 107 rrcurveto
          9 13 1 3 5 vvcurveto
          5 -4 3 -5 vhcurveto
          -133 hlineto
          -92 -146 -13 -24 -30 -65 rrcurveto
          -22 hlineto
          -30 65 -13 24 -92 146 rrcurveto
          -133 hlineto
          -5 -4 -3 -5 -5 1 -3 9 -13 hvcurveto
          68 -102 108 -162 26 -36 rrcurveto
          -14 10 3 -2 13 hhcurveto
          endchar
        </CharString>
        <CharString name="arrowleft">
          20 414 rmoveto
          -115 vlineto
          -13 2 -3 14 -10 vhcurveto
          36 -26 162 -108 102 -68 rrcurveto
          -9 13 3 -1 5 hhcurveto
          5 3 4 5 hvcurveto
          133 vlineto
          -146 92 -24 13 -65 30 rrcurveto
          22 vlineto
          65 30 24 13 146 92 rrcurveto
          133 vlineto
          5 -3 4 -5 -5 -3 -1 -9 -13 vhcurveto
          -107 -72 -103 -70 -106 -71 rrcurveto
          230 -38 rmoveto
          -41 vlineto
          -8 2 -5 10 -2 vhcurveto
          -6 27 200 -40 1 hhcurveto
          90 139 hlineto
          6 -4 5 -7 vhcurveto
          -79 hlineto
          -1 -167 -33 -15 -72 hvcurveto
          endchar
        </CharString>
        <CharString name="arrowright">
          580 284 rmoveto
          115 vlineto
          13 -2 3 -14 10 vhcurveto
          -36 26 -162 108 -102 68 rrcurveto
          9 -13 -3 1 -5 hhcurveto
          -5 -3 -4 -5 hvcurveto
          -133 vlineto
          146 -92 24 -13 65 -30 rrcurveto
          -22 vlineto
          -65 -30 -24 -13 -146 -92 rrcurveto
          -133 vlineto
          -5 3 -4 5 5 3 1 9 13 vhcurveto
          107 72 103 70 106 71 rrcurveto
          -230 38 rmoveto
          41 vlineto
          8 -2 5 -10 2 vhcurveto
          6 -27 -200 40 -1 hhcurveto
          -90 -139 hlineto
          -6 4 -5 7 vhcurveto
          79 hlineto
          1 167 33 15 72 hvcurveto
          endchar
        </CharString>
        <CharString name="arrowup">
          56 callsubr
          -77 -209 rmoveto
          -15 -72 -33 -167 -1 vvcurveto
          -240 vlineto
          -7 5 -4 6 vhcurveto
          139 251 hlineto
          1 -40 200 -6 27 vhcurveto
          10 -2 -5 2 -8 hhcurveto
          endchar
        </CharString>
        <CharString name="asciicircum">
          195 750 rmoveto
          -61 -141 -78 -177 -20 -45 rrcurveto
          -6 -15 -1 -4 -4 vvcurveto
          -6 4 -3 6 vhcurveto
          138 hlineto
          38 89 26 61 42 99 rrcurveto
          35 hlineto
          37 -89 22 -53 39 -94 rrcurveto
          -11 5 3 -1 10 hhcurveto
          139 hlineto
          -60 142 -40 95 -59 142 rrcurveto
          10 -4 -7 5 -10 hhcurveto
          endchar
        </CharString>
        <CharString name="asciitilde">
          429 321 rmoveto
          109 callsubr
        </CharString>
        <CharString name="asterisk">
          360 568 rmoveto
          -130 hlineto
          7 -39 9 -47 6 -31 5 -27 6 -23 9 -22 -18 -11 rcurveline
          -42 46 -34 31 -59 49 -5 4 -5 -1 -5 -7 -21 -37 -22 -36 -21 -37 72 -29 52 -18 65 -14 rrcurveto
          -20 vlineto
          -61 -12 -49 -17 -69 -25 -6 -2 -2 -5 4 -8 21 -37 22 -36 21 -37 59 47 40 36 46 49 rrcurveto
          18 -11 -19 -62 -11 -51 -12 -68 rlinecurve
          -6 -1 3 -4 6 hhcurveto
          130 hlineto
          -7 39 -7 39 -7 39 -5 26 -6 21 -11 27 18 11 rcurveline
          44 -47 36 -33 55 -45 6 -5 6 1 4 7 21 37 21 37 21 37 -77 28 -45 16 -64 14 rrcurveto
          20 vlineto
          50 10 54 17 72 28 7 3 2 5 -4 7 -21 37 -22 36 -21 37 -71 -58 -34 -28 -40 -45 rrcurveto
          -18 11 21 51 9 49 12 79 rlinecurve
          6 1 -3 4 -6 hhcurveto
          endchar
        </CharString>
        <CharString name="at">
          249 35 rmoveto
          22 20 11 39 7 hvcurveto
          17 hlineto
          -33 19 34 -17 44 hhcurveto
          24 hlineto
          74 45 37 68 hvcurveto
          358 vlineto
          157 -101 64 -154 -153 -102 -64 -157 vhcurveto
          -461 vlineto
          -147 102 -64 153 104 61 18 11 11 vhcurveto
          5 5 1 2 7 vvcurveto
          115 -20 vlineto
          -16 -46 -58 -7 -58 hhcurveto
          -65 -50 10 28 -28 hvcurveto
          -18 18 -9 25 34 vvcurveto
          393 vlineto
          78 60 37 110 72 45 -13 -26 26 vhcurveto
          19 -19 8 -26 -31 vvcurveto
          -326 vlineto
          -25 -7 -8 -23 vhcurveto
          -11 hlineto
          -23 -6 8 25 hvcurveto
          346 -105 callsubr
          -64 hlineto
          -4 -13 -5 -16 -4 -14 rrcurveto
          -14 hlineto
          28 -7 -20 20 -22 hhcurveto
          -25 -24 -17 -46 hvcurveto
          -342 vlineto
          -47 24 -18 25 vhcurveto
          endchar
        </CharString>
        <CharString name="atilde">
          395 767 -76 callsubr
          119 -430 -84 callsubr
        </CharString>
        <CharString name="b">
          180 hmoveto
          1 18 51 33 12 hvcurveto
          19 hlineto
          -61 35 56 -33 61 112 callsubr
          278 -95 callsubr
          -739 -104 callsubr
          250 407 118 callsubr
          -34 -43 16 31 -34 vhcurveto
          163 vlineto
          38 33 44 24 34 hhcurveto
          endchar
        </CharString>
        <CharString name="backslash">
          61 750 rmoveto
          111 -289 110 -291 111 -289 rrcurveto
          -8 3 6 -3 6 hhcurveto
          145 hlineto
          -14 36 -14 37 -14 36 -97 254 -98 256 -97 254 rrcurveto
          5 -2 -4 2 -6 hhcurveto
          endchar
        </CharString>
        <CharString name="bar">
          220 760 rmoveto
          -909 vlineto
          -44 callsubr
          909 -101 callsubr
        </CharString>
        <CharString name="bitcoin">
          30 700 rmoveto
          -121 -107 callsubr
          34 -557 -104 callsubr
          49 -99 -104 callsubr
          94 110 75 -99 -104 callsubr
          94 120 hlineto
          75 20 45 50 89 vvcurveto
          123 callsubr
          61 -31 62 -89 27 vhcurveto
          113 -105 callsubr
          -94 -110 -75 99 -106 callsubr
          -94 -110 hlineto
          180 -132 27 callsubr
        </CharString>
        <CharString name="braceleft">
          420 157 rmoveto
          66 -31 48 -79 19 vhcurveto
          20 vlineto
          78 24 32 40 68 vvcurveto
          75 -42 30 -8 33 vhcurveto
          -1 3 0 4 3 vvcurveto
          23 8 5 24 vhcurveto
          119 -102 callsubr
          -177 hlineto
          -84 -29 -64 -39 hvcurveto
          -41 vlineto
          -96 51 -16 -60 vvcurveto
          -49 -53 -24 -105 vhcurveto
          -32 -60 callsubr
          21 hlineto
          105 53 -28 -46 hvcurveto
          -60 -51 -16 -96 vvcurveto
          -41 vlineto
          -39 29 -64 84 vhcurveto
          177 -99 callsubr
          131 -119 vlineto
          -24 -8 5 23 6 1 5 2 6 hvcurveto
          12 30 36 31 70 vvcurveto
          endchar
        </CharString>
        <CharString name="braceright">
          180 442 rmoveto
          -66 31 -48 79 -19 vhcurveto
          -20 vlineto
          -78 -24 -32 -40 -68 vvcurveto
          -75 42 -30 8 -33 vhcurveto
          1 -3 0 -4 -3 vvcurveto
          -23 -8 -5 -24 vhcurveto
          -119 -60 callsubr
          177 hlineto
          84 29 64 39 hvcurveto
          41 vlineto
          96 -51 16 60 vvcurveto
          49 53 24 105 vhcurveto
          32 -102 callsubr
          -21 hlineto
          -105 -53 28 46 hvcurveto
          60 51 16 96 vvcurveto
          41 vlineto
          39 -29 64 -84 vhcurveto
          -177 hlineto
          -7 -4 -4 -7 hvcurveto
          -131 119 vlineto
          24 8 -5 -23 -6 -1 -5 -2 -6 hvcurveto
          -12 -30 -36 -31 -70 vvcurveto
          endchar
        </CharString>
        <CharString name="bracketleft">
          520 -130 rmoveto
          131 -28 callsubr
          596 155 -102 callsubr
          -304 -869 -94 callsubr
        </CharString>
        <CharString name="bracketright">
          80 750 -98 callsubr
          144 -596 -155 -60 callsubr
          304 869 -101 callsubr
        </CharString>
        <CharString name="breve">
          300 748 rmoveto
          77 callsubr
          endchar
        </CharString>
        <CharString name="brevecomb">
          0 748 vmoveto
          77 callsubr
          endchar
        </CharString>
        <CharString name="brevecomb.case">
          0 87 950 78 callsubr
          endchar
        </CharString>
        <CharString name="brokenbar">
          220 760 rmoveto
          -380 vlineto
          -44 callsubr
          380 40 callsubr
          -149 -529 rmoveto
          -380 vlineto
          -44 callsubr
          380 -101 callsubr
        </CharString>
        <CharString name="bullet">
          450 150 rmoveto
          289 -105 callsubr
          -289 -289 -94 callsubr
        </CharString>
        <CharString name="c">
          332 552 -8 callsubr
          -17 callsubr
        </CharString>
        <CharString name="c.italic">
          332 552 -8 callsubr
          -139 99 -98 164 105 68 25 16 16 vhcurveto
          2 2 1 3 3 vvcurveto
          124 -20 vlineto
          -21 -48 -48 -12 -61 hhcurveto
          -48 -30 10 19 -19 hvcurveto
          -18 18 -8 26 33 vvcurveto
          70 vlineto
          84 43 30 80 15 14 -1 -2 13 vhcurveto
          -75 124 vlineto
          7 4 4 7 hvcurveto
          153 vlineto
          2 -1 3 -2 2 vhcurveto
          15 -15 -69 26 -101 hhcurveto
          endchar
        </CharString>
        <CharString name="cacute">
          373 -37 callsubr
          -212 -255 -8 callsubr
          -17 callsubr
        </CharString>
        <CharString name="caron">
          353 -77 callsubr
          endchar
        </CharString>
        <CharString name="caroncomb">
          0 53 -77 callsubr
          endchar
        </CharString>
        <CharString name="caroncomb.case">
          0 83 776 22 callsubr
          endchar
        </CharString>
        <CharString name="ccaron">
          388 -77 callsubr
          38 -87 -8 callsubr
          -17 callsubr
        </CharString>
        <CharString name="ccedilla">
          332 552 -8 callsubr
          -126 81 -92 138 -16 vhcurveto
          -6 -15 -6 -14 -7 -16 -74 callsubr
          -49 callsubr
          rlineto
          1 3 0 3 1 3 87 3 63 23 14 14 rrcurveto
          2 2 1 3 3 vvcurveto
          69 callsubr
        </CharString>
        <CharString name="ccircumflex">
          281 -86 callsubr
          -43 -260 -8 callsubr
          -17 callsubr
        </CharString>
        <CharString name="cdotaccent">
          240 -11 callsubr
          -87 -250 -8 callsubr
          -17 callsubr
        </CharString>
        <CharString name="cedi">
          250 -135 rmoveto
          -11 -2 3 -4 9 hhcurveto
          119 hlineto
          1 29 0 52 1 50 78 6 62 23 23 23 rrcurveto
          43 callsubr
          -51 -31 -42 -15 -52 -4 1 60 2 67 1 42 0 10 -3 3 -8 2 -9 2 -35 8 -23 4 -7 -51 -9 -70 -10 -72 -17 4 -14 8 -11 11 rrcurveto
          -23 23 -10 38 57 vvcurveto
          184 vlineto
          86 44 37 69 2 vhcurveto
          -3 -58 -3 -66 -1 -33 0 -9 3 -4 8 -2 8 -2 18 -4 41 -8 7 39 9 63 10 69 40 -13 35 -20 28 -23 rrcurveto
          20 129 hlineto
          9 -3 9 -7 7 vhcurveto
          -16 15 -32 18 -44 12 7 51 7 46 5 35 rrcurveto
          9 1 -4 4 -7 hhcurveto
          -118 hlineto
          -1 -31 -2 -52 -1 -47 rrcurveto
          -176 -102 -108 -157 hvcurveto
          -199 vlineto
          -151 71 -95 146 -24 vhcurveto
          -6 -45 -6 -42 -5 -34 rrcurveto
          endchar
        </CharString>
        <CharString name="cedilla">
          336 56 rmoveto
          -52 -8 -5 -10 -5 hvcurveto
          -13 -29 -13 -31 -15 -36 -74 callsubr
          -49 callsubr
          5 19 8 30 7 28 rlinecurve
          endchar
        </CharString>
        <CharString name="cedillacomb">
          0 36 56 rmoveto
          -52 -8 -5 -10 -5 hvcurveto
          -13 -29 -13 -31 -15 -36 -74 callsubr
          -49 callsubr
          5 19 8 30 7 28 rlinecurve
          endchar
        </CharString>
        <CharString name="cedillacomb.case">
          0 119 -127 rmoveto
          -49 callsubr
          rlineto
          5 19 8 30 7 28 -52 0 -8 -5 -5 -10 -13 -29 -13 -31 -15 -36 -74 callsubr
          vhcurveto
          endchar
        </CharString>
        <CharString name="cent">
          313 316 rmoveto
          -5 -35 -6 -35 -5 -34 -22 4 -16 7 -12 11 rrcurveto
          -19 17 -8 26 36 vvcurveto
          56 vlineto
          70 41 26 57 6 vhcurveto
          -86 vlineto
          -8 3 -5 8 -2 vhcurveto
          68 -17 rlineto
          6 37 6 38 6 37 28 -6 28 -9 29 -11 rrcurveto
          20 135 -25 callsubr
          -10 10 -26 13 -41 8 6 37 6 37 6 37 rrcurveto
          9 1 -5 4 -6 hhcurveto
          -130 -116 hlineto
          -155 -11 -98 -101 -138 vvcurveto
          -66 vlineto
          -135 74 -86 134 -21 vhcurveto
          -7 -43 -7 -44 -7 -43 rrcurveto
          -9 -1 5 -4 6 hhcurveto
          130 140 hlineto
          69 6 44 17 12 12 rrcurveto
          2 2 1 3 3 vvcurveto
          135 -20 vlineto
          -37 -15 -34 -9 -37 -4 rrcurveto
          74 vlineto
          8 -3 5 -8 2 vhcurveto
          endchar
        </CharString>
        <CharString name="circumflex">
          246 810 0 callsubr
          endchar
        </CharString>
        <CharString name="circumflexcomb">
          0 -54 810 0 callsubr
          endchar
        </CharString>
        <CharString name="circumflexcomb.case">
          0 -82 948 62 callsubr
          endchar
        </CharString>
        <CharString name="colon">
          400 350 -48 callsubr
          -189 -189 -104 callsubr
          189 -360 -48 callsubr
          -189 -189 -104 callsubr
          endchar
        </CharString>
        <CharString name="colonmonetary">
          344 -20 rmoveto
          7 7 0 7 hhcurveto
          -79 -107 callsubr
          94 107 hlineto
          35 10 26 13 13 13 rrcurveto
          43 callsubr
          70 callsubr
          -14 14 -23 15 -30 11 rrcurveto
          103 -105 callsubr
          -94 -91 hlineto
          1 -11 -11 0 -12 hhcurveto
          -14 -14 -1 -1 -13 hvcurveto
          81 -105 callsubr
          -94 -121 hlineto
          -87 -42 -48 -85 -107 vvcurveto
          -199 vlineto
          -120 44 -84 91 -42 vhcurveto
          -109 -107 callsubr
          94 93 hlineto
          -2 17 18 -1 19 hhcurveto
          endchar
        </CharString>
        <CharString name="comma">
          300 -200 86 callsubr
        </CharString>
        <CharString name="commaaboverightcomb">
          0 71 710 4 callsubr
          endchar
        </CharString>
        <CharString name="commaaboverightcomb.case">
          0 -66 700 rmoveto
          -225 93 vlineto
          9 5 4 7 2 hvcurveto
          17 73 15 56 19 70 rrcurveto
          8 2 -5 7 -8 hhcurveto
          endchar
        </CharString>
        <CharString name="commaaccentcomb">
          0 -59 -70 -100 callsubr
          -64 callsubr
        </CharString>
        <CharString name="commaaccentcomb.case">
          0 -59 -70 -100 callsubr
          -55 callsubr
        </CharString>
        <CharString name="commaturnedabovecomb">
          0 -71 96 callsubr
          endchar
        </CharString>
        <CharString name="commaturnedabovecomb.case">
          0 97 960 rmoveto
          -113 hlineto
          -9 -4 -5 -4 -2 hvcurveto
          -22 -53 -14 -34 -25 -60 rrcurveto
          -7 -3 5 -7 8 hhcurveto
          144 hlineto
          12 57 11 56 12 57 rrcurveto
          endchar
        </CharString>
        <CharString name="copyright">
          300 715 rmoveto
          -166 -121 -98 -189 hvcurveto
          -157 vlineto
          -188 114 -98 173 166 121 98 189 vhcurveto
          157 vlineto
          188 -114 98 -173 vhcurveto
          -62 vmoveto
          65 53 -19 -33 38 hvcurveto
          42 -36 23 -54 -66 vvcurveto
          -191 vlineto
          -125 -84 -82 -137 -65 -54 19 33 -38 vhcurveto
          -41 37 -23 54 65 vvcurveto
          191 vlineto
          125 84 82 137 vhcurveto
          8 -87 rmoveto
          -89 -52 -51 -88 hvcurveto
          -154 vlineto
          -85 44 -54 96 47 43 15 25 20 vhcurveto
          3 4 1 1 6 vvcurveto
          80 -12 vlineto
          -31 -28 -25 -15 -42 hhcurveto
          -20 -14 4 10 -9 hvcurveto
          -9 9 -4 14 21 vvcurveto
          151 vlineto
          36 16 21 34 12 9 -1 -5 9 vhcurveto
          -49 vlineto
          -7 3 -4 8 vhcurveto
          72 92 hlineto
          5 -1 2 -4 4 vhcurveto
          27 -24 -36 17 -48 hhcurveto
          endchar
        </CharString>
        <CharString name="currency">
          119 304 rmoveto
          -11 vlineto
          -27 6 -26 11 -22 vhcurveto
          -66 -66 77 -77 13 callsubr
          64 64 rlineto
          -9 23 26 -5 28 hhcurveto
          28 25 5 8 23 hvcurveto
          63 -63 13 callsubr
          77 77 -65 65 rlineto
          12 22 6 26 28 vvcurveto
          10 vlineto
          29 -6 27 -11 23 vhcurveto
          64 64 -77 77 12 callsubr
          -61 -61 rlineto
          9 -23 -27 5 -28 hhcurveto
          -29 -27 -5 -10 -23 hvcurveto
          -62 62 12 callsubr
          -77 -77 66 -66 rlineto
          -11 -22 -6 -26 -28 vvcurveto
          116 -6 rmoveto
          9 vlineto
          42 18 20 47 25 16 -5 -10 10 vhcurveto
          10 -10 4 -14 -23 vvcurveto
          -9 vlineto
          -45 -18 -21 -47 -23 -15 5 8 -11 vhcurveto
          -11 10 -5 15 28 vvcurveto
          endchar
        </CharString>
        <CharString name="d">
          14 callsubr
          18 callsubr
          60 52 32 55 30 vhcurveto
          20 -66 -63 callsubr
          739 -95 callsubr
          -282 -20 hlineto
          51 -28 -47 33 -67 hhcurveto
          4 -401 -101 callgsubr
          36 41 -16 -31 34 vhcurveto
          -176 vlineto
          -35 -35 -39 -14 -37 hhcurveto
          -20 -16 5 11 -11 hvcurveto
          endchar
        </CharString>
        <CharString name="d.italic">
          14 callsubr
          18 callsubr
          63 52 37 62 122 callsubr
          -6 -6 2 3 -3 hvcurveto
          -4 4 -2 5 8 vvcurveto
          587 -28 callsubr
          -277 -20 hlineto
          45 -33 -49 34 -55 hhcurveto
          9 -401 rmoveto
          -11 11 -6 19 28 vvcurveto
          95 callsubr
        </CharString>
        <CharString name="dagger">
          66 350 rmoveto
          159 -100 hlineto
          -255 89 -95 47 -47 vhcurveto
          -2 2 2 -1 4 hhcurveto
          6 500 159 139 -106 callsubr
          107 callsubr
        </CharString>
        <CharString name="daggerdbl">
          66 358 rmoveto
          159 -166 -159 -60 callsubr
          148 -189 hlineto
          -7 5 -4 6 vhcurveto
          139 200 148 -99 callsubr
          131 -159 166 159 131 -105 callsubr
          107 callsubr
        </CharString>
        <CharString name="degree">
          300 710 rmoveto
          -107 -68 -56 -88 hvcurveto
          -62 vlineto
          -89 68 -56 107 107 68 56 89 vhcurveto
          62 vlineto
          88 -68 56 -107 vhcurveto
          -254 vmoveto
          -27 -21 7 12 -12 hvcurveto
          -10 10 -5 12 16 vvcurveto
          43 vlineto
          37 28 20 47 28 21 -7 -13 12 vhcurveto
          9 -9 5 -12 -16 vvcurveto
          -43 vlineto
          -36 -28 -21 -47 vhcurveto
          endchar
        </CharString>
        <CharString name="dieresis">
          112 -71 callsubr
          endchar
        </CharString>
        <CharString name="dieresiscomb">
          0 -188 -71 callsubr
          endchar
        </CharString>
        <CharString name="dieresiscomb.case">
          0 -188 936 rmoveto
          9 callsubr
          75 hmoveto
          9 callsubr
          endchar
        </CharString>
        <CharString name="divide">
          215 580 -5 callsubr
          159 129 -106 callsubr
          -314 -210 -5 callsubr
          469 129 -106 callsubr
          -314 -210 -5 callsubr
          159 129 -101 callsubr
        </CharString>
        <CharString name="divisionslash">
          553 67 callsubr
        </CharString>
        <CharString name="dollar">
          253 231 rmoveto
          -13 -104 -64 6 -48 19 -48 31 rlinecurve
          -20 -141 hlineto
          -2 1 -4 2 -2 vhcurveto
          27 -27 60 -18 72 -7 -14 -117 rcurveline
          -11 -1 5 -4 6 hhcurveto
          114 133 hlineto
          135 16 79 76 102 vvcurveto
          46 vlineto
          79 -35 62 -125 38 vhcurveto
          -95 29 rlineto
          -70 21 -18 13 36 vvcurveto
          18 vlineto
          25 26 24 59 6 vhcurveto
          -69 vlineto
          -8 3 -5 8 -2 vhcurveto
          8 -2 35 -9 25 -6 4 33 4 33 3 33 48 -6 38 -13 36 -23 rrcurveto
          20 141 hlineto
          2 -1 4 -2 2 vhcurveto
          -20 20 -46 12 -57 6 5 40 4 40 5 40 rrcurveto
          9 1 -5 4 -6 hhcurveto
          -110 -131 hlineto
          -140 -12 -86 -78 -106 vvcurveto
          -43 vlineto
          -58 34 -77 134 -41 vhcurveto
          94 -29 rlineto
          78 -24 7 -17 -30 vvcurveto
          -23 vlineto
          -23 -22 -23 -55 -7 vhcurveto
          71 vlineto
          10 -3 3 -8 2 vhcurveto
          -9 2 -36 9 -23 6 rrcurveto
          endchar
        </CharString>
        <CharString name="dong">
          530 150 rmoveto
          473 60 69 -105 callsubr
          -49 36 -27 callsubr
          -47 -177 -69 -104 callsubr
          166 -105 -21 hlineto
          42 -33 -44 22 -64 hhcurveto
          -95 -63 -55 -106 hvcurveto
          -123 vlineto
          -115 63 -43 89 60 52 18 49 37 vhcurveto
          19 -46 -104 callsubr
          -159 131 rmoveto
          -11 11 -6 19 28 vvcurveto
          44 vlineto
          48 23 26 41 33 36 -16 -30 32 vhcurveto
          -97 vlineto
          -34 -33 -35 -15 -33 hhcurveto
          -20 -16 5 11 -11 hvcurveto
          -167 -181 rmoveto
          -89 -107 callsubr
          519 89 -101 callsubr
        </CharString>
        <CharString name="dotaccent">
          205 800 -103 callsubr
          -67 callsubr
          endchar
        </CharString>
        <CharString name="dotaccentcomb">
          0 -95 800 -103 callsubr
          -67 callsubr
          endchar
        </CharString>
        <CharString name="dotaccentcomb.case">
          0 -95 938 -103 callsubr
          -67 callsubr
          endchar
        </CharString>
        <CharString name="dotbelowcomb">
          0 -90 -100 -103 callsubr
          -93 callsubr
        </CharString>
        <CharString name="dotbelowcomb.case">
          0 -90 -100 -103 callsubr
          -93 callsubr
        </CharString>
        <CharString name="dotlessi">
          -31 callsubr
          -34 callsubr
          399 -106 callsubr
          -73 callsubr
          -280 hlineto
          endchar
        </CharString>
        <CharString name="dotlessi.italic">
          50 540 -97 callsubr
          169 -244 hlineto
          -112 49 -54 32 callsubr
          372 -89 callsubr
        </CharString>
        <CharString name="dotlessi.mono">
          240 11 -90 callsubr
          -92 callsubr
          -66 callsubr
        </CharString>
        <CharString name="dotlessj">
          438 540 21 callsubr
        </CharString>
        <CharString name="dotlessj.italic">
          90 540 -97 callsubr
          66 callsubr
        </CharString>
        <CharString name="e">
          302 552 -82 callsubr
        </CharString>
        <CharString name="e.italic">
          312 552 rmoveto
          -155 -92 -95 -127 hvcurveto
          -118 vlineto
          -137 86 -87 189 90 71 18 14 14 vhcurveto
          3 3 1 2 3 vvcurveto
          115 -20 vlineto
          -16 -46 -48 -9 -64 hhcurveto
          -52 38 callsubr
          4 138 vlineto
          129 59 46 99 hvcurveto
          18 vlineto
          101 -84 74 -145 vhcurveto
          -125 vmoveto
          31 21 -7 -13 13 hvcurveto
          12 -12 5 -15 -19 vvcurveto
          -37 -27 -20 -40 vhcurveto
          -112 33 hlineto
          64 30 26 67 vhcurveto
          endchar
        </CharString>
        <CharString name="eacute">
          -56 callsubr
          -207 -255 -82 callsubr
        </CharString>
        <CharString name="ebreve">
          300 -39 callsubr
          2 -198 -82 callsubr
        </CharString>
        <CharString name="ecaron">
          353 -77 callsubr
          43 -87 -82 callsubr
        </CharString>
        <CharString name="ecircumflex">
          246 -86 callsubr
          -38 -260 -82 callsubr
        </CharString>
        <CharString name="edieresis">
          112 -71 callsubr
          -175 -216 -82 callsubr
        </CharString>
        <CharString name="edotaccent">
          -45 callsubr
          -82 -250 -82 callsubr
        </CharString>
        <CharString name="edotbelow">
          302 552 rmoveto
          -148 -89 -95 -127 hvcurveto
          -118 vlineto
          -137 86 -87 180 78 88 19 14 14 vhcurveto
          3 3 1 2 3 vvcurveto
          114 -20 vlineto
          -14 -45 -47 -11 -71 hhcurveto
          -43 38 callsubr
          74 callsubr
          -95 -528 -103 callsubr
          -93 callsubr
        </CharString>
        <CharString name="egrave">
          262 -46 callsubr
          40 -255 -82 callsubr
        </CharString>
        <CharString name="eight">
          300 720 rmoveto
          -145 -85 -84 -106 hvcurveto
          -21 vlineto
          -93 26 -42 70 -31 vhcurveto
          -21 vlineto
          -84 -22 -32 -55 -73 vvcurveto
          -12 vlineto
          -109 98 -71 151 156 95 84 106 vhcurveto
          21 vlineto
          97 -31 50 -78 33 vhcurveto
          21 vlineto
          58 18 30 42 68 vvcurveto
          10 vlineto
          117 -89 73 -140 vhcurveto
          -36 -282 rmoveto
          -41 15 -13 12 46 vvcurveto
          43 28 26 64 36 24 -9 -11 11 vhcurveto
          12 -12 4 -15 -20 vvcurveto
          -15 vlineto
          -33 -26 -27 -48 -19 vhcurveto
          -125 -227 rmoveto
          45 27 33 77 25 vhcurveto
          56 -21 rlineto
          45 -16 15 -22 -43 vvcurveto
          -51 -34 -22 -77 -74 -35 20 52 vhcurveto
          endchar
        </CharString>
        <CharString name="eightinferior">
          303 343 -40 callsubr
          -15 -157 -41 callsubr
        </CharString>
        <CharString name="eightsuperior">
          303 742 -40 callsubr
          -15 -157 -41 callsubr
        </CharString>
        <CharString name="ellipsis">
          160 -10 -48 callsubr
          -119 -189 -104 callsubr
          324 hmoveto
          189 -105 callsubr
          -119 -189 -104 callsubr
          324 hmoveto
          189 -105 callsubr
          -119 -189 -104 callsubr
          endchar
        </CharString>
        <CharString name="emacron">
          120 -30 callsubr
          -167 -223 -82 callsubr
        </CharString>
        <CharString name="emdash">
          -11 41 callsubr
          611 132 -101 callsubr
        </CharString>
        <CharString name="endash">
          50 41 callsubr
          489 132 -101 callsubr
        </CharString>
        <CharString name="equal">
          60 500 -98 callsubr
          469 -102 callsubr
          -469 -260 -98 callsubr
          469 -102 callsubr
          endchar
        </CharString>
        <CharString name="equivalence">
          60 614 -98 callsubr
          469 -102 callsubr
          -469 -242 -98 callsubr
          469 -102 callsubr
          -469 -242 -98 callsubr
          469 -102 callsubr
          endchar
        </CharString>
        <CharString name="estimated">
          300 -12 rmoveto
          90 78 52 80 54 hvcurveto
          -38 hlineto
          -68 -46 -66 -44 -70 hhcurveto
          -54 -50 22 38 -34 hvcurveto
          -4 6 -4 6 8 vvcurveto
          224 vlineto
          2 2 2 2 vhcurveto
          414 8 hlineto
          186 -123 150 -151 -151 -123 -150 -186 -186 123 -150 151 vhcurveto
          -140 346 rmoveto
          -2 -2 2 4 hvcurveto
          220 vlineto
          7 4 9 4 6 vhcurveto
          36 34 50 22 54 hhcurveto
          50 50 -20 -34 34 hvcurveto
          6 -6 4 -8 -8 vvcurveto
          -224 vlineto
          -4 -2 -2 -4 vhcurveto
          endchar
        </CharString>
        <CharString name="etilde">
          395 767 -76 callsubr
          -93 -215 -82 callsubr
        </CharString>
        <CharString name="exclam">
          354 290 rmoveto
          12 71 12 70 12 71 rrcurveto
          187 vlineto
          7 -5 4 -6 vhcurveto
          -169 -198 hlineto
          33 -203 1 -2 4 -4 rrcurveto
          -2 2 2 -1 4 hhcurveto
          144 -300 -48 callsubr
          -189 -189 -104 callsubr
          endchar
        </CharString>
        <CharString name="exclamdown">
          200 550 rmoveto
          -189 -107 callsubr
          189 189 -106 callsubr
          -143 -300 rmoveto
          -12 -71 -12 -70 -12 -71 rrcurveto
          -187 vlineto
          -7 5 -4 6 vhcurveto
          169 198 hlineto
          -33 203 -1 2 -4 4 rrcurveto
          2 -2 -2 1 -4 hhcurveto
          endchar
        </CharString>
        <CharString name="f">
          -31 callsubr
          449 119 -106 callsubr
          -184 250 195 119 -106 callsubr
          64 callsubr
          -250 hlineto
          endchar
        </CharString>
        <CharString name="f.italic">
          70 450 -97 callsubr
          103 -520 144 hlineto
          6 5 5 6 hvcurveto
          509 191 119 -105 callsubr
          -180 106 hlineto
          32 7 24 15 15 vhcurveto
          12 12 16 6 22 hhcurveto
          9 10 -1 -2 9 hvcurveto
          -82 124 vlineto
          7 4 4 7 hvcurveto
          159 vlineto
          3 -1 3 -2 2 vhcurveto
          12 -12 -52 20 -87 hhcurveto
          -144 -92 -72 -140 hvcurveto
          -108 vlineto
          endchar
        </CharString>
        <CharString name="f.mono">
          325 11 rmoveto
          369 195 119 -105 callsubr
          64 callsubr
          -380 139 hlineto
          6 5 5 6 hvcurveto
          endchar
        </CharString>
        <CharString name="five">
          119 700 rmoveto
          -13 -131 -22 -232 -4 -31 rrcurveto
          -9 -1 4 -4 9 hhcurveto
          133 hlineto
          15 24 32 9 34 hhcurveto
          63 22 -32 -44 hvcurveto
          -38 vlineto
          -43 -35 -30 -77 -78 -60 10 20 -57 vhcurveto
          -20 -136 hlineto
          -7 -1 -3 8 -4 vhcurveto
          -11 22 73 -19 112 hhcurveto
          175 88 82 135 hvcurveto
          50 vlineto
          125 -64 66 -112 -50 -39 -9 -24 -29 vhcurveto
          -20 hlineto
          4 42 6 54 6 49 1 6 0 6 1 6 rrcurveto
          266 121 -101 callsubr
        </CharString>
        <CharString name="fiveeighths">
          318 94 callsubr
          39 -78 -75 callsubr
          75 -62 -40 callsubr
          -189 -47 -21 callsubr
          174 -110 -41 callsubr
        </CharString>
        <CharString name="fiveinferior">
          438 84 rmoveto
          6 vlineto
          71 -35 39 -71 -29 -23 -6 -12 -18 vhcurveto
          -20 hlineto
          2 23 2 23 2 23 rrcurveto
          57 callsubr
          endchar
        </CharString>
        <CharString name="fivesuperior">
          438 94 callsubr
          endchar
        </CharString>
        <CharString name="florin">
          116 -105 rmoveto
          -28 -26 5 12 -22 hvcurveto
          -20 -132 hlineto
          -6 1 -2 5 -3 vhcurveto
          -11 19 34 -8 40 hhcurveto
          133 74 46 198 14 hvcurveto
          8 115 10 156 8 115 rrcurveto
          154 129 -106 callsubr
          -132 hlineto
          4 47 6 31 18 15 rrcurveto
          15 17 17 2 20 hhcurveto
          35 24 -5 -9 32 hvcurveto
          20 125 -25 callsubr
          9 -9 -34 12 -63 hhcurveto
          -148 -73 -64 -148 -10 hvcurveto
          -1 -12 -1 -13 -13 vvcurveto
          -110 -129 -104 callsubr
          89 hlineto
          -9 -130 -11 -147 -9 -129 rrcurveto
          -66 -5 -22 -13 -46 hhcurveto
          endchar
        </CharString>
        <CharString name="four">
          382 410 rmoveto
          -2 -11 -13 -60 -10 -47 rrcurveto
          -5 hlineto
          -69 -46 -4 -21 -46 hvcurveto
          20 vlineto
          92 142 84 129 79 122 rrcurveto
          20 -151 vlineto
          -10 -5 -2 -8 -5 hvcurveto
          -5 -9 -230 -388 -1 vvcurveto
          -124 -107 callsubr
          299 -146 -63 callsubr
          157 60 -65 callsubr
          -49 107 -101 callsubr
        </CharString>
        <CharString name="fourinferior">
          416 -42 -3 callsubr
          endchar
        </CharString>
        <CharString name="foursuperior">
          416 357 -3 callsubr
          endchar
        </CharString>
        <CharString name="fraction">
          357 405 88 callsubr
          -114 -109 rmoveto
          -114 hlineto
          -5 -3 -1 -6 -2 hvcurveto
          103 callsubr
          endchar
        </CharString>
        <CharString name="g">
          293 551 rmoveto
          -152 -81 -66 -111 hvcurveto
          -21 vlineto
          -84 46 -58 88 -23 vhcurveto
          -17 vlineto
          -58 -18 -26 -34 -47 vvcurveto
          -25 11 -23 17 -17 vhcurveto
          -17 72 callsubr
          152 81 66 111 hvcurveto
          21 vlineto
          51 -17 41 -33 30 vhcurveto
          13 vlineto
          48 7 rlineto
          58 8 3 0 21 vvcurveto
          83 -105 callsubr
          -152 -50 hlineto
          -11 -1 -5 -5 -8 vhcurveto
          -17 -28 rlineto
          9 -30 -36 5 -40 hhcurveto
          -114 vmoveto
          34 24 -7 -13 14 hvcurveto
          11 -11 5 -14 -18 vvcurveto
          -21 vlineto
          -43 -30 -20 -58 -34 -25 7 14 -14 vhcurveto
          -10 10 -5 14 18 vvcurveto
          21 vlineto
          43 30 20 58 vhcurveto
          -65 -577 84 callsubr
        </CharString>
        <CharString name="g.italic">
          14 callsubr
          -134 vlineto
          -122 63 -72 100 62 52 36 61 28 vhcurveto
          20 -78 80 callsubr
          101 158 hvcurveto
          480 -54 callsubr
          -80 -21 hlineto
          55 -27 -46 37 -68 hhcurveto
          9 -361 rmoveto
          -11 11 -6 19 28 vvcurveto
          84 vlineto
          48 23 26 41 34 39 -18 -33 33 vhcurveto
          -126 vlineto
          -38 -35 -36 -17 -35 hhcurveto
          -20 -16 5 11 -11 hvcurveto
          endchar
        </CharString>
        <CharString name="g.mono">
          110 75 -43 callsubr
        </CharString>
        <CharString name="gbreve">
          301 -39 callsubr
          -191 -675 -43 callsubr
        </CharString>
        <CharString name="gcaron">
          354 -77 callsubr
          -150 -564 -43 callsubr
        </CharString>
        <CharString name="gcircumflex">
          247 -86 callsubr
          -231 -737 -43 callsubr
        </CharString>
        <CharString name="gcommaaccent">
          230 96 callsubr
          -120 -550 -43 callsubr
        </CharString>
        <CharString name="gdotaccent">
          206 -11 callsubr
          -275 -727 -43 callsubr
        </CharString>
        <CharString name="germandbls">
          312 770 rmoveto
          -147 -96 -75 -116 hvcurveto
          -568 -107 callsubr
          139 540 hlineto
          34 6 21 13 12 vhcurveto
          14 15 27 6 47 hhcurveto
          57 23 -9 -22 -19 -6 -7 -27 -24 hvcurveto
          -38 -33 rlineto
          -36 -32 -19 -31 -40 vvcurveto
          -17 vlineto
          -38 17 -32 38 -33 vhcurveto
          39 -33 rlineto
          47 -40 8 -11 -24 vvcurveto
          -14 -4 -11 -7 -8 vhcurveto
          -8 -8 -12 -5 -17 hhcurveto
          -34 115 callsubr
          107 67 65 102 hvcurveto
          18 vlineto
          74 -16 31 -67 57 vhcurveto
          -27 23 rlineto
          -27 23 -9 9 8 vvcurveto
          8 6 8 31 26 vhcurveto
          28 24 rlineto
          37 32 15 35 53 vvcurveto
          26 vlineto
          105 -75 52 -150 vhcurveto
          endchar
        </CharString>
        <CharString name="grave">
          324 750 rmoveto
          -183 hlineto
          -8 -3 -9 -7 4 hvcurveto
          31 -61 63 -124 46 -80 rrcurveto
          -5 3 7 -2 11 hhcurveto
          136 hlineto
          -31 84 -45 118 -31 86 rrcurveto
          endchar
        </CharString>
        <CharString name="gravecomb">
          0 -38 805 92 callsubr
          endchar
        </CharString>
        <CharString name="gravecomb.case">
          0 -41 958 91 callsubr
          endchar
        </CharString>
        <CharString name="greater">
          521 195 rmoveto
          198 vlineto
          10 -5 7 -10 4 vhcurveto
          -142 59 -141 61 -142 60 rrcurveto
          -139 vlineto
          -10 1 -3 11 -5 vhcurveto
          99 -41 98 -43 99 -41 rrcurveto
          -20 vlineto
          -309 -134 rlineto
          -138 vlineto
          -6 3 -4 6 4 4 1 6 15 vhcurveto
          45 20 223 97 141 61 rrcurveto
          endchar
        </CharString>
        <CharString name="greaterequal">
          540 298 rmoveto
          175 vlineto
          10 -2 4 -10 2 vhcurveto
          -154 27 -158 26 -156 27 rrcurveto
          -105 vlineto
          -10 2 -7 12 -1 vhcurveto
          348 -46 rlineto
          -20 vlineto
          -120 -21 -122 -20 -120 -21 rrcurveto
          -115 vlineto
          -6 3 -4 6 4 4 1 3 16 vhcurveto
          53 13 232 52 162 36 rrcurveto
          -480 -133 rmoveto
          -110 -107 callsubr
          469 110 hlineto
          6 -5 5 -6 vhcurveto
          endchar
        </CharString>
        <CharString name="guarani">
          230 -135 rmoveto
          -11 -1 1 -4 10 hhcurveto
          114 132 hlineto
          77 6 70 26 26 26 rrcurveto
          2 2 1 3 3 vvcurveto
          212 35 119 -105 callsubr
          -254 -119 -104 callsubr
          -51 callsubr
          -25 25 -52 27 -73 8 5 41 6 43 4 35 rrcurveto
          9 1 -3 4 -8 hhcurveto
          -116 -136 hlineto
          -137 -24 -76 -99 -136 vvcurveto
          -218 vlineto
          -133 64 -94 131 -24 vhcurveto
          -6 -44 -5 -47 -4 -30 rrcurveto
          endchar
        </CharString>
        <CharString name="guillemotleft">
          337 98 -102 callgsubr
          75 callsubr
          230 20 -102 callgsubr
          75 callsubr
          endchar
        </CharString>
        <CharString name="guillemotright">
          264 502 35 callsubr
          76 callsubr
          -230 -20 35 callsubr
          76 callsubr
          endchar
        </CharString>
        <CharString name="guilsinglleft">
          477 98 -102 callgsubr
          -150 vlineto
          -12 -5 -1 -9 -9 hvcurveto
          -29 -30 -86 -91 -62 -66 rrcurveto
          -40 vlineto
          -8 1 -4 9 -10 vhcurveto
          20 -21 131 -137 14 -15 rrcurveto
          -11 11 2 -1 13 hhcurveto
          152 hlineto
          endchar
        </CharString>
        <CharString name="guilsinglright">
          123 503 35 callsubr
          150 vlineto
          12 5 1 9 9 hvcurveto
          29 30 86 91 62 66 rrcurveto
          40 vlineto
          8 -1 4 -9 10 vhcurveto
          -20 21 -131 137 -14 15 rrcurveto
          11 -11 -2 1 -13 hhcurveto
          -152 hlineto
          endchar
        </CharString>
        <CharString name="h">
          81 hmoveto
          139 348 hlineto
          2 callsubr
          285 -95 callsubr
          -739 -94 callsubr
        </CharString>
        <CharString name="h.italic">
          395 552 rmoveto
          -58 -55 -30 -68 -42 hvcurveto
          -20 285 -95 callsubr
          -739 -63 callsubr
          349 hlineto
          39 37 46 19 41 hhcurveto
          26 10 -12 -24 hvcurveto
          -247 vlineto
          -76 35 -48 79 vhcurveto
          75 -53 callsubr
          116 callsubr
          vhcurveto
          endchar
        </CharString>
        <CharString name="hcircumflex">
          86 991 0 callsubr
          -99 -991 rmoveto
          139 348 hlineto
          2 callsubr
          285 -95 callsubr
          -739 -94 callsubr
        </CharString>
        <CharString name="hryvnia">
          30 489 rmoveto
          -106 -107 callsubr
          539 106 -106 callsubr
          -120 20 hlineto
          60 19 26 29 48 vvcurveto
          8 vlineto
          66 -63 41 -176 -103 -72 -16 -9 -23 vhcurveto
          -8 -3 -2 -4 -9 vvcurveto
          -129 20 vlineto
          10 31 39 10 67 hhcurveto
          87 21 -12 -29 -18 -11 -14 -27 -8 hvcurveto
          -154 -291 rmoveto
          -65 -20 -24 -35 -42 vvcurveto
          -9 vlineto
          -68 66 -44 167 128 74 19 10 20 vhcurveto
          6 3 2 5 7 vvcurveto
          127 -20 vlineto
          -15 -43 -44 -6 -68 hhcurveto
          -81 -19 12 31 16 6 15 19 14 hvcurveto
          295 106 -106 callsubr
          -539 -106 -104 callsubr
          120 hlineto
          endchar
        </CharString>
        <CharString name="hungarumlaut">
          208 805 rmoveto
          -19 callsubr
          69 hmoveto
          -19 callsubr
          endchar
        </CharString>
        <CharString name="hungarumlautcomb">
          0 -92 805 rmoveto
          -19 callsubr
          69 hmoveto
          -19 callsubr
          endchar
        </CharString>
        <CharString name="hungarumlautcomb.case">
          0 -66 968 -78 callsubr
          48 hmoveto
          -20 callsubr
          endchar
        </CharString>
        <CharString name="hyphen">
          110 41 callsubr
          369 132 -101 callsubr
        </CharString>
        <CharString name="i">
          -45 callsubr
          -324 -672 -97 callsubr
          -34 callsubr
          399 -106 callsubr
          -73 callsubr
          -280 hlineto
          endchar
        </CharString>
        <CharString name="i.italic">
          -45 callsubr
          -334 -262 -97 callsubr
          169 -244 hlineto
          -112 49 -54 32 callsubr
          372 -89 callsubr
        </CharString>
        <CharString name="i.mono">
          -45 callsubr
          -144 -791 -90 callsubr
          -92 callsubr
          -66 callsubr
        </CharString>
        <CharString name="iacute">
          -56 callsubr
          -269 -796 -90 callsubr
          -92 callsubr
          -66 callsubr
        </CharString>
        <CharString name="ibreve">
          300 -39 callsubr
          -60 -739 -90 callsubr
          -92 callsubr
          -66 callsubr
        </CharString>
        <CharString name="icircumflex">
          246 -86 callsubr
          -100 -801 -90 callsubr
          -92 callsubr
          -66 callsubr
        </CharString>
        <CharString name="idieresis">
          112 -71 callsubr
          -237 -757 -90 callsubr
          -92 callsubr
          -66 callsubr
        </CharString>
        <CharString name="idotbelow">
          -45 callsubr
          -144 -791 -90 callsubr
          -92 callsubr
          -73 callsubr
          hlineto
          -30 -506 -103 callsubr
          -93 callsubr
        </CharString>
        <CharString name="igrave">
          262 -46 callsubr
          -22 -796 -90 callsubr
          -92 callsubr
          -66 callsubr
        </CharString>
        <CharString name="imacron">
          120 -30 callsubr
          -229 -764 -90 callsubr
          -92 callsubr
          -66 callsubr
        </CharString>
        <CharString name="increment">
          421 700 rmoveto
          -252 hlineto
          -20 -104 -46 -241 -66 -342 rrcurveto
          -10 -2 6 -3 4 hhcurveto
          521 hlineto
          -54 277 -45 238 -34 174 -1 5 -1 1 -2 2 rrcurveto
          3 -3 -1 0 -4 hhcurveto
          -209 -558 rmoveto
          26 138 26 138 27 138 rrcurveto
          19 hlineto
          26 -138 26 -138 26 -138 rrcurveto
          endchar
        </CharString>
        <CharString name="infinity">
          422 502 rmoveto
          -41 -36 -29 -69 -14 hvcurveto
          -17 hlineto
          74 -30 -36 24 -63 hhcurveto
          -23 hlineto
          -71 -60 -76 -129 -129 48 -70 74 hvcurveto
          25 hlineto
          44 33 29 69 14 hvcurveto
          17 hlineto
          -74 30 36 -24 63 hhcurveto
          23 hlineto
          71 60 70 135 135 -48 64 -74 hvcurveto
          -38 -292 rmoveto
          -18 -10 6 54 -19 hvcurveto
          -21 60 rlineto
          43 18 24 17 27 hhcurveto
          8 hlineto
          24 15 -28 -59 -65 -15 -28 -21 hvcurveto
          -239 hmoveto
          -24 -15 28 59 65 15 28 21 hvcurveto
          13 hlineto
          17 10 -6 -54 19 hvcurveto
          21 -60 rlineto
          -43 -18 -24 -17 -27 hhcurveto
          endchar
        </CharString>
        <CharString name="integral">
          446 770 rmoveto
          -155 -66 -91 -128 hvcurveto
          -577 vlineto
          -29 -6 -20 -14 -13 vhcurveto
          -12 -12 -19 -5 -28 hhcurveto
          -38 -32 7 12 -36 hvcurveto
          -20 -132 hlineto
          -3 1 -3 2 -2 vhcurveto
          -12 12 51 -12 60 hhcurveto
          154 75 83 161 hvcurveto
          558 vlineto
          32 5 20 13 12 vhcurveto
          10 10 15 4 22 hhcurveto
          39 36 -5 -10 35 hvcurveto
          20 125 -25 callsubr
          10 -10 -37 12 -74 hhcurveto
          endchar
        </CharString>
        <CharString name="iogonek">
          -45 callsubr
          1 -1015 rmoveto
          15 callsubr
          8 2 2 3 1 4 rrcurveto
          529 -105 callsubr
          -73 callsubr
          -389 hlineto
          -47 -27 -30 -49 -64 44 callsubr
          endchar
        </CharString>
        <CharString name="itilde">
          395 767 -76 callsubr
          -155 -756 -90 callsubr
          -92 callsubr
          -66 callsubr
        </CharString>
        <CharString name="j">
          277 -11 callsubr
          -18 -262 21 callsubr
        </CharString>
        <CharString name="j.italic">
          330 -11 callsubr
          -419 -262 -97 callsubr
          66 callsubr
        </CharString>
        <CharString name="jcircumflex">
          258 -86 callsubr
          86 -272 21 callsubr
        </CharString>
        <CharString name="k">
          53 callsubr
          endchar
        </CharString>
        <CharString name="k.italic">
          409 552 rmoveto
          -62 -55 -30 -68 -42 hvcurveto
          -20 285 -106 callsubr
          -149 -739 hlineto
          -44 callsubr
          350 hlineto
          43 35 36 24 37 hhcurveto
          17 11 -4 -8 8 hvcurveto
          8 -8 3 -9 -13 vvcurveto
          -28 vlineto
          -31 -13 -15 -36 vhcurveto
          -73 -114 hlineto
          -11 0 -3 9 -10 vhcurveto
          19 -21 53 -58 26 -30 rrcurveto
          -43 38 27 -11 52 hhcurveto
          61 hlineto
          11 3 2 11 hvcurveto
          117 -54 vlineto
          -18 -4 3 15 -14 hvcurveto
          -14 15 -36 37 -23 25 rrcurveto
          20 15 vlineto
          89 42 43 82 hvcurveto
          38 vlineto
          91 -52 53 -84 vhcurveto
          endchar
        </CharString>
        <CharString name="kcommaaccent">
          53 callsubr
          188 -60 -100 callsubr
          -64 callsubr
        </CharString>
        <CharString name="kip">
          10 429 -5 callsubr
          39 -278 -104 callsubr
          144 289 20 hlineto
          39 -80 35 -68 32 -61 rrcurveto
          -64 33 29 -16 81 hhcurveto
          75 -99 callsubr
          124 -29 vlineto
          -49 -18 8 49 -29 hvcurveto
          -28 48 -16 18 -26 11 rrcurveto
          20 175 129 -105 callsubr
          -164 20 hlineto
          63 28 28 40 90 132 rrcurveto
          19 27 5 11 5 vvcurveto
          5 -4 3 -5 vhcurveto
          -164 hlineto
          -59 -97 -69 -109 -44 -65 rrcurveto
          -20 260 -27 callsubr
          -271 hlineto
          endchar
        </CharString>
        <CharString name="l">
          -31 callsubr
          -34 callsubr
          609 -106 callsubr
          -73 callsubr
          -490 hlineto
          endchar
        </CharString>
        <CharString name="l.mono">
          50 750 -97 callsubr
          169 -466 hlineto
          19 callsubr
          582 -89 callsubr
        </CharString>
        <CharString name="l.sans">
          514 11 rmoveto
          8 callsubr
          571 -54 callsubr
          -580 hlineto
          10 callsubr
          endchar
        </CharString>
        <CharString name="lacute">
          341 976 -78 callsubr
          -453 -846 -97 callsubr
          -34 callsubr
          609 -106 callsubr
          -73 callsubr
          -490 hlineto
          endchar
        </CharString>
        <CharString name="lacute.mono">
          346 976 -78 callsubr
          -468 -226 -97 callsubr
          169 -466 hlineto
          19 callsubr
          582 -89 callsubr
        </CharString>
        <CharString name="lacute.sans">
          271 976 -78 callsubr
          71 -965 rmoveto
          8 callsubr
          571 -54 callsubr
          -580 hlineto
          10 callsubr
          endchar
        </CharString>
        <CharString name="lcommaaccent">
          -31 callsubr
          -34 callsubr
          609 -106 callsubr
          -73 callsubr
          -490 hlineto
          1 -187 -100 callsubr
          -64 callsubr
        </CharString>
        <CharString name="lcommaaccent.mono">
          50 750 -97 callsubr
          169 -466 hlineto
          19 callsubr
          582 -105 callsubr
          -68 -807 -100 callsubr
          -64 callsubr
        </CharString>
        <CharString name="lcommaaccent.sans">
          514 11 rmoveto
          8 callsubr
          571 -54 callsubr
          -580 hlineto
          10 callsubr
          -297 -68 -100 callsubr
          -64 callsubr
        </CharString>
        <CharString name="less">
          79 405 rmoveto
          -198 vlineto
          -10 5 -7 10 -4 vhcurveto
          142 -59 141 -61 142 -60 rrcurveto
          139 vlineto
          10 -1 3 -11 5 vhcurveto
          -99 41 -98 43 -99 41 rrcurveto
          20 vlineto
          309 134 rlineto
          138 vlineto
          6 -3 4 -6 -4 -4 -1 -6 -15 vhcurveto
          -45 -20 -223 -97 -141 -61 rrcurveto
          endchar
        </CharString>
        <CharString name="lessequal">
          60 464 rmoveto
          -175 vlineto
          -10 2 -4 10 -2 vhcurveto
          154 -27 158 -26 156 -27 rrcurveto
          105 vlineto
          10 -2 7 -12 1 vhcurveto
          -116 15 -116 15 -116 15 rrcurveto
          20 vlineto
          362 63 rlineto
          115 vlineto
          6 -3 4 -6 -4 -4 -1 -3 -16 vhcurveto
          -53 -13 -232 -52 -162 -36 rrcurveto
          -299 vmoveto
          -110 -107 callsubr
          469 110 -101 callsubr
        </CharString>
        <CharString name="liraTurkish">
          135 11 -90 callsubr
          156 hlineto
          187 84 91 141 hvcurveto
          65 vlineto
          8 -4 4 -8 vhcurveto
          -126 -45 hlineto
          -102 -40 -27 -90 vhcurveto
          -38 20 hlineto
          14 45 4 31 54 vvcurveto
          54 119 callsubr
          40 119 callsubr
          110 -54 callsubr
          -181 hlineto
          121 callsubr
          -42 vlineto
          121 callsubr
          endchar
        </CharString>
        <CharString name="litre">
          530 500 rmoveto
          73 vlineto
          118 -83 69 -127 -125 -90 -72 -120 vhcurveto
          -231 vlineto
          -22 -5 -24 -5 -26 -5 rrcurveto
          -139 vlineto
          -6 4 -4 6 7 22 3 7 33 vhcurveto
          -28 vlineto
          -93 50 -62 127 vhcurveto
          195 hlineto
          8 3 4 7 hvcurveto
          131 -208 vlineto
          -9 -7 1 3 -3 hvcurveto
          -5 4 -1 6 11 vvcurveto
          57 vlineto
          225 74 50 91 111 vvcurveto
          -275 53 rmoveto
          26 7 17 12 10 vhcurveto
          9 11 15 4 17 hhcurveto
          42 21 -15 -51 hvcurveto
          -40 vlineto
          -61 -18 -38 -107 -37 vhcurveto
          endchar
        </CharString>
        <CharString name="logicalnot">
          60 460 rmoveto
          -125 -107 callsubr
          333 -172 -104 callsubr
          125 308 -101 callsubr
        </CharString>
        <CharString name="lozenge">
          204 700 rmoveto
          -55 -128 -70 -159 -19 -40 rrcurveto
          -5 -12 -1 -5 -6 vvcurveto
          -6 1 -5 5 -12 vhcurveto
          49 -114 38 -81 49 -118 rrcurveto
          -9 4 6 -5 10 hhcurveto
          180 hlineto
          55 128 70 159 19 40 rrcurveto
          5 12 1 5 6 vvcurveto
          6 -1 5 -5 12 vhcurveto
          -49 114 -37 81 -50 118 rrcurveto
          9 -3 -7 5 -10 hhcurveto
          -179 -350 rmoveto
          28 71 30 72 28 71 rrcurveto
          20 hlineto
          28 -71 28 -72 28 -71 -28 -72 -28 -70 -30 -72 rrcurveto
          -20 hlineto
          -28 72 -28 70 -28 72 rrcurveto
          endchar
        </CharString>
        <CharString name="lslash">
          -31 callsubr
          -34 callsubr
          253 hlineto
          137 72 rlineto
          7 4 2 4 10 vvcurveto
          105 vlineto
          -146 -78 rlineto
          239 -105 callsubr
          -73 callsubr
          -181 hlineto
          -117 -62 rlineto
          -8 -4 0 -4 -11 vvcurveto
          -103 vlineto
          125 66 rlineto
          -191 vlineto
          endchar
        </CharString>
        <CharString name="lslash.mono">
          50 750 -97 callsubr
          169 -181 -107 callgsubr
          -168 vlineto
          19 callsubr
          226 vlineto
          138 73 rlineto
          7 4 2 4 10 vvcurveto
          105 vlineto
          -147 -78 rlineto
          238 -89 callsubr
        </CharString>
        <CharString name="lslash.sans">
          443 578 rmoveto
          -147 -78 rlineto
          239 -54 callsubr
          -312 -107 callgsubr
          -151 vlineto
          10 callsubr
          8 callsubr
          214 vlineto
          138 73 rlineto
          7 4 2 4 10 vvcurveto
          endchar
        </CharString>
        <CharString name="m">
          162 hmoveto
          382 vlineto
          17 20 19 -104 callgsubr
          103 381 hlineto
          17 20 18 6 15 hhcurveto
          16 12 -5 -25 hvcurveto
          -363 -107 callsubr
          121 455 hlineto
          61 -37 36 -51 -50 -32 -35 -53 -22 vhcurveto
          -21 hlineto
          55 -4 -34 126 callsubr
          -93 -529 -94 callsubr
        </CharString>
        <CharString name="m.italic">
          30 540 rmoveto
          -529 -107 callsubr
          124 382 hlineto
          17 20 18 -104 callgsubr
          104 378 hlineto
          18 20 17 8 16 hhcurveto
          16 11 -5 -25 hvcurveto
          -280 vlineto
          -57 29 -37 65 vhcurveto
          55 -53 callsubr
          -19 vlineto
          -4 -2 1 2 -2 hvcurveto
          -2 2 -1 3 3 vvcurveto
          314 vlineto
          61 -35 36 -51 -50 -31 -35 -53 -22 vhcurveto
          -21 hlineto
          55 -4 -35 126 callsubr
          endchar
        </CharString>
        <CharString name="macron">
          120 773 -14 callsubr
          endchar
        </CharString>
        <CharString name="macroncomb">
          0 -180 773 -14 callsubr
          endchar
        </CharString>
        <CharString name="macroncomb.case">
          0 -180 923 -14 callsubr
          endchar
        </CharString>
        <CharString name="manat">
          225 700 rmoveto
          1 -46 2 -45 1 -40 rrcurveto
          -132 -21 -57 -91 -135 vvcurveto
          -311 -107 callsubr
          127 304 hlineto
          83 15 31 48 8 vhcurveto
          1 -112 5 -168 3 -95 rrcurveto
          -7 4 -4 7 vhcurveto
          92 hlineto
          1 48 1 60 2 64 2 55 1 82 2 77 17 -3 13 -7 9 -13 rrcurveto
          14 -19 6 -31 -49 vvcurveto
          -293 -107 callsubr
          128 322 hlineto
          137 -55 93 -133 18 vhcurveto
          5 61 2 41 1 17 rrcurveto
          7 -4 4 -7 vhcurveto
          endchar
        </CharString>
        <CharString name="minus">
          60 376 rmoveto
          -137 -107 callsubr
          469 137 -101 callsubr
        </CharString>
        <CharString name="mu.math">
          225 -12 rmoveto
          50 46 20 82 53 hvcurveto
          -55 12 49 -45 85 hhcurveto
          49 -99 callsubr
          131 -29 vlineto
          -13 -8 7 15 hvcurveto
          386 -149 vlineto
          -6 -5 -5 -6 hvcurveto
          -320 vlineto
          -46 -42 -32 -15 -34 hhcurveto
          -22 -10 11 23 hvcurveto
          347 -105 callsubr
          -149 -729 hlineto
          -8 4 -3 7 vhcurveto
          149 65 hlineto
          3 -22 60 -25 66 vhcurveto
          -4 14 14 -2 14 hhcurveto
          endchar
        </CharString>
        <CharString name="multiply">
          80 184 rmoveto
          97 -97 13 callsubr
          110 110 110 -110 13 callsubr
          97 97 -116 116 116 116 -97 97 12 callsubr
          -110 -110 -110 110 12 callsubr
          -97 -97 116 -116 rlineto
          endchar
        </CharString>
        <CharString name="n">
          220 hmoveto
          -16 callsubr
        </CharString>
        <CharString name="n.italic">
          70 540 rmoveto
          -529 -107 callsubr
          139 348 hlineto
          38 37 51 21 36 hhcurveto
          26 10 -12 -24 hvcurveto
          -247 vlineto
          -76 28 -48 86 vhcurveto
          75 -53 callsubr
          116 callsubr
          -54 -60 -31 -67 -41 vhcurveto
          -20 75 -101 callsubr
        </CharString>
        <CharString name="nacute">
          -56 callsubr
          -289 -807 rmoveto
          -16 callsubr
        </CharString>
        <CharString name="naira">
          220 hmoveto
          155 86 vlineto
          14 -48 15 -48 14 -46 rrcurveto
          -11 3 5 -2 10 hhcurveto
          143 155 74 129 -106 callsubr
          -63 117 hlineto
          -9 41 23 -3 10 hhcurveto
          129 -105 callsubr
          -63 149 -106 callsubr
          -119 -146 hlineto
          -5 0 -4 -5 vvcurveto
          -82 hlineto
          -15 53 -13 49 -14 48 rrcurveto
          9 -3 -5 1 -10 hhcurveto
          -148 -160 -74 -129 -104 callsubr
          63 -117 hlineto
          10 -42 -20 2 -12 hhcurveto
          -129 -107 callsubr
          63 -144 -104 callsubr
          114 253 rmoveto
          -5 50 -10 69 -17 118 rrcurveto
          20 hlineto
          27 -89 26 -85 25 -81 -24 7 -22 5 -20 6 rrcurveto
          173 -30 rmoveto
          -27 92 -22 76 -18 68 23 -6 21 -6 20 -5 4 -54 8 -66 11 -99 rrcurveto
          endchar
        </CharString>
        <CharString name="napostrophe">
          166 770 4 callsubr
          54 -770 rmoveto
          -16 callsubr
        </CharString>
        <CharString name="ncaron">
          353 -77 callsubr
          -39 -639 rmoveto
          -16 callsubr
        </CharString>
        <CharString name="ncommaaccent">
          220 hmoveto
          348 vlineto
          2 callsubr
          75 -95 callsubr
          -529 -104 callsubr
          160 -60 -100 callsubr
          -64 callsubr
        </CharString>
        <CharString name="newsheqel">
          258 700 rmoveto
          -233 -61 callsubr
          119 566 104 hlineto
          23 15 -3 -9 9 hvcurveto
          9 -9 4 -16 -22 vvcurveto
          -328 72 vlineto
          10 4 4 10 hvcurveto
          363 vlineto
          103 -37 41 -110 vhcurveto
          187 hmoveto
          -499 vlineto
          -47 -21 -15 -39 vhcurveto
          -104 376 -106 callsubr
          -75 -515 hlineto
          -7 4 -4 9 vhcurveto
          179 hlineto
          140 48 53 137 hvcurveto
          499 -89 callsubr
        </CharString>
        <CharString name="nine">
          290 720 rmoveto
          -140 -104 -91 -124 hvcurveto
          -70 vlineto
          -117 76 -76 116 63 47 19 42 27 vhcurveto
          21 -38 hlineto
          -58 -16 -45 -18 -18 vhcurveto
          -18 -18 -38 -14 -47 hhcurveto
          -62 -40 8 19 -54 hvcurveto
          -20 -112 hlineto
          -11 3 -3 8 -5 vhcurveto
          -14 23 78 -14 62 hhcurveto
          190 103 108 198 hvcurveto
          156 vlineto
          175 -95 103 -165 vhcurveto
          -79 -325 rmoveto
          -13 13 -6 20 30 vvcurveto
          36 vlineto
          51 36 35 61 39 22 -8 -17 17 vhcurveto
          18 -18 11 -38 -51 vvcurveto
          -39 vlineto
          -23 -35 -41 -10 -46 hhcurveto
          -29 -21 6 13 -13 hvcurveto
          endchar
        </CharString>
        <CharString name="nineinferior">
          296 343 49 callsubr
        </CharString>
        <CharString name="ninesuperior">
          296 742 49 callsubr
        </CharString>
        <CharString name="notequal">
          60 240 -98 callsubr
          84 hlineto
          -3 -7 -2 -8 -3 -7 -14 -36 -14 -37 -13 -36 rrcurveto
          128 hlineto
          6 6 3 8 3 hvcurveto
          15 40 14 40 15 40 rrcurveto
          247 -102 callsubr
          -184 hlineto
          15 39 14 40 15 39 rrcurveto
          151 -102 callsubr
          -88 hlineto
          16 44 16 43 16 43 rrcurveto
          -129 hlineto
          -6 -4 -2 -5 -2 hvcurveto
          -15 -41 -15 -41 -15 -41 rrcurveto
          -243 -60 callsubr
          180 hlineto
          -14 -39 -15 -40 -14 -39 rrcurveto
          endchar
        </CharString>
        <CharString name="ntilde">
          395 767 -76 callsubr
          -175 -767 rmoveto
          -16 callsubr
        </CharString>
        <CharString name="numbersign">
          22 255 rmoveto
          -94 vlineto
          -3 1 -3 2 -2 vhcurveto
          -2 2 3 -1 3 hhcurveto
          58 111 callsubr
          109 111 callsubr
          108 94 -106 callsubr
          -76 hlineto
          12 60 12 60 12 60 rrcurveto
          91 104 40 callsubr
          -57 105 callsubr
          105 callsubr
          -104 -104 callsubr
          75 hlineto
          -12 -60 -12 -60 -12 -60 rrcurveto
          117 hmoveto
          12 60 12 60 12 60 rrcurveto
          109 hlineto
          -12 -60 -12 -60 -12 -60 rrcurveto
          endchar
        </CharString>
        <CharString name="o">
          17 callsubr
          -72 callsubr
        </CharString>
        <CharString name="oacute">
          336 -37 callsubr
          -207 -255 -79 callsubr
          -72 callsubr
        </CharString>
        <CharString name="obreve">
          298 -39 callsubr
          2 -198 -79 callsubr
          -72 callsubr
        </CharString>
        <CharString name="ocircumflex">
          244 -86 callsubr
          -38 -260 -79 callsubr
          -72 callsubr
        </CharString>
        <CharString name="odieresis">
          110 -71 callsubr
          -175 -216 -79 callsubr
          -72 callsubr
        </CharString>
        <CharString name="odotbelow">
          17 callsubr
          -138 100 -95 147 147 100 95 138 vhcurveto
          98 vlineto
          138 -101 95 -146 vhcurveto
          -135 vmoveto
          32 24 -7 -16 16 hvcurveto
          17 -17 8 -26 -39 vvcurveto
          -84 vlineto
          -68 -35 -37 -62 -30 -24 9 16 -16 vhcurveto
          -18 18 -9 27 35 vvcurveto
          84 vlineto
          68 35 37 62 vhcurveto
          -92 -518 -103 callsubr
          -93 callsubr
        </CharString>
        <CharString name="ogonek">
          317 90 callsubr
        </CharString>
        <CharString name="ogonekcomb">
          0 -33 90 callsubr
        </CharString>
        <CharString name="ogonekcomb.case">
          0 -37 45 rmoveto
          -78 -98 -59 -107 -82 58 -47 94 44 38 14 21 hvcurveto
          11 callsubr
          -10 callsubr
          23 -14 -20 22 -29 hhcurveto
          endchar
        </CharString>
        <CharString name="ograve">
          260 -46 callsubr
          40 -255 -79 callsubr
          -72 callsubr
        </CharString>
        <CharString name="ohm">
          295 720 rmoveto
          -146 -94 -94 -148 hvcurveto
          -142 vlineto
          -89 31 -62 56 -22 vhcurveto
          -20 -102 -132 -107 callsubr
          198 -99 callsubr
          162 vlineto
          -39 6 -16 23 50 vvcurveto
          217 vlineto
          75 29 34 65 32 23 -7 -15 15 vhcurveto
          18 -19 7 -25 -43 vvcurveto
          -217 vlineto
          -50 -16 -23 -38 -6 vhcurveto
          -162 -107 callsubr
          209 132 -106 callsubr
          -91 20 hlineto
          57 23 29 66 104 vvcurveto
          119 vlineto
          157 -90 88 -159 vhcurveto
          endchar
        </CharString>
        <CharString name="ohungarumlaut">
          206 805 rmoveto
          -19 callsubr
          69 hmoveto
          -19 callsubr
          -317 -253 -79 callsubr
          -72 callsubr
        </CharString>
        <CharString name="omacron">
          118 -30 callsubr
          -167 -223 -79 callsubr
          -72 callsubr
        </CharString>
        <CharString name="one">
          80 142 rmoveto
          -131 vlineto
          -3 1 -3 2 -2 vhcurveto
          -2 2 2 -1 4 hhcurveto
          459 -102 callsubr
          -129 557 -106 callsubr
          81 callsubr
          -420 hlineto
          endchar
        </CharString>
        <CharString name="one.sans">
          410 hmoveto
          699 -105 callsubr
          81 callsubr
          -551 -94 callsubr
        </CharString>
        <CharString name="oneeighth">
          36 -12 callsubr
          213 -58 -75 callsubr
          75 -62 -40 callsubr
          -189 -47 -21 callsubr
          174 -110 -41 callsubr
        </CharString>
        <CharString name="onehalf">
          36 -12 callsubr
          213 -58 -75 callsubr
          208 -438 rmoveto
          86 -105 callsubr
          -4 callsubr
          -49 329 -21 callsubr
          endchar
        </CharString>
        <CharString name="oneinferior">
          156 64 rmoveto
          -86 -107 callsubr
          65 callsubr
          endchar
        </CharString>
        <CharString name="onequarter">
          36 -12 callsubr
          213 -58 -75 callsubr
          189 -447 -3 callsubr
          -218 338 -21 callsubr
          endchar
        </CharString>
        <CharString name="onesuperior">
          156 -12 callsubr
          endchar
        </CharString>
        <CharString name="onethird">
          36 -12 callsubr
          213 -58 -75 callsubr
          226 -160 -42 callsubr
          -340 51 -21 callsubr
          endchar
        </CharString>
        <CharString name="oogonek">
          17 callsubr
          -105 58 -80 93 -33 vhcurveto
          -29 -28 -17 -40 -48 44 callsubr
          11 callsubr
          26 24 22 45 11 hvcurveto
          121 19 79 89 122 vvcurveto
          68 callsubr
        </CharString>
        <CharString name="ordfeminine">
          220 290 rmoveto
          55 45 33 51 16 hvcurveto
          21 hlineto
          -42 12 36 -34 68 hhcurveto
          39 -99 callsubr
          98 -27 vlineto
          -10 -5 6 12 hvcurveto
          314 -105 callsubr
          -118 -54 -20 hlineto
          39 -19 -43 25 -50 hhcurveto
          -83 -53 -59 -103 hvcurveto
          -146 vlineto
          -102 53 -60 83 vhcurveto
          8 135 rmoveto
          -9 9 -5 16 23 vvcurveto
          104 vlineto
          40 19 22 34 30 28 -12 -21 27 vhcurveto
          -142 vlineto
          -33 -27 -29 -20 -29 hhcurveto
          -17 -13 4 10 -9 hvcurveto
          endchar
        </CharString>
        <CharString name="ordmasculine">
          302 762 rmoveto
          -126 -86 -86 -124 hvcurveto
          -45 vlineto
          -134 82 -85 126 125 87 86 124 vhcurveto
          46 vlineto
          133 -85 85 -123 vhcurveto
          2 -118 rmoveto
          28 21 -7 -15 13 hvcurveto
          12 -15 6 -22 -33 vvcurveto
          -58 vlineto
          -56 -32 -32 -56 -28 -20 7 15 -13 vhcurveto
          -13 15 -6 23 32 vvcurveto
          58 vlineto
          56 31 32 57 vhcurveto
          endchar
        </CharString>
        <CharString name="oslash">
          17 callsubr
          47 callsubr
        </CharString>
        <CharString name="oslashacute">
          338 827 rmoveto
          -19 callsubr
          -209 -275 -79 callsubr
          47 callsubr
        </CharString>
        <CharString name="otilde">
          393 767 -76 callsubr
          -93 -215 -79 callsubr
          -72 callsubr
        </CharString>
        <CharString name="overline">
          50 950 -98 callsubr
          489 -102 callsubr
          endchar
        </CharString>
        <CharString name="p">
          70 540 rmoveto
          -729 -107 callsubr
          139 272 18 hlineto
          -47 34 54 -35 56 112 callsubr
          68 -106 callsubr
          122 -133 118 callsubr
          -36 -42 14 25 -33 vhcurveto
          171 vlineto
          38 33 44 24 34 hhcurveto
          endchar
        </CharString>
        <CharString name="paragraph">
          410 -139 -90 callsubr
          109 713 49 126 40 callsubr
          -310 hlineto
          -134 -93 -69 -143 hvcurveto
          -86 vlineto
          -108 67 -76 101 vhcurveto
          11 -357 -104 callsubr
          109 713 80 hlineto
          endchar
        </CharString>
        <CharString name="parenleft">
          339 742 rmoveto
          -117 -117 -57 -145 -160 vvcurveto
          -9 vlineto
          -158 57 -141 117 -117 vhcurveto
          -8 8 5 0 7 hhcurveto
          176 20 hlineto
          -132 125 -68 123 156 vvcurveto
          9 vlineto
          158 65 134 130 118 vhcurveto
          20 -171 vlineto
          -7 -5 0 -8 -8 hvcurveto
          endchar
        </CharString>
        <CharString name="parenright">
          261 -105 rmoveto
          117 117 57 145 160 vvcurveto
          9 vlineto
          158 -57 141 -117 117 vhcurveto
          8 -8 -5 0 -7 hhcurveto
          -176 -20 hlineto
          132 -125 68 -123 -156 vvcurveto
          -9 vlineto
          -158 -65 -134 -130 -118 vhcurveto
          -20 171 vlineto
          7 5 0 8 8 hvcurveto
          endchar
        </CharString>
        <CharString name="partialdiff">
          234 490 rmoveto
          -102 -77 -81 -119 hvcurveto
          -79 vlineto
          -136 97 -86 144 -1 vhcurveto
          1 0 0 1 hhcurveto
          146 101 102 148 hvcurveto
          88 vlineto
          158 -77 131 -127 127 vhcurveto
          8 -8 -5 0 -7 hhcurveto
          -166 -20 hlineto
          112 -105 81 -89 32 -105 rrcurveto
          33 -32 -51 26 -63 hhcurveto
          -29 -269 rmoveto
          55 vlineto
          57 29 31 48 48 30 -15 -26 35 vhcurveto
          -90 vlineto
          -67 -37 -38 -63 -64 -26 35 58 vhcurveto
          endchar
        </CharString>
        <CharString name="percent">
          169 710 106 callsubr
          188 -305 88 callsubr
          -245 114 83 callsubr
          319 -179 106 callsubr
          -188 -44 rmoveto
          -114 hlineto
          -5 -3 -1 -6 -2 hvcurveto
          103 callsubr
          131 -147 83 callsubr
          endchar
        </CharString>
        <CharString name="period">
          400 -10 -48 callsubr
          -189 -189 -104 callsubr
          endchar
        </CharString>
        <CharString name="periodcentered">
          400 224 -48 callsubr
          -189 -189 -104 callsubr
          endchar
        </CharString>
        <CharString name="perthousand">
          291 556 rmoveto
          20 vlineto
          84 -56 50 -83 -83 -57 -55 -82 vhcurveto
          -21 vlineto
          -84 56 -50 84 83 56 56 82 vhcurveto
          -249 -324 rmoveto
          141 60 244 105 133 57 rrcurveto
          6 3 4 5 9 vvcurveto
          157 vlineto
          -152 -99 -319 -208 -69 -45 rrcurveto
          -37 vlineto
          -6 4 -4 8 3 vhcurveto
          60 323 rmoveto
          33 callsubr
          486 -427 rmoveto
          20 vlineto
          84 -52 50 -76 vhcurveto
          -1 hlineto
          -45 -37 -19 -31 -22 hvcurveto
          32 -23 -37 18 -46 hhcurveto
          -77 -53 -55 -82 hvcurveto
          -21 vlineto
          -84 52 -50 78 45 36 19 31 22 vhcurveto
          -32 23 37 -18 46 hhcurveto
          1 hlineto
          77 52 56 82 hvcurveto
          -379 -1 rmoveto
          33 callsubr
          190 hmoveto
          33 callsubr
          endchar
        </CharString>
        <CharString name="peso">
          30 525 rmoveto
          -89 -107 callsubr
          34 -33 -45 -89 -104 callsubr
          34 -281 hlineto
          -44 callsubr
          124 76 hlineto
          148 60 61 105 13 hvcurveto
          -2 27 15 -1 6 hhcurveto
          94 -105 callsubr
          -34 31 hlineto
          -2 25 14 -1 6 hhcurveto
          94 -105 callsubr
          -36 hlineto
          108 -11 -59 67 -152 hhcurveto
          -236 -175 hlineto
          160 51 rmoveto
          77 hlineto
          25 19 -4 -12 12 hvcurveto
          8 -8 5 -11 2 -16 rrcurveto
          -148 hlineto
          -133 vmoveto
          61 vlineto
          58 -6 50 -6 42 -4 rrcurveto
          -45 vlineto
          -74 -133 rmoveto
          -76 61 hlineto
          57 -6 49 -6 41 -4 rrcurveto
          -34 -8 -22 -11 -41 hhcurveto
          endchar
        </CharString>
        <CharString name="pi">
          20 540 -5 callsubr
          44 -389 hlineto
          -44 callsubr
          400 120 -275 hlineto
          -85 56 -50 89 vhcurveto
          49 -99 callsubr
          131 -29 vlineto
          -6 -5 1 3 -4 hvcurveto
          -4 4 -2 6 8 vvcurveto
          246 50 129 -89 callsubr
        </CharString>
        <CharString name="plus">
          60 374 rmoveto
          -137 -107 callsubr
          154 -153 -63 callsubr
          164 165 137 -106 callsubr
          -154 153 -95 callsubr
          -164 hlineto
          endchar
        </CharString>
        <CharString name="plusminus">
          60 480 rmoveto
          -125 -107 callsubr
          154 -109 -63 callsubr
          120 165 125 -106 callsubr
          -154 109 -95 callsubr
          -120 hlineto
          -165 -315 rmoveto
          -125 -107 callsubr
          469 125 -101 callsubr
        </CharString>
        <CharString name="product">
          30 700 -98 callsubr
          44 -547 hlineto
          -44 callsubr
          558 110 -547 hlineto
          -44 callsubr
          558 55 -102 callsubr
          endchar
        </CharString>
        <CharString name="q">
          380 540 rmoveto
          -70 -18 vlineto
          47 -34 -54 35 -56 hhcurveto
          -100 -63 -71 -123 hvcurveto
          18 callsubr
          61 56 35 60 29 vhcurveto
          16 -274 -63 callsubr
          729 -106 callsubr
          -297 -389 -101 callgsubr
          36 42 -14 -25 33 vhcurveto
          -172 vlineto
          -37 -33 -44 -24 -34 hhcurveto
          -20 -16 5 11 -11 hvcurveto
          endchar
        </CharString>
        <CharString name="question">
          294 720 rmoveto
          -103 -87 -23 -20 -20 hvcurveto
          -3 -3 -1 -3 -5 vvcurveto
          -140 20 vlineto
          32 57 62 12 74 hhcurveto
          43 23 -5 -9 13 hvcurveto
          9 -7 3 -10 -12 vvcurveto
          -35 -6 -8 -55 -38 vhcurveto
          -23 -16 rlineto
          -76 -53 -22 -32 -56 vvcurveto
          -26 vlineto
          -9 3 -2 8 vhcurveto
          141 6 hlineto
          33 10 12 39 25 vhcurveto
          31 20 rlineto
          81 53 19 45 76 vvcurveto
          31 vlineto
          83 -69 84 -171 vhcurveto
          86 -730 rmoveto
          179 -105 callsubr
          -189 -179 -94 callsubr
        </CharString>
        <CharString name="questiondown">
          220 550 rmoveto
          -179 -107 callsubr
          189 179 -106 callsubr
          -103 -730 rmoveto
          103 87 23 20 20 hvcurveto
          3 3 1 3 5 vvcurveto
          140 -20 vlineto
          -32 -57 -62 -12 -74 hhcurveto
          -43 -23 5 9 -13 hvcurveto
          -9 7 -3 10 12 vvcurveto
          35 6 8 55 38 vhcurveto
          23 16 rlineto
          76 53 22 32 56 vvcurveto
          26 vlineto
          9 -3 2 -8 vhcurveto
          -141 -6 hlineto
          -33 -10 -12 -39 -25 vhcurveto
          -31 -20 rlineto
          -81 -53 -19 -45 -76 vvcurveto
          -31 vlineto
          -83 69 -84 171 vhcurveto
          endchar
        </CharString>
        <CharString name="quotedbl">
          235 450 rmoveto
          23 287 rlineto
          9 1 -5 4 -6 hhcurveto
          -159 -106 callgsubr
          363 hmoveto
          23 287 rlineto
          9 1 -5 4 -6 hhcurveto
          -159 hlineto
          23 -289 rlineto
          -7 1 5 -4 6 hhcurveto
          endchar
        </CharString>
        <CharString name="quotedblbase">
          297 -157 rmoveto
          3 callsubr
          -250 hmoveto
          3 callsubr
          endchar
        </CharString>
        <CharString name="quotedblleft">
          303 711 rmoveto
          -124 hlineto
          -5 -3 -1 -6 -2 hvcurveto
          104 callsubr
          250 hmoveto
          -124 hlineto
          -5 -3 -1 -6 -2 hvcurveto
          104 callsubr
          endchar
        </CharString>
        <CharString name="quotedblright">
          297 387 rmoveto
          3 callsubr
          -250 hmoveto
          3 callsubr
          endchar
        </CharString>
        <CharString name="quoteleft">
          299 711 rmoveto
          -5 -3 -1 -6 -2 hvcurveto
          -41 -109 -48 -128 -33 -86 rrcurveto
          -8 -3 3 -5 8 hhcurveto
          196 hlineto
          24 114 24 115 24 114 rrcurveto
          endchar
        </CharString>
        <CharString name="quoteright">
          301 367 87 callsubr
        </CharString>
        <CharString name="quotesinglbase">
          301 -177 87 callsubr
        </CharString>
        <CharString name="quotesingle">
          366 450 rmoveto
          23 287 rlineto
          9 1 -5 4 -6 hhcurveto
          -169 -106 callgsubr
          endchar
        </CharString>
        <CharString name="r">
          -31 callsubr
          419 119 -106 callsubr
          -149 217 hlineto
          29 34 48 16 46 hhcurveto
          31 21 -3 -9 32 hvcurveto
          20 146 -26 callsubr
          8 -8 -20 6 -30 hhcurveto
          -81 -53 -48 -68 -31 hvcurveto
          -16 hlineto
          40 -13 -22 66 -1 hhcurveto
          -219 -119 -104 callsubr
          104 -280 hlineto
          endchar
        </CharString>
        <CharString name="r.italic">
          55 540 -97 callsubr
          89 -399 -63 callsubr
          341 hlineto
          40 34 44 20 30 hhcurveto
          4 -82 124 -99 callsubr
          192 vlineto
          3 -1 4 -2 2 vhcurveto
          10 -10 -26 9 -44 hhcurveto
          -75 -49 -47 -69 -34 hvcurveto
          -16 hlineto
          40 -13 -22 66 -1 hhcurveto
          endchar
        </CharString>
        <CharString name="r.mono">
          235 hmoveto
          30 callsubr
        </CharString>
        <CharString name="racute">
          349 -37 callsubr
          -285 -807 rmoveto
          30 callsubr
        </CharString>
        <CharString name="radical">
          30 450 -98 callsubr
          62 hlineto
          25 -86 24 -79 36 -128 rrcurveto
          -10 3 8 -5 10 hhcurveto
          198 hlineto
          48 175 92 332 48 174 rrcurveto
          10 3 -5 9 -11 hhcurveto
          -140 hlineto
          -31 -131 -77 -324 -22 -137 rrcurveto
          -20 hlineto
          -23 109 -22 107 -23 109 rrcurveto
          11 -2 -6 6 -9 hhcurveto
          endchar
        </CharString>
        <CharString name="rcaron">
          364 -77 callsubr
          -35 -639 rmoveto
          30 callsubr
        </CharString>
        <CharString name="rcommaaccent">
          235 hmoveto
          331 vlineto
          42 47 69 23 72 hhcurveto
          40 26 -6 -12 43 hvcurveto
          20 138 -26 callsubr
          100 callsubr
          5 -60 -100 callsubr
          -64 callsubr
        </CharString>
        <CharString name="registered">
          300 760 rmoveto
          -159 -98 -75 -142 hvcurveto
          -126 vlineto
          -142 98 -75 159 165 92 75 142 vhcurveto
          126 vlineto
          142 -92 75 -165 vhcurveto
          -62 vmoveto
          71 50 -17 -29 30 hvcurveto
          28 -26 12 -35 -42 vvcurveto
          -140 vlineto
          -89 -57 -58 -134 -60 -46 13 24 -32 vhcurveto
          -35 26 -18 38 48 vvcurveto
          140 vlineto
          89 63 58 128 vhcurveto
          24 -63 rmoveto
          -156 -59 -104 callsubr
          9 -227 -104 callsubr
          71 98 37 hlineto
          7 -18 6 -17 7 -18 rrcurveto
          -36 13 23 -12 44 hhcurveto
          11 hlineto
          8 3 4 7 hvcurveto
          66 -19 vlineto
          -12 -3 2 10 -4 hvcurveto
          -3 7 -2 6 -3 7 rrcurveto
          29 13 16 29 35 vvcurveto
          35 vlineto
          55 -35 35 -69 vhcurveto
          -3 -70 rmoveto
          9 7 -2 -4 4 hvcurveto
          5 -4 2 -6 -8 vvcurveto
          -24 vlineto
          -14 -11 -10 -16 vhcurveto
          -51 72 hlineto
          endchar
        </CharString>
        <CharString name="ring">
          42 callsubr
          endchar
        </CharString>
        <CharString name="ringacute">
          0 41 63 callsubr
          endchar
        </CharString>
        <CharString name="ringacute.case">
          0 51 1038 rmoveto
          -103 callgsubr
          -79 63 -52 110 110 63 52 79 vhcurveto
          26 vlineto
          120 callsubr
          -223 -229 -22 callsubr
          endchar
        </CharString>
        <CharString name="ringcomb">
          0 868 vmoveto
          93 callsubr
          endchar
        </CharString>
        <CharString name="ringcomb.case">
          0 1 899 rmoveto
          -111 -63 -51 -80 hvcurveto
          -26 vlineto
          -79 63 -52 110 110 63 52 79 vhcurveto
          26 vlineto
          79 -62 52 -110 vhcurveto
          -1 -90 -22 callsubr
          endchar
        </CharString>
        <CharString name="ruble">
          30 229 rmoveto
          -107 -107 callsubr
          34 -100 hlineto
          -44 callsubr
          111 187 107 -106 callsubr
          -176 43 76 hlineto
          171 63 71 136 hvcurveto
          10 vlineto
          132 -63 79 -171 vhcurveto
          -236 -294 -45 -123 -104 callsubr
          34 -43 hlineto
          237 337 rmoveto
          25 19 -4 -12 12 hvcurveto
          12 -12 5 -13 -29 vvcurveto
          -24 vlineto
          -51 -23 -15 -51 vhcurveto
          -76 160 hlineto
          endchar
        </CharString>
        <CharString name="rupee">
          402 -10 rmoveto
          125 62 47 124 76 -16 30 -60 40 hvcurveto
          -15 10 rlineto
          -43 29 -8 12 18 vvcurveto
          20 14 13 33 20 17 -4 -9 14 vhcurveto
          20 119 hlineto
          13 -2 5 -10 5 vhcurveto
          6 -12 -23 5 -32 hhcurveto
          -90 -49 -51 -114 -77 24 -33 50 -28 hvcurveto
          18 -10 rlineto
          33 -18 8 -15 -25 vvcurveto
          -29 -17 -18 -61 -59 -31 17 65 -22 vhcurveto
          -4 12 -5 14 -5 15 rrcurveto
          29 23 17 43 73 vvcurveto
          125 vlineto
          128 -37 54 -116 vhcurveto
          -147 -61 callsubr
          105 233 54 hlineto
          7 -32 6 -30 7 -31 rrcurveto
          -112 24 44 -38 122 hhcurveto
          -239 575 rmoveto
          21 17 -5 -10 10 hvcurveto
          10 -11 4 -17 -23 vvcurveto
          -70 vlineto
          -45 -22 -21 -37 vhcurveto
          -28 202 hlineto
          endchar
        </CharString>
        <CharString name="rupeeIndian">
          31 512 rmoveto
          -105 -107 callsubr
          337 hlineto
          -36 -4 -21 -17 -44 hhcurveto
          -280 -118 hlineto
          -8 4 -4 8 vhcurveto
          257 hlineto
          25 -49 25 -50 26 -49 rrcurveto
          -49 26 26 -16 64 hhcurveto
          58 -99 callsubr
          124 -33 vlineto
          -14 -6 3 14 -8 hvcurveto
          -18 32 -16 29 -16 29 51 30 31 53 4 71 rrcurveto
          49 105 -106 callsubr
          -43 hlineto
          -7 21 -14 15 -24 13 rrcurveto
          20 99 108 -105 callsubr
          -543 -96 callsubr
          262 hlineto
          32 18 -6 -11 11 hvcurveto
          9 -9 5 -11 1 -16 rrcurveto
          endchar
        </CharString>
        <CharString name="s">
          295 131 6 callsubr
        </CharString>
        <CharString name="s.italic">
          327 549 rmoveto
          102 callsubr
          -91 -46 9 24 -65 vhcurveto
          -20 -127 hlineto
          -3 0 -2 2 -2 vhcurveto
          -13 13 101 -26 105 hhcurveto
          156 86 61 114 81 -41 44 -111 14 hvcurveto
          -95 12 rlineto
          -37 5 -18 11 25 vvcurveto
          28 23 23 71 24 12 -1 -2 12 vhcurveto
          -38 124 vlineto
          7 4 4 7 hvcurveto
          129 vlineto
          5 -1 3 -2 2 vhcurveto
          12 -12 -61 19 -108 hhcurveto
          endchar
        </CharString>
        <CharString name="sacute">
          -56 callsubr
          -214 -676 6 callsubr
        </CharString>
        <CharString name="scaron">
          353 -77 callsubr
          36 -508 6 callsubr
        </CharString>
        <CharString name="scedilla">
          113 callsubr
          11 -11 71 -22 97 -5 -6 -15 -7 -16 -7 -17 -74 callsubr
          -49 callsubr
          1 4 1 5 2 5 rlinecurve
          138 7 74 58 109 vvcurveto
          84 -52 48 -106 13 vhcurveto
          -95 12 rlineto
          -39 5 -12 12 21 vvcurveto
          30 20 18 76 58 37 -6 -17 58 vhcurveto
          20 122 -26 callsubr
          12 -12 -57 19 -102 hhcurveto
          102 callsubr
          vhcurveto
          endchar
        </CharString>
        <CharString name="scircumflex">
          246 -86 callsubr
          -45 -681 6 callsubr
        </CharString>
        <CharString name="scommaaccent">
          113 callsubr
          54 callsubr
          -50 -191 -100 callsubr
          -64 callsubr
        </CharString>
        <CharString name="section">
          290 -105 rmoveto
          -90 -60 19 39 -60 hvcurveto
          -20 -141 hlineto
          -2 1 -4 2 -2 vhcurveto
          -34 34 85 -20 97 hhcurveto
          167 100 82 115 hvcurveto
          23 vlineto
          60 -20 50 -64 37 vhcurveto
          20 vlineto
          46 7 38 44 46 vvcurveto
          18 vlineto
          77 -36 34 -124 38 vhcurveto
          -95 29 rlineto
          -66 20 -11 14 36 vvcurveto
          16 vlineto
          48 36 18 72 20 17 -1 -3 17 vhcurveto
          -57 -107 callsubr
          134 147 hlineto
          11 -1 3 -5 5 vhcurveto
          20 -20 -72 24 -104 hhcurveto
          -148 -104 -88 -109 hvcurveto
          -44 vlineto
          -44 17 -55 66 -42 vhcurveto
          -20 vlineto
          -44 -7 -39 -40 -58 vvcurveto
          -16 vlineto
          -60 59 -54 104 -32 vhcurveto
          94 -29 rlineto
          69 -21 6 -15 -27 vvcurveto
          -8 vlineto
          -28 -30 -28 -79 vhcurveto
          96 254 rmoveto
          -96 29 rlineto
          -66 20 -10 14 36 vvcurveto
          25 vlineto
          13 2 11 4 9 vhcurveto
          4 -1 3 -1 3 -1 94 -29 rcurveline
          69 -21 6 -15 -27 vvcurveto
          -28 vlineto
          -11 -3 -12 -8 -12 vhcurveto
          1 -1 0 -1 vhcurveto
          endchar
        </CharString>
        <CharString name="semicolon">
          400 350 -48 callsubr
          -189 -189 -104 callsubr
          79 -550 86 callsubr
        </CharString>
        <CharString name="seven">
          324 hmoveto
          39 100 33 83 40 98 rrcurveto
          40 98 74 191 4 vvcurveto
          115 -105 callsubr
          -489 -219 -63 callsubr
          88 205 -20 hlineto
          -32 -33 -22 -38 -28 -67 rrcurveto
          -96 -233 -63 -146 -10 vvcurveto
          -7 4 -4 7 vhcurveto
          endchar
        </CharString>
        <CharString name="seveneighths">
          282 522 rmoveto
          15 45 30 91 2 vvcurveto
          65 -105 callsubr
          -281 -127 -104 callsubr
          89 callsubr
          75 -117 -75 callsubr
          75 -62 -40 callsubr
          -189 -47 -21 callsubr
          174 -110 -41 callsubr
        </CharString>
        <CharString name="seveninferior">
          382 123 rmoveto
          15 45 30 91 2 vvcurveto
          65 -105 callsubr
          -281 -127 -104 callsubr
          89 callsubr
          endchar
        </CharString>
        <CharString name="sevensuperior">
          382 522 rmoveto
          15 45 30 91 2 vvcurveto
          65 -105 callsubr
          -281 -127 -104 callsubr
          89 callsubr
          endchar
        </CharString>
        <CharString name="six">
          357 720 rmoveto
          -128 -179 -50 -269 hvcurveto
          -143 vlineto
          -179 98 -99 160 144 102 93 122 vhcurveto
          60 vlineto
          119 -78 74 -114 -67 -42 -20 -37 -28 vhcurveto
          -21 38 hlineto
          52 4 38 24 24 vhcurveto
          24 24 31 13 48 hhcurveto
          58 51 -12 -20 53 hvcurveto
          20 127 hlineto
          9 -3 5 -7 3 vhcurveto
          11 -23 -59 17 -68 hhcurveto
          -126 -581 rmoveto
          -17 18 -10 31 59 vvcurveto
          35 vlineto
          22 33 37 10 40 hhcurveto
          39 22 -12 -12 12 hvcurveto
          12 -12 9 -25 -32 vvcurveto
          -10 vlineto
          -57 -35 -42 -65 -33 -26 8 19 -18 vhcurveto
          endchar
        </CharString>
        <CharString name="sixinferior">
          317 343 50 callsubr
        </CharString>
        <CharString name="sixsuperior">
          317 742 50 callsubr
        </CharString>
        <CharString name="slash">
          553 67 callsubr
        </CharString>
        <CharString name="slashcomb">
          0 526 578 rmoveto
          -175 -93 rlineto
          -34 -18 -23 5 -35 -18 -146 -77 rcurveline
          -8 -4 0 -4 -11 vvcurveto
          -103 vlineto
          147 78 rlineto
          42 22 23 -6 35 19 165 87 rcurveline
          7 4 2 4 10 vvcurveto
          endchar
        </CharString>
        <CharString name="space">
          endchar
        </CharString>
        <CharString name="sterling">
          60 410 rmoveto
          -99 -107 callsubr
          64 -94 hlineto
          -52 -28 -19 -42 vhcurveto
          -25 -96 callsubr
          488 hlineto
          6 5 5 6 hvcurveto
          124 -316 20 vlineto
          46 32 5 38 43 vvcurveto
          32 165 99 -105 callsubr
          -154 97 hlineto
          26 6 17 15 10 vhcurveto
          13 16 26 4 39 hhcurveto
          46 32 -8 -17 45 hvcurveto
          20 128 hlineto
          3 0 2 -2 2 vhcurveto
          9 -9 -52 24 -82 hhcurveto
          -157 -93 -72 -115 hvcurveto
          -123 vlineto
          endchar
        </CharString>
        <CharString name="summation">
          553 -69 rmoveto
          7 -4 4 -7 vhcurveto
          -299 20 hlineto
          98 85 82 101 47 57 rrcurveto
          6 7 2 8 10 vvcurveto
          59 vlineto
          -54 71 -47 61 -49 65 -18 23 -24 18 -28 11 rrcurveto
          20 295 131 -105 callsubr
          -499 -60 callsubr
          36 hlineto
          59 -79 97 -129 71 -90 -52 -65 -95 -119 -122 -154 rrcurveto
          -111 -107 callsubr
          494 hlineto
          endchar
        </CharString>
        <CharString name="t">
          500 132 -1 callsubr
          36 callsubr
          endchar
        </CharString>
        <CharString name="tcaron">
          526 799 4 callsubr
          -26 -667 -1 callsubr
          36 callsubr
          endchar
        </CharString>
        <CharString name="tcedilla">
          500 132 -1 callsubr
          -126 54 -66 99 -21 vhcurveto
          -9 -19 -8 -21 -10 -23 -74 callsubr
          -49 callsubr
          2 6 2 8 2 8 rlinecurve
          4 3 0 4 hhcurveto
          85 hlineto
          6 5 5 6 hvcurveto
          endchar
        </CharString>
        <CharString name="tcommaaccent">
          500 132 -1 callsubr
          36 callsubr
          -188 -71 -100 callsubr
          -55 callsubr
        </CharString>
        <CharString name="tenge">
          50 700 rmoveto
          -114 -107 callsubr
          489 114 -106 callsubr
          -159 -700 rmoveto
          385 -18 callsubr
          -374 -94 callsubr
        </CharString>
        <CharString name="thai:baht">
          196 -135 rmoveto
          -10 -2 4 -5 8 hhcurveto
          114 150 10 hlineto
          127 83 48 121 hvcurveto
          123 callsubr
          76 -48 78 -149 9 vhcurveto
          5 47 6 49 5 42 rrcurveto
          9 1 -2 4 -9 hhcurveto
          -116 -150 -203 -121 -104 callsubr
          34 -557 -104 callsubr
          129 hlineto
          -8 -55 -7 -54 -4 -26 rrcurveto
          119 703 27 callsubr
        </CharString>
        <CharString name="three">
          281 720 rmoveto
          -99 -76 -19 -9 -23 hvcurveto
          -8 -3 -2 -4 -9 vvcurveto
          -131 20 vlineto
          17 58 43 8 81 hhcurveto
          90 25 -29 -34 hvcurveto
          -2 vlineto
          -46 -21 -31 -219 vhcurveto
          -129 vlineto
          -8 4 -3 7 199 40 -30 -53 vhcurveto
          -5 vlineto
          -38 -28 -32 -97 -90 -48 6 24 -64 vhcurveto
          -20 -136 hlineto
          -7 2 -5 6 -3 vhcurveto
          -10 20 94 -19 106 hhcurveto
          163 106 65 125 hvcurveto
          32 vlineto
          70 -48 54 -122 25 vhcurveto
          20 vlineto
          115 26 45 45 92 vvcurveto
          19 vlineto
          106 -106 61 -153 vhcurveto
          endchar
        </CharString>
        <CharString name="threeeighths">
          326 644 -42 callsubr
          31 -239 -75 callsubr
          75 -62 -40 callsubr
          -189 -47 -21 callsubr
          174 -110 -41 callsubr
        </CharString>
        <CharString name="threeinferior">
          436 245 -42 callsubr
          endchar
        </CharString>
        <CharString name="threequarters">
          326 644 -42 callsubr
          31 -239 -75 callsubr
          189 -447 -3 callsubr
          -218 338 -21 callsubr
          endchar
        </CharString>
        <CharString name="threesuperior">
          436 644 -42 callsubr
          endchar
        </CharString>
        <CharString name="tilde">
          395 765 -76 callsubr
          endchar
        </CharString>
        <CharString name="tildecomb">
          0 95 765 -76 callsubr
          endchar
        </CharString>
        <CharString name="tildecomb.case">
          0 110 908 23 callsubr
          endchar
        </CharString>
        <CharString name="trademark">
          183 350 rmoveto
          252 67 87 -105 callsubr
          -228 -87 -104 callsubr
          56 -241 -104 callsubr
          298 hmoveto
          50 vlineto
          19 -11 56 -23 106 vhcurveto
          12 hlineto
          22 -77 14 -45 16 -53 rrcurveto
          -5 1 1 -1 5 hhcurveto
          26 hlineto
          17 53 17 54 21 74 rrcurveto
          12 hlineto
          -25 -117 -9 -40 -23 vvcurveto
          -40 vlineto
          -7 5 -4 6 vhcurveto
          88 339 -106 callsubr
          -101 hlineto
          -10 -53 -6 -36 -12 -60 rrcurveto
          -12 hlineto
          -10 58 -5 27 -11 54 rrcurveto
          6 -1 -4 4 -6 hhcurveto
          -105 -339 -94 callsubr
        </CharString>
        <CharString name="two">
          295 720 rmoveto
          -96 -83 -32 -28 -30 hvcurveto
          -3 -3 -2 -4 -5 vvcurveto
          -131 20 vlineto
          38 54 61 23 73 hhcurveto
          46 25 -8 -11 11 hvcurveto
          11 -11 2 -12 -16 vvcurveto
          -6 vlineto
          -33 -12 -31 -109 -62 vhcurveto
          -158 -90 -45 -79 -111 vvcurveto
          -97 -107 callsubr
          479 -102 callsubr
          -156 hlineto
          -70 -39 -8 -19 -42 hvcurveto
          -20 hlineto
          1 54 15 38 121 67 rrcurveto
          154 85 31 64 88 vvcurveto
          26 vlineto
          109 -78 74 -161 vhcurveto
          endchar
        </CharString>
        <CharString name="twoinferior">
          440 -33 rmoveto
          86 -105 callsubr
          -4 callsubr
          endchar
        </CharString>
        <CharString name="twosuperior">
          440 366 rmoveto
          86 -105 callsubr
          -4 callsubr
          endchar
        </CharString>
        <CharString name="twothirds">
          300 366 rmoveto
          86 -105 callsubr
          -4 callsubr
          330 39 -75 callsubr
          226 -160 -42 callsubr
          -340 51 -21 callsubr
          endchar
        </CharString>
        <CharString name="u">
          209 540 -83 callsubr
        </CharString>
        <CharString name="u.italic">
          70 540 rmoveto
          -400 vlineto
          -94 58 -58 78 73 44 35 71 32 vhcurveto
          20 hlineto
          -52 13 45 -42 82 hhcurveto
          49 -53 callsubr
          -29 vlineto
          -7 -6 2 3 -3 hvcurveto
          -3 3 -2 5 7 vvcurveto
          379 -28 callsubr
          -349 hlineto
          -34 -32 -41 -16 -38 hhcurveto
          -21 -13 14 22 hvcurveto
          352 -89 callsubr
        </CharString>
        <CharString name="uacute">
          -56 callsubr
          -300 -267 -83 callsubr
        </CharString>
        <CharString name="ubreve">
          300 -39 callsubr
          -91 -210 -83 callsubr
        </CharString>
        <CharString name="ucircumflex">
          246 -86 callsubr
          -131 -272 -83 callsubr
        </CharString>
        <CharString name="udieresis">
          112 -71 callsubr
          -268 -228 -83 callsubr
        </CharString>
        <CharString name="udotbelow">
          114 callsubr
          -75 -104 callsubr
          -92 callsubr
          108 callsubr
          1 -641 -103 callsubr
          -93 callsubr
        </CharString>
        <CharString name="ugrave">
          262 -46 callsubr
          -53 -267 -83 callsubr
        </CharString>
        <CharString name="uhungarumlaut">
          208 805 rmoveto
          -19 callsubr
          69 hmoveto
          -19 callsubr
          -410 -265 -83 callsubr
        </CharString>
        <CharString name="umacron">
          120 -30 callsubr
          -260 -235 -83 callsubr
        </CharString>
        <CharString name="underscore">
          50 -50 -98 callsubr
          489 -102 callsubr
          endchar
        </CharString>
        <CharString name="uogonek">
          114 callsubr
          -67 hlineto
          -47 -27 -30 -49 -64 44 callsubr
          15 callsubr
          10 2 1 5 4 vvcurveto
          529 -105 callsubr
          108 callsubr
          endchar
        </CharString>
        <CharString name="uring">
          42 callsubr
          -91 -245 -83 callsubr
        </CharString>
        <CharString name="utilde">
          395 767 -76 callsubr
          -186 -227 -83 callsubr
        </CharString>
        <CharString name="v">
          183 540 rmoveto
          -146 hlineto
          50 -175 51 -175 50 -175 rrcurveto
          -10 3 8 -5 10 hhcurveto
          198 hlineto
          50 174 51 173 50 174 rrcurveto
          10 3 -5 9 -11 hhcurveto
          -140 hlineto
          -29 -128 -31 -123 -33 -181 rrcurveto
          -20 hlineto
          -33 182 -29 115 -30 118 rrcurveto
          11 -3 -5 6 -9 hhcurveto
          endchar
        </CharString>
        <CharString name="v.italic">
          46 540 -97 callsubr
          48 -399 -104 callsubr
          173 hlineto
          146 115 107 163 hvcurveto
          48 vlineto
          100 -22 81 -36 36 vhcurveto
          2 -2 -6 3 -6 hhcurveto
          -132 -20 hlineto
          39 -58 13 -55 -89 vvcurveto
          -48 vlineto
          -86 -47 -54 -78 vhcurveto
          -18 399 -101 callsubr
        </CharString>
        <CharString name="w">
          244 451 -23 callsubr
        </CharString>
        <CharString name="w.italic">
          246 425 rmoveto
          -275 vlineto
          -20 -25 -24 -5 -19 hhcurveto
          -13 404 -106 callsubr
          -124 -534 -104 callsubr
          76 hlineto
          48 48 34 43 26 hvcurveto
          20 hlineto
          -44 19 39 -33 66 hhcurveto
          16 hlineto
          103 75 75 110 hvcurveto
          168 vlineto
          86 -15 71 -30 30 vhcurveto
          2 -2 -6 3 -6 hhcurveto
          -112 -20 hlineto
          33 -49 9 -47 -76 vvcurveto
          -168 vlineto
          -43 -21 -12 -34 vhcurveto
          -7 hlineto
          -15 -10 10 15 hvcurveto
          264 -89 callsubr
        </CharString>
        <CharString name="wacute">
          337 -37 callsubr
          -264 -356 -23 callsubr
        </CharString>
        <CharString name="wcircumflex">
          245 -86 callsubr
          -95 -361 -23 callsubr
        </CharString>
        <CharString name="wdieresis">
          111 -71 callsubr
          -232 -317 -23 callsubr
        </CharString>
        <CharString name="wgrave">
          261 -46 callsubr
          -17 -356 -23 callsubr
        </CharString>
        <CharString name="won">
          49 700 rmoveto
          1 -31 2 -24 3 -45 2 -23 2 -27 2 -29 rrcurveto
          -45 -139 hlineto
          -7 4 -4 7 7 11 3 9 26 vhcurveto
          3 -38 3 -38 2 -38 rrcurveto
          -63 -129 -104 callsubr
          63 hlineto
          4 -49 3 -41 3 -29 rrcurveto
          -6 1 4 -4 6 hhcurveto
          147 hlineto
          14 120 10 81 10 190 rrcurveto
          20 hlineto
          10 -189 11 -83 12 -108 rrcurveto
          -7 1 4 -4 6 hhcurveto
          142 hlineto
          5 43 4 43 4 43 rrcurveto
          73 129 -106 callsubr
          -50 hlineto
          4 39 3 39 3 39 rrcurveto
          -11 31 14 -4 6 hhcurveto
          139 -105 callsubr
          -31 hlineto
          4 53 3 55 4 56 rrcurveto
          10 1 -4 5 -8 hhcurveto
          -106 hlineto
          -3 -65 -2 -56 -2 -58 rrcurveto
          -63 hlineto
          -1 13 -2 13 -1 13 rrcurveto
          7 -1 -6 4 -6 hhcurveto
          -105 hlineto
          -2 -16 -2 -17 -2 -17 rrcurveto
          -63 hlineto
          -3 64 -3 52 -3 49 rrcurveto
          9 -1 -5 5 -8 hhcurveto
          252 -565 rmoveto
          -10 107 -11 108 -10 97 20 -7 18 -7 16 -7 rrcurveto
          -1 -76 -1 -90 -125 vvcurveto
          -244 hmoveto
          113 -1 96 -2 80 vhcurveto
          15 6 18 6 19 8 -11 -96 -11 -104 -6 -109 rrcurveto
          endchar
        </CharString>
        <CharString name="x">
          45 540 rmoveto
          54 -89 54 -89 54 -89 -53 -82 -52 -82 -52 -82 rrcurveto
          -5 -8 -2 -4 -4 vvcurveto
          -7 4 -4 8 vhcurveto
          154 hlineto
          26 58 27 58 26 58 rrcurveto
          15 hlineto
          27 -55 27 -54 27 -55 rrcurveto
          -8 5 6 -2 8 hhcurveto
          162 hlineto
          -56 91 -56 90 -56 90 52 82 53 83 51 82 rrcurveto
          3 5 1 4 3 vvcurveto
          7 -5 3 -7 vhcurveto
          -156 hlineto
          -25 -60 -22 -59 -25 -60 rrcurveto
          -14 hlineto
          -26 56 -26 57 -26 56 rrcurveto
          7 -5 -5 3 -9 hhcurveto
          endchar
        </CharString>
        <CharString name="x.italic">
          63 540 -97 callsubr
          67 hlineto
          26 -48 23 -43 22 -40 -57 -90 -66 -102 -55 -87 rrcurveto
          175 hlineto
          9 6 3 12 2 hvcurveto
          10 58 5 51 3 59 rrcurveto
          19 hlineto
          17 -33 18 -33 20 -36 rrcurveto
          -65 36 32 -16 55 hhcurveto
          83 hlineto
          13 3 5 13 hvcurveto
          112 -68 vlineto
          -9 -9 3 10 -5 hvcurveto
          -15 31 -22 40 -23 45 53 84 60 94 52 84 rrcurveto
          2 3 2 4 3 vvcurveto
          5 -3 4 -7 vhcurveto
          -175 hlineto
          -9 -48 -7 -61 -2 -76 rrcurveto
          -18 hlineto
          -33 62 -33 62 -26 49 rrcurveto
          9 -4 -8 3 -7 hhcurveto
          endchar
        </CharString>
        <CharString name="y">
          187 540 -52 callsubr
        </CharString>
        <CharString name="y.italic">
          70 540 rmoveto
          -370 vlineto
          -94 58 -58 82 69 50 28 70 31 vhcurveto
          20 -67 80 callsubr
          91 166 hvcurveto
          482 -54 callsubr
          -307 hlineto
          -43 -34 -47 -27 -40 hhcurveto
          -21 -13 14 22 hvcurveto
          330 -89 callsubr
        </CharString>
        <CharString name="yacute">
          348 -37 callsubr
          -332 -267 -52 callsubr
        </CharString>
        <CharString name="ycircumflex">
          256 -86 callsubr
          -163 -272 -52 callsubr
        </CharString>
</ttFont>
